<?xml version="1.0" encoding="UTF-8"?><svg id="svg2" xmlns="http://www.w3.org/2000/svg" viewBox="0 0 150 150"><path d="M47.58,25.23c.21,.36,.54,.66,.99,.9,.46,.24,.97,.35,1.53,.35,.22,0,.45-.04,.69-.11,.24-.07,.45-.17,.65-.28,.21-.12,.4-.26,.56-.41,.17-.16,.32-.33,.43-.5,.21-.34,.34-.65,.37-.93,.05-.29,.07-.63,.07-1.03v-.41h-1.77v.63c0,.19-.01,.34-.04,.45-.02,.1-.11,.26-.24,.49-.14,.22-.42,.34-.84,.34-.4,0-.68-.12-.86-.37-.15-.24-.24-.45-.26-.63v-6.93c0-.35,.09-.64,.28-.88,.2-.24,.47-.35,.82-.35,.37,0,.65,.12,.84,.35,.2,.24,.3,.53,.3,.88v.67h1.77v-.67c0-.88-.29-1.61-.86-2.17-.57-.57-1.29-.86-2.15-.86-.45,0-.88,.12-1.29,.35-.41,.22-.73,.5-.95,.82-.22,.32-.37,.63-.45,.91-.06,.27-.09,.58-.09,.93v6.44c0,.36,.02,.7,.07,1.01,.06,.31,.2,.65,.41,1.01Z"/><polygon points="59.48 24.58 55.94 24.58 55.94 13.87 54.14 13.87 54.14 26.37 59.48 26.37 59.48 24.58"/><rect x="59.89" y="13.87" width="1.77" height="12.51"/><polygon points="65.02 18.76 66.79 24.1 67.69 24.1 69.48 18.76 69.48 26.37 71.25 26.37 71.25 13.87 69.61 13.87 67.28 20.53 64.91 13.87 63.23 13.87 63.23 26.37 65.02 26.37 65.02 18.76"/><path d="M74,23.68h2.31l.5,2.69h1.92l-2.8-12.51h-1.55l-2.8,12.51h1.89l.52-2.69Zm1.16-6.22l.84,4.55h-1.68l.84-4.55Z"/><polygon points="80.36 26.37 82.13 26.37 82.13 15.53 84.28 15.53 84.28 13.87 78.25 13.87 78.25 15.53 80.36 15.53 80.36 26.37"/><polygon points="90.49 24.58 86.91 24.58 86.91 20.9 90.05 20.9 90.05 19.2 86.91 19.2 86.91 15.51 90.49 15.51 90.49 13.87 85.14 13.87 85.14 26.37 90.49 26.37 90.49 24.58"/><path d="M48.75,40.93h2.31l.5,2.69h1.92l-2.8-12.51h-1.55l-2.8,12.51h1.89l.52-2.69Zm1.16-6.22l.84,4.55h-1.68l.84-4.55Z"/><path d="M60.07,34.7v-.67c0-.88-.29-1.61-.86-2.17-.57-.57-1.29-.86-2.15-.86-.45,0-.88,.12-1.29,.35-.41,.22-.73,.5-.95,.82-.22,.32-.37,.63-.45,.91-.06,.27-.09,.58-.09,.93v6.44c0,.36,.02,.7,.07,1.01,.06,.31,.2,.65,.41,1.01s.54,.66,.99,.9c.46,.24,.97,.35,1.53,.35,.22,0,.45-.04,.69-.11,.24-.07,.45-.17,.65-.28,.21-.12,.4-.26,.56-.41,.17-.16,.32-.33,.43-.5,.21-.34,.34-.65,.37-.93,.05-.29,.07-.63,.07-1.03v-.41h-1.77v.63c0,.19-.01,.34-.04,.45-.02,.1-.11,.26-.24,.49-.14,.22-.42,.34-.84,.34-.4,0-.68-.12-.86-.37-.15-.24-.24-.45-.26-.63v-6.93c0-.35,.09-.64,.28-.88,.2-.24,.47-.35,.82-.35,.37,0,.65,.12,.84,.35,.2,.24,.3,.53,.3,.88v.67h1.77Z"/><polygon points="64.83 43.62 64.83 32.77 66.98 32.77 66.98 31.11 60.95 31.11 60.95 32.77 63.06 32.77 63.06 43.62 64.83 43.62"/><rect x="67.88" y="31.11" width="1.77" height="12.51"/><path d="M71.04,34.16v6.37c0,.31,.02,.58,.06,.82s.15,.55,.34,.93c.1,.19,.24,.37,.41,.54,.19,.17,.4,.33,.63,.47,.24,.14,.49,.25,.77,.34,.27,.07,.56,.11,.86,.11,.52,0,1-.12,1.42-.37,.44-.25,.77-.55,.99-.9,.24-.35,.39-.67,.45-.95,.07-.29,.11-.62,.11-.99v-6.37c0-.4-.05-.77-.15-1.1-.1-.35-.29-.68-.56-1.01s-.62-.58-1.03-.77c-.4-.19-.83-.28-1.29-.28s-.93,.12-1.38,.35c-.44,.22-.8,.54-1.08,.93-.2,.29-.34,.58-.43,.88-.07,.29-.11,.62-.11,.99Zm1.79,6.37v-6.37c0-.1,.01-.22,.04-.37,.02-.15,.07-.3,.15-.45,.09-.15,.23-.28,.43-.39,.21-.12,.42-.19,.63-.19,.41,0,.73,.17,.97,.52h0c.11,.14,.17,.26,.19,.35,.02,.1,.04,.27,.04,.52v6.37c0,.2-.01,.36-.04,.49s-.08,.26-.17,.41c-.07,.14-.21,.26-.39,.37-.17,.1-.37,.15-.6,.15-.44,0-.75-.13-.93-.39-.19-.29-.29-.49-.3-.62-.01-.07-.02-.14-.02-.21v-.21Z"/><polygon points="83.07 38.69 80.3 31.11 78.6 31.11 78.6 43.62 80.4 43.62 80.4 36.02 83.18 43.62 84.86 43.62 84.86 31.11 83.07 31.11 83.07 38.69"/><polygon points="11.17 16.98 11.17 21.53 15.46 18.32 15.46 43.78 19.7 43.78 19.7 13.85 15.46 13.85 11.17 16.98"/><path d="M23.35,39.76c.12,.3,.27,.64,.45,1.03,.3,.71,.98,1.44,2.05,2.19,1.07,.71,2.2,1.07,3.39,1.07,1.52,0,2.84-.45,3.98-1.34,1.16-.89,1.95-2.05,2.37-3.48,.09-.48,.13-.83,.13-1.07,.03-.27,.04-.51,.04-.71v-4.56c0-1.13-.19-2.02-.58-2.68-.36-.68-1.01-1.37-1.97-2.05,1.7-1.01,2.55-2.49,2.55-4.42v-3.48c0-.68-.07-1.34-.22-1.97-.15-.63-.46-1.3-.94-2.01-.45-.71-1.16-1.34-2.14-1.88-.95-.54-1.95-.8-2.99-.8-1.91,0-3.45,.64-4.65,1.92-1.22,1.28-1.83,2.86-1.83,4.73v2.19h4.29v-2.19c0-.71,.18-1.3,.54-1.74,.36-.48,.91-.71,1.65-.71,.33,0,.61,.06,.85,.18,.24,.12,.43,.27,.58,.45,.18,.18,.31,.36,.4,.54s.13,.31,.13,.4c.06,.24,.09,.54,.09,.89v3.57c0,1.67-.89,2.5-2.68,2.5h-.76v3.8h.76c.24,0,.51,.01,.8,.04,.3,0,.58,.07,.85,.22,.27,.12,.49,.33,.67,.63,.21,.3,.33,.73,.36,1.3v4.6c0,.8-.16,1.47-.49,2.01s-.88,.8-1.65,.8-1.31-.27-1.61-.8c-.27-.48-.43-.91-.49-1.3v-2.46h-4.29v2.9c.03,.3,.07,.58,.13,.85,.06,.27,.13,.55,.22,.85Z"/><path d="M77.73,66.84c-21.58-.2-43.31,9.64-55.96,28.24,24.53,36.06,83.21,39.22,108.77,0-12.38-19-32.53-28.05-52.8-28.24Zm-17.17,11.96c.73,0,.6,.87-.21,1.49-.76,.58-1.53,.67-1.53,.19s1.23-1.68,1.74-1.68Zm-3.88,5.37c.43-.87,1.27-1.49,2.04-1.56,.11,0,.22,0,.32,0,.43,.06,.34,.2-.99,1.46-1.57,1.5-1.82,1.67-1.83,1.26,0-.15,.2-.68,.45-1.18Zm12.71,22.92c-.34,.39-.59,.9-.59,1.21s-.13,.71-.29,.92c-.16,.21-.3,.5-.3,.63,0,.31-.88,1.26-1.16,1.26-.12,0-.24,.1-.29,.22-.04,.12-.53,.27-1.08,.32-.91,.09-1.03,.05-1.34-.42h0c-.23-.35-.34-.93-.34-1.79,0-1.07-.08-1.36-.5-1.85-.28-.32-.55-.78-.6-1.03s-.14-.68-.2-.96c-.07-.35-.33-.6-.8-.8-.38-.16-.69-.37-.69-.47s-.36-.56-.81-1.02c-.78-.81-.84-.83-1.73-.71-.51,.07-1.07,.26-1.25,.43s-.64,.3-1.01,.29c-.58,0-.73-.11-1.03-.71-.19-.39-.35-.87-.35-1.08s-.13-.68-.28-1.04c-.37-.86-.73-3.18-.85-5.49-.09-1.8-.08-1.87,.52-2.75,.34-.5,.61-.98,.61-1.08,0-.2,1.4-.72,1.7-.63,.11,.03,.71,.14,1.33,.24,.62,.1,1.38,.32,1.69,.48,.31,.16,.7,.3,.87,.3,.16,0,.47,.14,.69,.3,.21,.16,.59,.29,.84,.29s.5,.08,.55,.17c.06,.09,.44,.23,.84,.29,1.29,.21,3.05-.89,3.06-1.9,0-.76-.7-1.35-1.61-1.35-.41,0-.85-.13-.98-.3-.14-.16-.57-.3-.96-.3-.44,0-.88-.16-1.15-.41-.58-.55-2.08-.62-2.62-.13-.21,.19-.58,.35-.83,.35s-.68,.12-.98,.27-.97,.34-1.5,.41l-.96,.14,.06-.56c.06-.5,.16-.58,.96-.69,1.75-.24,2.69-.64,2.76-1.18,.06-.43,.27-.67,1.33-1.54,.11-.09,.68-.32,1.27-.51,1-.33,1.15-.33,2.36-.03,1.56,.39,2.28,.26,3.14-.57,.36-.35,.89-.83,1.18-1.08,.6-.51,.64-.7,.22-1.05-.5-.42-1.68-.1-2.36,.64-.52,.56-.73,.65-1.51,.64-1.1-.02-2.56-.62-2.72-1.12-.28-.89,1.31-1.66,3.82-1.83,1.07-.08,2.05-.21,2.16-.31,.29-.24,2.91-.5,2.89-.29,0,.1-.39,.36-.85,.59-.74,.36-.84,.49-.84,1.09,0,.5,.1,.7,.36,.75,.42,.08,1.97-.61,2.84-1.26,.33-.25,.77-.49,.98-.53,.21-.04,.46-.34,.57-.66,.18-.53,.13-.64-.48-1.18-.95-.84-1.37-1.53-1.37-2.23,0-1.25-.27-1.37-3.33-1.5-1.52-.06-2.57-.13-2.33-.15,.23-.02,.54-.17,.67-.33,.14-.16,.4-.3,.58-.3s.51-.13,.72-.29c.21-.16,.55-.3,.76-.3,.2,0,.65-.14,1-.3,.35-.16,1.12-.38,1.72-.49,.6-.11,1.5-.29,1.99-.4,.59-.13,1.76-.2,2.91-.2,1.15,0,2.27,.07,2.78,.2,.44,.12,1.25,.28,1.79,.37,1.21,.2,3,.73,3.72,1.12,.29,.16,.68,.29,.86,.29s.47,.13,.63,.3c.16,.16,.47,.3,.68,.3s.38,.09,.38,.2,.23,.29,.5,.4c.28,.11,.61,.29,.75,.4,.13,.11,.72,.56,1.3,.98,1.05,.77,3.82,3.31,3.82,3.51,0,.06,.45,.67,1,1.37,.55,.7,1,1.36,1,1.48s.11,.33,.25,.48c.76,.81,2.34,4.97,2.34,6.15,0,1.37-1.19,1.83-2.06,.79-1.29-1.53-2.53,.14-1.41,1.89,.2,.31,.2,.47,.02,.71-.3,.39-1.83,1.19-2.29,1.19-.54,0-1.37,1.09-1.51,1.99-.15,.94,.14,2.23,.58,2.59,.28,.23,.43,1.2,.19,1.2-.16,0-1.28-.81-2.03-1.48-.59-.53-.9-1.06-1.75-3.01-.14-.33-.31-.83-.37-1.11-.19-.9-1-1.58-1.87-1.58-1.21,0-1.52,.35-1.55,1.74-.02,.82-.14,1.35-.41,1.71-.45,.62-.5,.63-1.04,.18-.96-.79-1.33-1.05-1.55-1.05-.13,0-.35-.13-.48-.3-.14-.16-.48-.3-.77-.31-1.04-.02-2.28-.83-2.76-1.79-.25-.49-.45-.99-.45-1.1,0-.18-1.82-1.49-2.07-1.49-.05,0-.56-.31-1.13-.68-1.18-.78-1.59-.74-1.59,.14,0,.51,.28,.88,1.58,2.13,1.74,1.67,2.08,2.36,1.49,3.02-.34,.38-1.5,.97-1.9,.97-.1,0-.85-.68-1.66-1.51-1.13-1.15-1.6-1.49-1.94-1.45-.33,.05-.47,.22-.52,.64-.04,.31,.03,.67,.15,.79,.12,.12,.21,.37,.21,.57,0,.63,1.71,2.76,2.22,2.76,.09,0,.4,.2,.68,.44,.67,.59,.53,1.15-.59,2.29-.84,.85-.86,.91-.97,2.47-.06,.88-.2,1.71-.3,1.84-.11,.13-.25,.51-.32,.84-.07,.33-.4,.9-.72,1.27Zm25.21-7.14c-.13,.21-.36,.23-.54,.05-.16-.16-.05-.34,.15-.37,.07,0,.14,0,.22,.03,.16,.06,.24,.19,.18,.29Zm-12.65-2.53s-.13,.13-.3,.19c-.16,.06-.3,.03-.3-.08s.13-.19,.3-.19,.3,.04,.3,.08Zm-8.9,5.21c-.18,.33-.39,.82-.48,1.1-.12,.38-.16,.22-.18-.65-.01-.9,.07-1.24,.38-1.55,.22-.22,.44-.4,.5-.4,.22,0,.08,.93-.22,1.5Zm16.23,10.75s-.24,.14-.46,.28c-.22,.14-.64,.36-.95,.49-.3,.13-.55,.3-.55,.38s-.26,.2-.58,.27c-.32,.07-.69,.26-.82,.41-.13,.16-.37,.29-.53,.29s-.48,.11-.72,.24c-.53,.3-1.76,.67-3.62,1.09-1.54,.35-7.12,.55-7.78,.28h0c-.22-.09-.89-.23-1.49-.31-1.18-.16-1.39-.32-1.39-1.11,0-.56,1.1-1.78,1.61-1.78,.16,0,.5-.14,.74-.31,.85-.59,5.23-.19,6.89,.63,.31,.15,.74,.28,.96,.28s.64,.12,.93,.27c.69,.35,1.84,.53,2.25,.36,.18-.07,.74-.49,1.25-.92,1.11-.93,2.75-1.55,3.63-1.49,.29,.02,.5,.12,.57,.3,.07,.18,.1,.34,.07,.35Zm7.9-9.85c-.57,1.26-1.09,2.29-1.48,2.89-.21,.33-.47,.79-.57,1.03-.1,.24-.26,.46-.35,.5-.09,.04-.42,.45-.74,.92-.32,.47-.65,.85-.75,.85s-.17,.13-.17,.3-.16,.31-.35,.32c-2.05,.11-2.42,.07-2.51-.27-.11-.43-.79-.46-1.2-.05-.16,.16-.53,.3-.81,.3-.43,0-.51-.09-.51-.56,0-.31-.13-.73-.29-.95-.18-.23-.29-.85-.3-1.54,0-1.23,.46-2.23,1.41-3.04,.45-.38,2.97-1.3,3.54-1.3,.7,0,3.44-1.05,4.05-1.55,.18-.15,.34-.22,.47-.2,.23,.03,.41,.31,.6,.87,.24,.69,.23,.88-.04,1.49Zm1.43-5.18c-.16,0-.36-.11-.44-.25-.89-1.43-1.14-3.09-.57-3.85,.16-.21,.3-.68,.3-1.04,0-.46,.08-.66,.25-.62,.1,.02,.24,.14,.42,.34,.46,.51,.5,5.42,.04,5.42Z"/></svg>