<?xml version="1.0" encoding="UTF-8"?><svg id="svg2" xmlns="http://www.w3.org/2000/svg" viewBox="0 0 150 150"><defs><style>.cls-1{fill-rule:evenodd;}</style></defs><polygon class="cls-1" points="53.85 24.58 50.31 24.58 50.31 13.87 48.52 13.87 48.52 26.37 53.85 26.37 53.85 24.58"/><rect x="54.21" y="13.87" width="1.77" height="12.51"/><polygon class="cls-1" points="58.89 20.98 62.01 20.98 62.01 19.3 58.89 19.3 58.89 15.55 62.46 15.55 62.46 13.87 57.12 13.87 57.12 26.37 58.89 26.37 58.89 20.98"/><polygon class="cls-1" points="68.43 24.58 64.85 24.58 64.85 20.9 67.98 20.9 67.98 19.2 64.85 19.2 64.85 15.51 68.43 15.51 68.43 13.87 63.07 13.87 63.07 26.37 68.43 26.37 68.43 24.58"/><path class="cls-1" d="M48.76,42.28c.1,.19,.24,.37,.41,.54,.19,.17,.4,.33,.63,.47,.24,.14,.49,.25,.77,.34,.27,.07,.56,.11,.86,.11,.52,0,1-.12,1.42-.37,.44-.25,.77-.55,.99-.9,.24-.35,.39-.67,.45-.95,.07-.29,.11-.62,.11-.99v-6.37c0-.4-.05-.77-.15-1.1-.1-.35-.29-.68-.56-1.01-.27-.32-.62-.58-1.03-.77-.4-.19-.83-.28-1.29-.28s-.93,.12-1.38,.35c-.44,.22-.8,.54-1.08,.93h0c-.2,.29-.34,.58-.43,.88-.07,.29-.11,.62-.11,.99v6.37c0,.31,.02,.58,.06,.82s.15,.55,.34,.93Zm1.4-1.75v-6.37c0-.1,.01-.22,.04-.37,.02-.15,.07-.3,.15-.45,.09-.15,.23-.28,.43-.39,.21-.12,.42-.19,.63-.19,.41,0,.73,.17,.97,.52h0c.11,.14,.17,.26,.19,.35,.02,.1,.04,.27,.04,.52v6.37c0,.2-.01,.36-.04,.49s-.08,.26-.17,.41c-.07,.14-.21,.26-.39,.37-.17,.1-.37,.15-.6,.15-.44,0-.75-.13-.93-.39-.19-.29-.29-.49-.3-.62-.01-.07-.02-.14-.02-.21v-.21Z"/><polygon class="cls-1" points="57.21 31.11 55.51 31.11 55.51 43.62 57.3 43.62 57.3 36.02 60.08 43.62 61.76 43.62 61.76 31.11 59.97 31.11 59.97 38.69 57.21 31.11"/><polygon class="cls-1" points="66.9 31.11 66.9 43.62 72.23 43.62 72.23 41.83 68.69 41.83 68.69 31.11 66.9 31.11"/><path class="cls-1" d="M74.74,40.93h2.31l.5,2.69h1.92l-2.8-12.51h-1.55l-2.8,12.51h1.89l.52-2.69Zm1.16-6.22l.84,4.55h-1.68l.84-4.55Z"/><polygon class="cls-1" points="81.81 36.02 84.59 43.62 86.27 43.62 86.27 31.11 84.47 31.11 84.47 38.69 81.71 31.11 80.01 31.11 80.01 43.62 81.81 43.62 81.81 36.02"/><path class="cls-1" d="M92.41,42.76c.56-.57,.84-1.32,.84-2.24v-6.5c0-.81-.29-1.49-.88-2.05-.57-.57-1.26-.86-2.07-.86h-2.84s0,12.51,0,12.51h2.78c.88,0,1.61-.29,2.17-.86Zm-3.17-.8v-9.17h.93c.36,0,.67,.12,.91,.35,.26,.24,.39,.53,.39,.88v6.5h0c0,.96-.45,1.44-1.36,1.44h-.88Z"/><polygon class="cls-1" points="11.47 16.98 11.47 21.53 15.75 18.32 15.75 43.78 20 43.78 20 13.85 15.75 13.85 11.47 16.98"/><path class="cls-1" d="M35,26.62c-.36-.57-.92-1.06-1.7-1.47-.74-.42-1.49-.63-2.23-.63h0c-1.31,0-2.47,.45-3.48,1.34v-8.04h8.4v-3.98h-12.24v15.99h3.84c.36-1.07,1.06-1.61,2.1-1.61,.36,0,.66,.07,.89,.22,.27,.12,.48,.28,.63,.49,.18,.18,.3,.37,.36,.58,.09,.21,.13,.39,.13,.54,.03,.15,.04,.3,.04,.45v6.7c0,.3-.01,.58-.04,.85-.03,.24-.18,.58-.45,1.03s-.8,.67-1.61,.67c-.36,0-.67-.06-.94-.18-.27-.15-.48-.31-.63-.49-.15-.21-.27-.42-.36-.63-.09-.21-.13-.39-.13-.54v-1.65h-4.38v.76c0,.77,.09,1.53,.27,2.28,.18,.74,.52,1.47,1.03,2.19,.51,.71,1.22,1.33,2.14,1.83,.92,.48,1.89,.71,2.9,.71,1.34,0,2.56-.37,3.66-1.12,1.16-.74,1.89-1.52,2.19-2.32,.3-.8,.46-1.43,.49-1.88,.06-.48,.09-1.04,.09-1.7v-6.7c0-.68-.07-1.33-.22-1.92-.12-.63-.37-1.22-.76-1.79Z"/><path class="cls-1" d="M45.33,84.79c-4.59,7.2-.03,14.03,5.46,14.03h17.93c9.87,0,16.8-16.75,1.39-23.66,5.62-19.48-20.37-18.16-20.21-5.07h0c-11.16,.77-9.99,11.61-4.57,14.7Z"/><path class="cls-1" d="M97.86,89.63c-6.14-3.93-9.54-2.15-11.97,0-.64,.56-.41,1.86,.71,1.34,5-2.32,11.1,2.83,11.1,2.83,0,0,5.23-4.87,10.94-2.76,1.47,.54,1.36-.99,.87-1.34-2.92-2.1-6.57-4.11-11.65-.08Z"/><path class="cls-1" d="M88.36,74.48s3.96-4.39,8.82-3.07c1.25,.34,1.05-.91,.62-1.17-2.56-1.52-5.71-2.91-9.61,.78-5.35-2.79-8.02-1.08-9.86,.87-.48,.51-.21,1.56,.68,1.05h0c3.95-2.28,9.36,1.53,9.36,1.53Z"/><path class="cls-1" d="M93.35,62.09h0c3.63-.54,6.55,3.91,6.55,3.91,0,0,4.26-2.12,7.51,.31,.84,.62,1.05-.37,.81-.69-1.47-1.89-3.42-3.87-7.42-2.25-3.18-3.67-5.69-3.17-7.64-2.26-.51,.24-.62,1.11,.2,.99Z"/><rect x="58.73" y="101.62" width="5.37" height="11.57" rx=".83" ry=".83"/><rect x="39.14" y="117.64" width="72.53" height="5.18" rx=".83" ry=".83"/><rect x="39.14" y="126.15" width="72.53" height="5.18" rx=".83" ry=".83"/></svg>