<?xml version="1.0" encoding="UTF-8"?><svg id="svg2" xmlns="http://www.w3.org/2000/svg" viewBox="0 0 150 150"><polygon points="54.67 24.58 51.13 24.58 51.13 13.87 49.34 13.87 49.34 26.37 54.67 26.37 54.67 24.58"/><rect x="55.26" y="13.87" width="1.77" height="12.51"/><polygon points="60.32 20.98 63.44 20.98 63.44 19.3 60.32 19.3 60.32 15.55 63.89 15.55 63.89 13.87 58.55 13.87 58.55 26.37 60.32 26.37 60.32 20.98"/><polygon points="69.86 24.58 66.27 24.58 66.27 20.9 69.41 20.9 69.41 19.2 66.27 19.2 66.27 15.51 69.86 15.51 69.86 13.87 64.5 13.87 64.5 26.37 69.86 26.37 69.86 24.58"/><path d="M54.25,42.76c.57-.57,.86-1.3,.86-2.18v-1.46c0-.95-.38-1.64-1.14-2.09,.76-.39,1.14-1.06,1.14-2.02v-.95c0-.85-.21-1.47-.62-1.87-.39-.39-.77-.67-1.14-.84-.34-.16-.7-.24-1.08-.24h-2.95v12.51h2.76c.88,0,1.61-.29,2.17-.86Zm-3.15-9.97h1.01c.37,0,.67,.12,.9,.35,.22,.22,.34,.53,.34,.91v.77c0,.44-.09,.78-.28,1.05-.19,.25-.49,.37-.9,.37h-1.06v-3.45Zm0,5.04h1.01c.39,0,.68,.12,.9,.35,.22,.22,.34,.54,.34,.93v1.46c0,.36-.11,.67-.34,.91-.22,.24-.52,.35-.88,.35h-1.03v-4.01Z"/><polygon points="62.22 32.76 62.22 31.11 56.86 31.11 56.86 43.62 62.22 43.62 62.22 41.83 58.64 41.83 58.64 38.15 61.77 38.15 61.77 36.45 58.64 36.45 58.64 32.76 62.22 32.76"/><polygon points="62.94 31.11 62.94 43.62 68.28 43.62 68.28 41.83 64.73 41.83 64.73 31.11 62.94 31.11"/><path d="M69.02,32.29h0c-.2,.29-.34,.58-.43,.88-.07,.29-.11,.62-.11,.99v6.37c0,.31,.02,.58,.06,.82,.04,.24,.15,.55,.34,.93,.1,.19,.24,.37,.41,.54,.19,.17,.4,.33,.63,.47,.24,.14,.49,.25,.77,.34,.27,.07,.56,.11,.86,.11,.52,0,1-.12,1.42-.37,.44-.25,.77-.55,.99-.9,.24-.35,.39-.67,.45-.95,.07-.29,.11-.62,.11-.99v-6.37c0-.4-.05-.77-.15-1.1-.1-.35-.29-.68-.56-1.01-.27-.32-.62-.58-1.03-.77-.4-.19-.83-.28-1.29-.28s-.93,.12-1.38,.35c-.44,.22-.8,.54-1.08,.93Zm1.25,8.23v-6.37c0-.1,.01-.22,.04-.37,.02-.15,.07-.3,.15-.45,.09-.15,.23-.28,.43-.39,.21-.12,.42-.19,.63-.19,.41,0,.73,.17,.97,.52h0c.11,.14,.17,.26,.19,.35,.02,.1,.04,.27,.04,.52v6.37c0,.2-.01,.36-.04,.49-.02,.12-.08,.26-.17,.41-.07,.14-.21,.26-.39,.37-.17,.1-.37,.15-.6,.15-.44,0-.75-.13-.93-.39-.19-.29-.29-.49-.3-.62-.01-.07-.02-.14-.02-.21v-.21Z"/><polygon points="78.91 43.62 80.35 36 81.83 43.62 83.51 43.62 85.26 31.11 83.37 31.11 82.48 38.67 81 31.11 79.68 31.11 78.24 38.67 77.35 31.11 75.44 31.11 77.25 43.62 78.91 43.62"/><polygon points="91.06 43.62 92.5 36 93.97 43.62 95.65 43.62 97.41 31.11 95.52 31.11 94.63 38.67 93.15 31.11 91.83 31.11 90.39 38.67 89.49 31.11 87.59 31.11 89.4 43.62 91.06 43.62"/><path d="M98.89,43.62l.52-2.69h2.31l.5,2.69h1.92l-2.8-12.51h-1.55l-2.8,12.51h1.89Zm1.68-8.9l.84,4.55h-1.68l.84-4.55Z"/><polygon points="105.65 43.62 107.43 43.62 107.43 32.77 109.57 32.77 109.57 31.11 103.54 31.11 103.54 32.77 105.65 32.77 105.65 43.62"/><polygon points="110.56 43.62 115.92 43.62 115.92 41.83 112.33 41.83 112.33 38.15 115.47 38.15 115.47 36.45 112.33 36.45 112.33 32.76 115.92 32.76 115.92 31.11 110.56 31.11 110.56 43.62"/><path d="M121.19,37.89c.98-.61,1.47-1.49,1.47-2.65v-1.16c0-.83-.29-1.54-.86-2.11-.56-.57-1.25-.86-2.07-.86h-3.14v12.51h1.79v-5.36h1.12l1.68,5.36h1.9l-1.9-5.73Zm-.32-2.65c0,.21-.02,.4-.07,.58-.04,.17-.11,.33-.22,.47h0c-.25,.26-.56,.39-.93,.39h-1.25v-3.9h1.27c.39,0,.68,.12,.9,.37,.21,.24,.32,.55,.32,.93v1.16Z"/><polygon points="11.32 16.98 11.32 21.53 15.61 18.32 15.61 43.78 19.85 43.78 19.85 13.85 15.61 13.85 11.32 16.98"/><polygon points="35.45 43.78 35.45 39.22 37.55 39.22 37.55 35.2 35.45 35.2 35.45 26.67 31.16 26.67 31.16 35.2 26.96 35.2 33.35 13.85 28.84 13.85 22.63 35.2 22.63 39.22 31.16 39.22 31.16 43.78 35.45 43.78"/><path d="M95.84,72.67c-6.59,4.41-13.34,7.56-21.36,.2-6.92,5.99-14.03,4.57-21.22-.3-5.42,4.32-11.12,6.74-18.38,2.49l.2,4.18c7.89,6.16,12.82,2.39,17.73-1.44,9.41,6.91,15.71,3.62,21.86-.15,8.34,6.26,15.19,4.89,21.41,.3,5.04,4.17,10.64,6.23,18.18,1.05l-.35-3.98c-8.8,4.71-13.25,.75-18.08-2.34Z"/><path d="M83.64,91.88c-10.1,.23-20.01,5.57-29.84,12.86-4.33-7.43-10.03-12.72-19.12-12.75,8.69,12.93,6.94,24.45,0,35.26,9.09-.03,14.8-5.32,19.12-12.75,19.66,14.58,39.62,21.34,60.86-4.88-10.62-13.11-20.92-17.98-31.02-17.74Zm14.63,15.04c0,2.68-2.17,4.84-4.85,4.84-2.67,0-4.84-2.17-4.84-4.84,0-2.68,2.17-4.85,4.84-4.85,2.68,0,4.85,2.17,4.85,4.84h0Z"/><path d="M35.08,66.99c7.89,6.16,12.82,2.39,17.73-1.44,9.41,6.91,15.71,3.62,21.86-.15,8.34,6.26,15.19,4.89,21.41,.3,5.04,4.17,10.64,6.23,18.18,1.05l-.35-3.98c-8.8,4.71-13.25,.75-18.08-2.34-6.59,4.41-13.34,7.56-21.36,.2-6.92,5.99-14.03,4.57-21.22-.3-5.42,4.32-11.12,6.74-18.38,2.49l.2,4.18Z"/></svg>