<?xml version="1.0" encoding="UTF-8"?><svg id="svg2" xmlns="http://www.w3.org/2000/svg" viewBox="0 0 150 150"><defs><style>.cls-1{fill-rule:evenodd;}</style></defs><polygon class="cls-1" points="69.33 36.52 69.43 36.51 69.43 36.41 69.33 36.43 69.33 36.52"/><polygon class="cls-1" points="76.39 30.48 76.37 30.41 76.33 30.42 76.36 30.5 76.39 30.48"/><path class="cls-1" d="M63.95,48.22c.6,.75,1.4,1.21,2.23,1.53,1.53,.61,3.33,.15,4.64-.69,.94-.6,1.75-1.46,2.87-1.46,.2,0,.4,.02,.6,.06-1.57,.63-3.01,1.74-4.12,2.81,.21,.24,.47,.46,.72,.66,1.24-1.29,2.66-2.68,4.07-3.26,1.41,.57,2.82,1.97,4.07,3.26,.25-.21,.52-.42,.73-.66-1.11-1.07-2.55-2.18-4.12-2.81,.2-.04,.4-.06,.6-.06,1.12,0,1.93,.85,2.87,1.46,1.31,.83,3.1,1.31,4.64,.69,.82-.31,1.63-.78,2.23-1.53-1.21,.83-3.02,.95-4.39,.38-1.51-.63-3.05-1.46-4.76-1.46-.63,0-1.24,.11-1.85,.29-.62-.19-1.24-.29-1.86-.29-1.72,0-3.26,.83-4.76,1.46-1.37,.56-3.17,.46-4.39-.38Z"/><path class="cls-1" d="M87.71,42.24c-.11,.47-.4,.89-.58,1.33,.9-.69,2.08-1.29,3.06-2.07,.95-.75,1.78-1.63,2.21-2.78,.31-.82,.39-1.81,.31-2.74-.15,2.09-2.37,3.21-3.43,4.92-.23,.37-.46,.75-.79,1.04,.05-.22,.24-.42,.34-.64,.34-.74,.5-1.59,.41-2.47-.11-1.05-.56-2.05-.39-3.17-.92,1.97-.62,4.44-1.14,6.57Z"/><path class="cls-1" d="M83.62,46.38c1.57-.52,3.4-.42,4.81-1.34,1.49-.98,2.87-2.52,3.16-4.26-1.05,2.37-3.68,2.56-5.43,4.01-.34,.27-.66,.53-1.03,.7l-.02-.02c.4-.37,.84-.8,1.15-1.25,1-1.47,.67-3.45,1.44-4.99-.7,.84-1.36,1.7-1.76,2.66-.65,1.54-.87,3.3-2.33,4.48Z"/><polygon class="cls-1" points="76.49 30.39 76.46 30.28 76.39 30.29 76.41 30.41 76.49 30.39"/><path class="cls-1" d="M75.48,30.55h.1v-.08s-.1,0-.1,0v.08Z"/><rect x="75.59" y="30.6" width=".08" height=".09"/><path class="cls-1" d="M77.17,30.47s.09,.08,.14,.08c.05,0,.19-.1,.19-.1,0,0,.06-.18,.02-.17-.05,.02-.15,.09-.17,.02,0-.05-.04-.05-.08-.05h0s-.08,0-.08,0l-.21,.02-.02,.09,.14,.02s.06,.05,.06,.09Z"/><polygon class="cls-1" points="76.87 30.3 76.59 30.32 76.59 30.39 76.87 30.38 76.87 30.3"/><path class="cls-1" d="M79.66,30.64s-.11,0-.14,.02c-.06,.02-.05,.06,0,.13l.15-.02s.11-.05,.09-.09c0-.03-.05-.03-.11-.03h0Z"/><polygon class="cls-1" points="69.49 35.41 69.52 35.3 69.43 35.26 69.44 35.07 69.52 35.06 69.53 34.97 69.34 35.1 69.21 35.03 69.21 35.33 69.42 35.6 69.49 35.41"/><path class="cls-1" d="M69.34,34.96c.02,.15,.11-.09,.11-.09v-.88l-.24-.03,.02,.09h.06c.1,.18,.02,.62,.02,.62,0,0-.15,.02-.18-.06-.02-.08-.09,.17-.04,.21,.05,.04,.23,0,.24,.15Z"/><polygon class="cls-1" points="75.3 30.45 75.4 30.47 75.4 30.39 75.31 30.38 75.3 30.45"/><polygon class="cls-1" points="81.49 33.12 81.45 33.15 81.36 33.2 81.28 33.15 81.24 33.21 81.34 33.27 81.36 33.29 81.38 33.28 81.45 33.23 81.46 33.26 81.53 33.22 81.51 33.16 81.49 33.12"/><polygon class="cls-1" points="81.79 33.09 81.93 33.12 81.94 33.04 81.81 33.02 81.79 33.09"/><polygon class="cls-1" points="81.11 29.92 81.04 29.88 81 29.96 81.07 30 81.11 29.92"/><path class="cls-1" d="M69.72,34.85s-.02-.05-.05-.05-.05,.02-.05,.05,.02,.05,.05,.05,.05-.02,.05-.05Z"/><polygon class="cls-1" points="79.45 30.44 79.41 30.53 79.48 30.56 79.52 30.47 79.45 30.44"/><path class="cls-1" d="M57.2,35.99c-.08,.93,0,1.92,.31,2.74,.43,1.14,1.26,2.03,2.21,2.78,.98,.78,2.16,1.38,3.06,2.07-.18-.45-.47-.86-.58-1.33-.54-2.14-.24-4.62-1.16-6.59h0c.17,1.12-.27,2.11-.37,3.18-.08,.88,.07,1.73,.41,2.47,.1,.22,.28,.41,.34,.64-.33-.3-.56-.67-.79-1.04-1.06-1.72-3.28-2.83-3.43-4.92Z"/><circle cx="69.59" cy="36.06" r=".05"/><polygon class="cls-1" points="79.07 30.25 79.07 30.33 79.2 30.31 79.2 30.23 79.07 30.25"/><path class="cls-1" d="M62.2,39.24c.77,1.54,.43,3.53,1.43,4.98,.31,.46,.75,.89,1.15,1.25l-.02,.02c-.37-.17-.69-.43-1.03-.7-1.75-1.46-4.38-1.64-5.43-4.01,.28,1.74,1.66,3.28,3.16,4.26,1.42,.93,3.24,.82,4.81,1.34-1.46-1.18-1.68-2.94-2.33-4.48-.4-.94-1.06-1.8-1.76-2.65Z"/><polygon class="cls-1" points="87.71 39.24 87.71 39.24 87.71 39.24 87.71 39.24"/><polygon class="cls-1" points="87.74 23.88 87.74 23.88 87.74 23.88 87.74 23.88"/><polygon class="cls-1" points="73.1 41.46 73.15 41.4 73.1 41.36 73.14 41.33 73.09 41.28 73.01 41.34 72.97 41.37 73.01 41.4 73.1 41.46"/><path class="cls-1" d="M88.69,26.88c-.37-.79-.45-1.68-.92-2.43-.82-1.3-2.18-1.8-3.44-2.29h0c.92,.82,1.55,1.86,2.26,2.8,.6,.79,1.4,1.27,2.11,1.92Z"/><polygon class="cls-1" points="74.01 42.33 74.07 42.38 74.13 42.32 74.17 42.28 74.12 42.26 73.99 42.2 73.96 42.27 74.04 42.31 74.01 42.33"/><polygon class="cls-1" points="67.73 42.86 67.57 42.85 67.67 43 67.69 43.11 67.82 43.15 67.87 43.23 67.96 43.18 67.9 43.01 67.73 42.86"/><path class="cls-1" d="M74.3,30.51s-.1-.02-.1-.02h0s-.02,.08-.02,.08l.1,.02,.02-.08Z"/><rect x="74.49" y="30.32" width=".1" height=".08"/><rect x="74.1" y="30.61" width=".08" height=".08" transform="translate(-4.59 15.23) rotate(-11.38)"/><polygon class="cls-1" points="72.75 28.1 72.82 28.17 72.87 28.1 72.79 28.04 72.75 28.1"/><path class="cls-1" d="M72.65,28.15s-.16,.02-.15-.05l.02,.15h.19c.08,0-.06-.09-.06-.09Z"/><path class="cls-1" d="M89.29,27.55c.14,.47,.34,.91,.46,1.4l-.03,.02c-.21-.55-.56-1.08-1.03-1.51-.88-.83-2.2-1.33-2.63-2.54,.02,1.69,1.46,2.97,2.77,3.95,.59,.44,1.09,1.04,1.4,1.66-.05-.47-.08-.85-.03-1.31,.14-1.47,.22-3.12-.79-4.24-.49-.53-1.03-.95-1.67-1.11,1.24,.85,1.18,2.39,1.56,3.68Z"/><polygon class="cls-1" points="62.2 39.24 62.2 39.24 62.2 39.24 62.2 39.24"/><polygon class="cls-1" points="75.14 30.42 75.23 30.43 75.23 30.35 75.14 30.34 75.14 30.42"/><path class="cls-1" d="M64.71,42.99h0c.95,1.28,1.22,3.14,2.96,3.79,.31,.11,.66,.14,.92,.31-.34,.05-.63-.05-.94-.12-2.24-.47-4.98,.15-6.66-1.76,.63,1.25,1.95,2.24,3.21,2.65,1.95,.64,3.99-.08,5.82-.53,.27-.07,.59-.05,.83-.14-1.02-.21-2.01-.52-2.8-1.24-1.14-1.04-2.14-2.14-3.36-2.95Z"/><path class="cls-1" d="M90.6,31.13l.13,1.69s-.02,.06-.06,.05c-.05-.19-.08-.39-.11-.59-.23-1.37-1.43-2.32-2.45-3.29-.24-.23-.42-.5-.53-.79,.08,.68,.27,1.38,.58,2,.79,1.59,2.3,2.87,2.57,4.68,.13-1.73,1.19-3.01,1.19-4.85,0-1.49-.58-2.71-1.45-3.82-.03-.02-.05-.05-.08-.04,.96,1.46,.08,3.3,.21,4.95Z"/><path class="cls-1" d="M81.84,45.95c-.79,.73-1.78,1.03-2.8,1.24,.24,.09,.56,.07,.83,.14,1.84,.46,3.87,1.18,5.82,.53,1.26-.42,2.57-1.4,3.21-2.65-1.68,1.91-4.42,1.3-6.66,1.77-.31,.07-.6,.17-.94,.12,.27-.17,.62-.19,.92-.31,1.74-.66,2.01-2.52,2.96-3.8h0c-1.21,.81-2.22,1.92-3.36,2.95Z"/><polygon class="cls-1" points="74.37 30.42 74.28 30.4 74.27 30.48 74.36 30.49 74.37 30.42"/><polygon class="cls-1" points="92.26 30.76 92.26 30.76 92.26 30.76 92.26 30.76"/><path class="cls-1" d="M90.89,35.86c-.17,.64-.23,1.33-.49,1.92-.02,.02-.05-.02-.06-.03,.65-1.82-.3-3.49-1.22-4.92-.24-.37-.36-.82-.47-1.26-.1,.82,.08,1.77,.23,2.62,.2,1.09,.56,2.11,.86,3.17,.2,.66,.15,1.4,.05,2.09l.09-.08c.69-1.27,2.05-2.26,2.46-3.65,.33-1.11,.56-2.39,.33-3.59-.11-.45-.2-.94-.4-1.37,.38,1.97-.92,3.4-1.37,5.1Z"/><circle cx="69.67" cy="36.32" r=".05"/><polygon class="cls-1" points="69.55 35.76 69.46 35.77 69.44 35.88 69.54 35.9 69.55 35.76"/><path class="cls-1" d="M74.62,36.32s-.05,.08-.12,0c0,0-.02-.02-.03-.02h0c-.06,0-.11,.2-.15,.24,0,0,.03,.11,.08,.1,.05,0,.09-.04,.15-.05,.05,0,.07-.08,.08-.17,.02-.08-.02-.11-.02-.11Z"/><path class="cls-1" d="M82.48,38.96s-.02,.02-.02,.02l.05,.05s.05-.09,.05-.13c-.02-.08-.08-.1-.1-.11h0s-.02,.08-.02,.08c0,0,.02,0,.02,.02l.02,.07Z"/><polygon class="cls-1" points="73.98 32.95 73.85 32.94 73.82 33 73.76 33 73.75 33.11 73.82 33.11 73.84 33.19 73.78 33.24 73.76 33.3 73.66 33.32 73.43 33.54 73.42 33.64 73.36 33.74 73.28 33.93 73.01 33.94 72.96 34.17 73 34.36 73.23 34.45 73.25 34.32 73.33 34.29 73.34 34.16 73.4 34.06 73.47 33.97 73.49 33.87 73.62 33.79 73.78 33.77 73.84 33.69 73.86 33.54 73.87 33.42 73.92 33.35 74.07 33.28 74.07 33.04 74 33.04 73.98 32.95"/><path class="cls-1" d="M77.42,22.36c-.06,.02-.19,.02-.19,.02h-.23s-.05-.06-.11-.05h0c-.05,0-.11,.03-.11,.05-.02,.05-.09,.06-.09,.06l-.29,.02c-.02,.08-.18,.13-.19,.08-.03-.11-.19,.15-.02,.19,.17,.05,.33,0,.33,0l.04-.08,.63,.02c.05-.05,.08-.13,.08-.13,0,0,.15-.05,.21-.02,.06,.02,.02-.18-.05-.15Z"/><polygon class="cls-1" points="77.71 22.17 77.65 22.11 77.59 22.16 77.68 22.25 77.71 22.27 77.73 22.25 77.86 22.15 77.81 22.09 77.71 22.17"/><path class="cls-1" d="M74.23,35.29l-.11,.02,.02,.18,.08,.06,.14,.04s.19-.05,.21-.21l-.29-.02-.03-.08Z"/><polygon class="cls-1" points="77.1 21.95 77.13 21.94 77.26 21.85 77.23 21.79 77.1 21.86 77.02 21.81 76.98 21.88 77.08 21.94 77.1 21.95"/><path class="cls-1" d="M77.34,24.52l-.09-.06s-.15,0-.15-.05h0s-.08,.09-.13,.12c.06,.03,.15,.08,.15,.08,.1,0,.17,.08,.17,.11s.14,.02,.14,.02l.02-.09-.1-.13Z"/><path class="cls-1" d="M76.06,22.99v-.15l-.05-.05-.05-.18-.15-.03-.17,.06-.18,.11-.19,.02-.1,.11,.4,.04,.08,.13,.29,.02,.19,.19c.17,.05,.21-.02,.1-.11l-.17-.17Z"/><path class="cls-1" d="M78.28,26.18c-.06,0-.18-.08-.15-.13,.02-.05-.21-.1-.21-.1,0,0-.21-.21-.14-.18,.08,.02,.04-.09,.04-.09,0,0-.15,.02-.19,.02-.04-.02-.02-.13-.02-.13,0,0-.1-.02-.14-.02h0s-.02,0-.02,.02c0,.04,.05,.04,.08,.11,.02,.08,.02,.21,.13,.23,.11,.02,.14,.05,.15,.1,.02,.05,.15,.06,.15,.06l.1,.05,.31,.26v-.1s-.02-.1-.08-.1Z"/><path class="cls-1" d="M80.77,24.43l.19,.06s.24,.28,.23,.15c-.02-.39-.21-.4-.27-.47-.02-.02-.05-.03-.08-.03h0c-.1,0-.25,.07-.24,.14,.02,.06,.06,.13,.17,.15Z"/><path class="cls-1" d="M76.04,34.39c.06,.04,.17-.05,.1-.09-.19-.13-.18-.3-.23-.41-.02-.02-.03-.05-.05-.05s-.05,.02-.06,.06v.17s.18,.28,.24,.32Z"/><path class="cls-1" d="M61.21,26.88c.7-.66,1.51-1.14,2.11-1.92,.71-.94,1.33-1.99,2.25-2.8-1.26,.49-2.62,.99-3.43,2.29-.48,.76-.55,1.66-.92,2.43Z"/><path class="cls-1" d="M61.74,30.2c.31-.62,.5-1.32,.58-2-.11,.29-.29,.56-.53,.79-1.02,.97-2.22,1.92-2.45,3.29-.03,.2-.05,.4-.11,.59-.05,.02-.05-.03-.06-.05l.13-1.69c.12-1.65-.76-3.49,.21-4.95h0s-.05,.02-.08,.03c-.87,1.11-1.45,2.33-1.45,3.82,0,1.84,1.06,3.13,1.19,4.85,.27-1.8,1.79-3.08,2.57-4.68Z"/><path class="cls-1" d="M76.94,24.53s.02,0,.03,0c-.06-.03-.1-.05-.03,0Z"/><polygon class="cls-1" points="57.64 30.76 57.64 30.76 57.64 30.76 57.64 30.76"/><path class="cls-1" d="M60.04,39.38l.09,.08c-.1-.69-.15-1.43,.05-2.09,.3-1.05,.67-2.08,.86-3.17,.15-.85,.33-1.8,.23-2.62-.11,.44-.23,.88-.47,1.26-.92,1.43-1.87,3.11-1.22,4.92-.02,.02-.04,.05-.06,.03-.26-.6-.32-1.28-.49-1.92-.45-1.71-1.76-3.14-1.38-5.11-.21,.43-.28,.91-.39,1.37-.23,1.21,0,2.48,.33,3.59,.41,1.39,1.76,2.37,2.46,3.65Z"/><rect x="80.87" y="29.84" width=".08" height=".09"/><polygon class="cls-1" points="64.05 38.46 64.05 38.59 64.14 38.59 64.14 38.76 64.22 38.76 64.21 38.57 64.11 38.53 64.11 38.47 64.05 38.46"/><path class="cls-1" d="M73.61,25s.19,.02,.21,.05c.02,.04,.14,.05,.15,.02,.02-.04,.06-.11-.05-.11s-.09-.06-.13-.11c-.02-.02-.09-.03-.16-.03h0c-.07,0-.13,.02-.13,.04,.02,.06,.11,.15,.11,.15Z"/><rect x="70.46" y="25.65" width=".08" height=".11" transform="translate(2.47 57.38) rotate(-45)"/><polygon class="cls-1" points="64.92 39.54 65.06 39.67 65.11 39.58 65.02 39.39 64.93 39.33 64.87 39.15 64.68 39.05 64.77 39.28 64.82 39.4 64.92 39.54"/><path class="cls-1" d="M75.23,34.57c.03,.11,.02-.18,.08-.17,.05,0,.02-.18,.02-.18h0l-.23,.17c.11,.02,.13,.13,.14,.18Z"/><path class="cls-1" d="M62.38,33.5c0,1.22,.18,2.41,.5,3.54l.3-.08c-.31-1.07-.48-2.18-.5-3.32h2.26c.02,.95,.16,1.88,.43,2.76l.3-.08c-.26-.86-.4-1.76-.42-2.69h2.05c0,.31,.03,.6,.07,.89-.15,.02-.27,.06-.27,.06l-.06,.21c-.14,.02-.23,.26-.23,.26-.11,.04-.21,.18-.17,.22,.04,.04-.06,.05-.06,.05v.28l-.06,.09,.02,.31c.08,0,.06,.15,.06,.15-.13,.02-.1,.18-.1,.18l-.27,.09-.05,.08-.33-.02-.09,.09c-.03-.08-.05-.17-.08-.25l-.3,.08s.02,.06,.03,.09h-.37l-.02-.06-.13-.02-.02-.15-.19,.02-.04,.08-.21,.02c.02,.13-.21,.32-.23,.27-.02-.05-.17-.19-.1-.22,.06-.02,.23-.05,.23-.05v-.09l-.47-.02-.05,.08-.19,.02v.21l-.09,.02c-.06,.04,.02,.18,.02,.18,.09,.09-.02,.23-.02,.23-.08,.08,.06,.22,.06,.22,.1,.02-.06,.1-.06,.1,.02,.13,.1,.17,.1,.17-.08,.13,.05,.19,.05,.19l.02,.22,.09,.05v.15l.05,.09h.21v-.31c-.18-.21,.15-.26,.16-.18,.02,.08,.15,.11,.15,.11,.02,.19,.24,.31,.31,.11,.06-.19,.11-.08,.15,.02,.04,.09,.28,.31,.28,.31h.19l.02,.18c.21-.02,.28,.02,.37,.31,.09,.3,.33,.37,.33,.37l.18-.02c0-.15,.18,.02,.18,.11,0,.08,.34,.37,.34,.37l.34,.08,.06,.05c.21,.27,.44,.52,.67,.77l-1.6,1.6c-1.42-1.46-2.43-3.22-2.98-5.12l-.3,.08c.59,2,1.66,3.85,3.17,5.37,1.02,1.02,2.19,1.85,3.46,2.45h0s0,0,0,0c0,0,0,0,0,0h0c1.67,.8,3.51,1.21,5.41,1.21,2,0,3.93-.47,5.67-1.34,1.18-.6,2.27-1.38,3.23-2.34,1.01-1.01,1.82-2.16,2.43-3.4,.82-1.69,1.25-3.56,1.25-5.49,0-1.64-.31-3.24-.92-4.72-.63-1.54-1.56-2.96-2.77-4.17-1.22-1.22-2.64-2.15-4.2-2.78-1.46-.6-3.05-.91-4.68-.91h0c-2.02,0-3.92,.48-5.61,1.33h0c-2.45,1.22-4.44,3.23-5.66,5.68-.82,1.67-1.3,3.56-1.3,5.55Zm4.92-.14h-2.05c.02-1.42,.34-2.79,.95-4.03,.44-.94,1.05-1.81,1.79-2.57h0l1.46,1.46c-.59,.61-1.07,1.32-1.43,2.09-.43,.93-.68,1.96-.7,3.05Zm.96-2.92c.34-.73,.81-1.41,1.38-2.01h0s1.6,1.6,1.6,1.6c-.34,.35-.62,.76-.84,1.19-.05,0-.11,0-.12,.05-.04,.1-.21,.08-.21,.08l-.02,.05-.13,.02-.02,.08-.15,.02,.38-.02c.1-.02-.04,.22-.1,.21l-.18,.02-.06,.06h-.17l-.08,.11-.24-.02s-.14,.11-.13,.15c.02,.04-.02,.15-.06,.15s-.11,.11-.09,.15c.02,.04-.08,.17-.08,.17l-.02,.13-.08,.02v.35l-.15,.1v.15l-.07,.08h-1.03c.02-1.02,.25-2.01,.66-2.91Zm5.71,.3l-.08,.1-.02,.11-.13,.02v.06h-.09v.08c-.18,.1-.36,.22-.52,.37l-1.46-1.46c.37-.35,.8-.64,1.25-.85h0c.58-.26,1.21-.41,1.86-.43v2.06c-.27,.02-.53,.07-.77,.16l-.02-.15,.06-.04-.1-.04Zm-4.6,7.11c.02-.15-.09-.34-.09-.34-.23-.15-.17-.45-.17-.45v-.21c-.19-.18,.08-.21,.08-.21,.09-.15-.06-.27-.06-.27l-.02-.17-.21-.02-.02-.6-.46-.66c-.09-.02-.02-.18-.02-.18,.11-.06-.02-.22-.02-.22l-.02-.28,.27-.02,.06-.1h.13l-.02-.34c.04-.09,.08-.11,.11-.12h0s.06,0,.06,0c.03,0,.06,.02,.06,.02l.18,.02,.02-.03h.6l.05,.33-.17,.15c-.14,.08-.14,.26,.02,.3,.1,.02,.06,.26-.09,.09-.23,0,.13,.21,.02,.15,.23,.11,.18-.1,.18-.1l.11-.09c.05,.25,.11,.5,.2,.74,.24,.66,.6,1.25,1.08,1.77l-1.6,1.6c-.11-.11-.21-.22-.3-.34,.02-.08,.07-.16,.07-.16,.17-.11-.04-.27-.04-.27Zm-.17-4.52c-.15-.09-.08-.43-.08-.43,.11-.15,.22-.2,.31-.21h0c.12,0,.21,.06,.21,.06l.18-.02s.08,.06,.09,.1c-.02,.12-.03,.24-.03,.36-.02,.03-.03,.05-.03,.05-.02,.02-.02,.06-.03,.1h-.48s-.14-.02-.14-.02Zm1.27,1.82c-.11-.27-.18-.54-.23-.83h0c.11,.04,.23,.21,.23,.24,0,.04,.5,.02,.5,.02,.14,.09,.19,.32,.19,.32,.14-.18,.44-.02,.21,.09,.21,.13,.21,.24,.21,.24,.17-.05,.17,.08,.17,.11s.05-.19,.05-.19c-.19-.15,.25-.19,.13,.06l-.08,.11,.13,.1,.02,.3c.28-.02,.21-.37,.21-.37l.13-.02c0-.11,.09-.05,.09-.05-.06-.31,.06-.44,.14-.48,.1,.19,.22,.37,.37,.53l-1.46,1.46c-.45-.48-.79-1.03-1.01-1.63Zm1.41-1.25l.14-.04,.05-.08,.02-.11h.15c0,.09,.02,.18,.03,.27l-.08,.02-.02-.05-.04,.15h-.23l-.02-.15Zm.53-2.43c-.02-.08-.21,0-.21,0,0,.15-.24-.06-.24-.06l-.44-.32c-.25-.23-.63,.06-.65,.13,0,.1-.08,.1-.16,.08,.21-.38,.46-.73,.76-1.05h0s1.24,1.24,1.24,1.24h-.12c-.05,.11-.18-.02-.18-.02Zm2.39-3.03c-.71,.02-1.38,.19-1.99,.47h0c-.49,.22-.94,.52-1.33,.9l-1.6-1.6c.56-.54,1.2-.98,1.89-1.31,.93-.44,1.97-.7,3.05-.72h0s0,2.27,0,2.27Zm-7.19,5.23h.89v.07s-.18,.21-.18,.21l.02,.21-.11,.04-.02,.09-.05,.27,.13,.02c.06-.02,.05,.17,0,.19s-.19,.08-.11,.13c.08,.05-.21,.04-.21-.04s-.15-.15-.19-.11c-.02,.02-.05-.02-.08-.06-.05-.33-.08-.66-.08-1h0Zm.03,6.23h.05c.02-.07,.07-.1,.11-.1,.11,0,.26,.13,.28,.18,0,.03,.05,.07,.08,.1l-.19,.19c-.11-.12-.23-.24-.34-.37Zm7.14,5.89c-1.8-.02-3.54-.43-5.11-1.18-1.2-.57-2.31-1.34-3.29-2.3l1.6-1.6c.83,.8,1.78,1.45,2.79,1.92h0s0,0,0,0c0,0,0,0,.01,0h0c1.24,.56,2.59,.87,3.99,.89v2.27Zm0-2.57c-1.35-.02-2.65-.32-3.85-.86-1-.46-1.92-1.08-2.74-1.86l.3-.3s.03,.06,.03,.11c.02,.19,.11,.15,.11,.15l.72-.02,.25-.22,.65-.02c.33-.02,.13-.47,.06-.47-.04-.03-.05-.09-.04-.16,.52,.4,1.08,.72,1.66,.98h0c.89,.37,1.84,.6,2.83,.61v2.05Zm0-2.36c-.94-.02-1.84-.22-2.68-.57h0c-.68-.28-1.32-.68-1.89-1.16l-.34-.32,1.6-1.6c.52,.49,1.11,.85,1.76,1.08,.18,.06,.36,.11,.54,.16-.03,.03-.05,.05-.04,.07,.02,.06-.1,.13-.1,.13l-.11,.04-.08,.11-.15,.05-.02,.27-.08,.05v.11l-.09,.02v.06l-.13,.02,.08,.19,.1,.05c.18,.02,.1,.24,.1,.24l.1,.02,.05,.15,.1,.21c.04,.15,.15,.11,.21,.11,.05-.02,.1,.15,.1,.15l.5,.02s-.02,.05,.06,.08c.05,.02,.24,.03,.42,.03v.23Zm.02-3.59v.02c0,.17-.42,.05-.46,.02l-.02,.23-.08,.02,.02,.15-.02,.22,.14-.02v.09l.34,.02,.07-.07v.25l-.23,.02-.1,.05-.04-.08h-.1l-.06,.08c-.3-.05-.6-.11-.88-.21-.63-.21-1.21-.56-1.7-1.03l1.44-1.47c.44,.4,.99,.63,1.58,.68h0s-.05,.12,0,.14c.05,.02,.04,.03,.07,.06l-.03,.07c-.05-.06-.08,.05-.05,.08,.03,.03-.07,0-.07,.05s-.03,.06,0,.08c.03,.02,0,.03-.05,.06-.04,.03,.16,.04,.16,.04,0,0-.04-.08,0-.08h.02v.13s-.03,0-.05-.02v.09l-.1,.02,.09,.1h.07v.22Zm1.1-1.53c-.08,.03-.15,.06-.23,.08v-.28l.13-.15h.02c.11,0,.08,.26,.08,.34Zm-.2,.43v-.06c.08,0,.14-.02,.2-.05h0s.02,.07,.02,.07l.06,.02-.11,.09-.1,.11-.13-.04-.15-.02-.05-.09-.09-.02-.02,.18-.06,.08-.15,.15c.16,0,.05,.08-.02,.12v-.52c.16,0,.33-.03,.48-.07,.02,.02,.02,.02,.02,.02h.11Zm.31-5.6c-.02,.06-.14,.1-.14,.1,0,0-.1,.04-.06,.09,.04,.05-.08,.08-.08,.08,0,0,0,.04,0,.07-.2-.06-.41-.1-.63-.11v-2.05c.57,.02,1.15,.15,1.68,.37,.52,.22,1,.53,1.42,.92l-.08,.08s-.18-.07-.18-.11c0-.05-.13-.11-.11-.04,.02,.08-.09,.11-.11,.09s-.1,.08-.1,.08c0,.04-.02,.09,.05,.11,.08,.02,.21-.05,.23,.02,0,.02,0,.05,.02,.07l-.5,.5c-.07,0-.13,0-.13,0-.04,.11-.21-.02-.17-.09,.05-.08,.05-.13,.05-.13l-.06-.02-.08,.15c-.18,0-.23,.1-.19,.17,.04,.06-.05-.02-.08,.08-.02,.09,.02,.09,.09,.13,.08,.04-.04,.04,.02,.1,.03,.04,.11,.03,.13,.04l-.1,.1c-.08,.03-.19,0-.19,0,0,.02-.02,.05-.04,.05-.21-.17-.43-.31-.67-.4,.04-.03,.11-.03,.14-.11,.05-.15,.08-.37,.08-.37,0,0-.21-.02-.21,.05Zm4-2.34l-1.58,1.58c-.45-.43-.97-.76-1.53-.99-.56-.24-1.18-.37-1.81-.39v-2.26c.92,.02,1.82,.21,2.64,.54,.23,.09,.45,.2,.66,.31,0,0,.02,.02,.04,.02,.36,.19,.7,.42,1.02,.67,.02,.09,.11,.13,.11,.13h.06s.08,.08,.12,.11v.11c.09-.02,.23,.08,.25,.17Zm.63,.64s.04,.05,.06,.08c0,.08,0,.21,.15,.19h0c.16,.22,.31,.45,.45,.68v.02s.05,.08,.07,.11c-.03,.02-.05,.05-.05,.05l-.21,.02v.21l-.1,.04,.02,.13,.14-.02s0,.15,.04,.09c.04-.06,.36,.02,.33,.17,0,.06,.32,.23,.28,.43,.02,0,.05,.02,.06,.02,.06,.18,.11,.36,.16,.53l-.02,.05s.02,.02,.05,.04c.04,.16,.08,.32,.1,.48,0,.14-.04,.27-.11,.31-.15,.09,.02,.04,.02,.04l-.02,.28c.04,.13,.1,.06,.14,0,.02-.03,.04-.05,.06-.08,.02,.19,.03,.39,.04,.59h-1.53s.02-.04,.02-.04l.06-.18,.21-.06,.02-.17-.11-.02s.13-.23,.19-.23,.48,0,.52-.02,.11-.23,.11-.27,.1-.05,.14-.06c.04-.02,.13-.11,.15-.17s-.06-.37-.11-.32-.17,.08-.17,.08l-.04,.15-.06,.05s.02,.04,0,.13c-.02,.09-.13,.15-.13,.15l-.05,.06s-.31,.02-.34,0c-.11-.05-.04-.21,.04-.19,.08,.02-.02-.22-.02-.22l.1-.02s.02-.23,.05-.23-.02-.08-.06-.11c-.05-.04-.11-.17-.17-.15-.05,.02-.25,0-.25,0l-.04,.08-.14,.02s.02,.1-.02,.13c-.08,.09-.37,.28-.24-.04l.04-.08v-.11l-.23-.02s-.11-.04-.11-.09-.02-.11-.02-.11l-.27-.3-.32-.04-.02-.06-.19-.02s-.05-.02-.08-.03c-.09-.15-.18-.28-.29-.41,0,0,0-.02,0-.03,0-.05-.15-.24-.23-.25-.03-.03-.05-.06-.08-.09l1.62-1.59c.05,.05,.05,.07,.12,.12,.02,.02,.05,.03,.07,.03,.04,.05,.08,.09,.12,.14l-.03,.04c0,.15,.07,.11,.14,.09Zm-.44,12.21c-.16-.02-.09-.19,.06-.22l.09-.04v-.12l.29-.27v-.21l-.63-.53c-.13-.05-.14-.21-.09-.36,.11-.11,.22-.21,.34-.32h0s.56,.56,.56,.56c-.02,.09-.11,.15-.16,.11-.05-.04,.06,.06,.09,.11,.02,.05,.1,.05,.13,0,.02-.04,.02-.1,.02-.15l.26,.26c-.03,.07-.07,.13-.05,.18l.11,.05,.02,.22c.08,.08,.27,.08,.43,.06l.05,.05c-.47,.46-.98,.86-1.53,1.21v-.12c.23-.17,.24-.47,.02-.49Zm-.56-3.38l.09-.08v-.13l.08-.02,.02-.28,.06-.02v-.62l-.19-.18c-.02,.06-.21,.06-.21,.06,0,0-.05,.09-.09,.09s.05,.11,.02,.19c-.02,.08-.13,.08-.13,.08l-.19,.05-.05,.06h-.2l-.02-.11s.04-.05,.06-.08l.16-.05,.13-.06,.06-.13c.02-.13,.17-.11,.17-.11,0,0,.29-.24,.31-.36,.02-.11,.11-.43,.29-.43h.33c.13-.05,.09-.22,.09-.22l.17-.02,.02,.09s.23,.02,.25-.02c.02-.04,.08-.13,.14-.09,.06,.04,.27-.09,.27-.09,.02-.09,.33-.05,.33-.05l.04-.11s-.21-.3-.25-.3-.24-.18-.27-.11c-.21-.05-.19-.34-.19-.34l-.08-.18c0-.11-.19-.32-.23-.3-.08-.05-.11-.11-.1-.16h1.78c-.02,1-.24,1.95-.63,2.82-.34,.78-.82,1.49-1.4,2.1-.02-.26-.08-.54-.08-.54l-.1-.05,.02-.31h-.14l-.23,.3-.02,.08-.13-.13,.07-.07-.02-.15Zm-1.79-1.93c-.04,.11,0,.17,0,.17,.17-.15,.31,.02,.29,.05-.02,.04,.09,.08,.15,.04s.14,.11,.11,.19c-.02,.08-.25,.06-.27-.02s-.05-.05-.08-.02c-.02,.03-.11,.05-.17,.04l-.05-.05s.02-.03,0-.05c-.02-.02-.04-.02-.07-.02l-.11-.11c0-.08,.02-.18,.02-.21,0-.04,.08-.08,.13-.08h0s.05,.02,.05,.06Zm.79-5.29c.06,.08,.12,.15,.18,.23l-.16-.02-.1-.02-.19-.02c-.19,.13-.23,.28-.23,.28-.08,.17-.27,0-.27-.13l.34-.34h.06c.08,0,.24-.02,.24-.02h0s.08,.02,.14,.03Zm.28,.82c-.13,0-.15-.1-.15-.1,0,0-.1-.04-.1,.02s-.04,.15,0,.21-.05,.13-.09,.09c-.04-.04-.14-.15-.11-.19,.02-.04-.18-.28,.02-.32,.21-.04-.02-.15,.06-.18l.1-.05h.1l.07-.05c.05,.07,.09,.14,.14,.2-.02,.03-.02,.08,0,.12,.04,.19,.1,.27-.02,.27Zm-1.11,6.42s0,0,.02-.02h0s.3,.15,.3,.15c.04,.05,.21,.04,.21,.04l.05,.06s.1-.02,.17,.06c.06,.08,.4,.02,.4,.02l.09,.08,.14,.05h.24s.15,.15,.15,.15c-.23,.11-.69,.07-.73,.04-.04-.04-.31-.15-.31-.15,0,0-.21-.17-.24-.11s-.21-.06-.21-.02-.17-.09-.17-.09l-.25-.09,.19-.04-.03-.12Zm3.7,1.43c-.02,.05-.19,.02-.19,.06,0,.05-.1,.31-.05,.4t0,.02l-.8-.8c.63-.65,1.11-1.38,1.47-2.18,.4-.93,.63-1.93,.66-2.97h0s2.05,0,2.05,0c-.02,1.41-.34,2.75-.91,3.95-.46,.98-1.08,1.88-1.82,2.65l-.05-.05c0-.15-.02-.33-.02-.33l-.06-.06-.02-.32c.05-.17-.24-.41-.27-.36Zm1.1-5.79c0-.37-.04-.73-.1-1.08,.02-.05,.02-.1,0-.11-.04-.04,.04-.22,.04-.22,0,0,.05-.11,0-.21-.05-.11,.02-.22,.05-.27l-.1-.05-.1-.02-.08,.02c-.02-.08-.05-.16-.08-.24l.06,.02v-.08l-.09-.02c-.02-.05-.04-.11-.05-.16l-.02-.27-.09-.06,.02-.1-.1-.04,.05-.17-.09-.18h-.13c-.06-.12-.12-.24-.19-.36,.02,0,.03-.02,.05-.02,.07-.02,.09-.02,.1-.02l-.02-.14-.11-.08-.04-.15s-.14,.02-.13,.1c0,.02,0,.03-.02,.04-.09-.15-.18-.28-.28-.42,0,0,0-.02,0-.02,.05-.09,.02-.15-.06-.17q-.09-.02-.11-.13c-.02-.1-.13-.13-.13-.13l-.04-.15-.09,.06c-.05-.06-.1-.11-.15-.18l.05-.15c-.05,0-.08-.04-.09-.07l.4-.39c.18,.11,.31,.34,.29,.39-.02,.05,.15,.04,.15,.04,.02-.23,.24-.15,.25-.08,.02,.08,.05,.24,.05,.24l.06,.11,.09,.09,.14-.02,.04,.08,.17,.02s.14,.15,.15,.19c.02,.04,.21,.02,.25,.04,.05,.02,.13,.05,.14,.11,.02,.06,.09,.17,.09,.17,0,0,.15,.04,.17,.09,.02,.05,.08,.17,.08,.17l.13,.11,.02,.11,.14,.02,.04,.15,.23-.02,.13-.09s.08-.05,.11-.07c.05,.11,.09,.21,.13,.32,.43,1.08,.66,2.24,.68,3.43h-2.05Zm-5.82,4.24l-.02-.13-.15-.04c-.05-.22,.04-.28,.1-.18l.08,.02-.02-.19,.09-.02-.02-.27-.08-.02v-.09l.32,.02c-.05-.18-.02-.26-.02-.26h0s.09,0,.09,0l.02,.06,.39,.04h.02c.15,.09,.08,.21,.02,.23-.05,.02-.14,.02-.14,.02l-.02,.05-.33,.02-.02,.13c-.17-.02-.23,.15-.19,.24,.04,.09,0,.17,0,.17l.14,.06,.18-.05c.02-.13,.14-.15,.24-.23,.1-.08,.27,.15,.21,.24,0,.02,0,.02-.02,.03-.19,.13-.4,.25-.61,.36-.34,.16-.69,.29-1.06,.37,0,0-.02,0-.02,0l-.14-.04-.02-.19c-.02-.13-.27-.13-.25-.04,.02,.09-.45,.04-.46,.04v-.35l.13-.14,.29-.06c.02-.13,.15,.02,.15,.02,.13-.02,.15,.08,.15,.08l.17,.02c.14,.04,.05,.05,.06,.11,.02,.08,.08,.05,.08,.05l.02-.17,.08,.02-.08-.09-.14-.06-.15-.06c-.1-.15,.02-.11,.13-.1h.17s.19,.26,.19,.32,.09,.08,.09,.08l.11-.02,.04,.09h.11l.04,.08h.23l.02-.11-.21-.04Zm-.79,3.19c-.3,.05-.6,.07-.9,.08v-.31s.13-.05,.22-.04h0c.08,0,.16,.02,.21,.06,.14,.1,.33,.04,.33,.04l.14,.17Zm-.91,.38c.37,0,.72-.04,1.06-.09h0s.02,.06,.02,.06l.21,.06,.15,.04,.05,.22,.11,.02,.04,.15c.14,.1-.04,.32-.04,.32v.28l.1,.05-.02,.11,.17,.17,.19,.02,.31,.34c-.76,.21-1.55,.32-2.37,.34v-2.07Zm5.38,3.31c-1.62,.82-3.44,1.3-5.37,1.32v-2.27c.92-.02,1.83-.15,2.69-.41l.22,.07,.06,.21,.1-.02,.08-.06,.31-.02,.15-.15,.17-.02,1.2-1.02c.66-.4,1.27-.88,1.84-1.42h0s1.6,1.6,1.6,1.6c-.89,.87-1.92,1.6-3.05,2.18Zm5.53-5.62c-.58,1.2-1.35,2.29-2.27,3.23l-1.6-1.6c.79-.81,1.41-1.72,1.88-2.72,.6-1.27,.92-2.66,.95-4.09h2.27c-.02,1.85-.46,3.61-1.22,5.18Zm.34-9.93c.56,1.4,.87,2.9,.89,4.44h-2.27c-.02-1.24-.26-2.43-.7-3.55-.06-.16-.13-.32-.21-.48,.02-.07,.06-.14,.15-.11,.13,.04,.04-.28,.04-.28,0,0-.18-.13-.17-.19,.02-.06-.18-.19-.17-.24,.02-.05-.17-.15-.15-.21,.02-.05-.09-.19-.09-.19l-.19-.18-.02-.11-.15-.02-.31-.37,.02-.11-.09-.02v-.15l-.09-.05-.14-.02-.28-.31-.02-.15h-.14l.02-.22,1.48-1.47c1.14,1.16,2.01,2.51,2.6,3.98Zm-11.23-7.68c1.54,.02,3.05,.32,4.43,.89,1.47,.59,2.82,1.47,3.98,2.6l-1.36,1.36s-.1,.02-.13,0c-.09-.04,.04-.13,.04-.13v-.1l-.08-.08s-.21,.02-.23-.02-.05-.21-.05-.21l-.02-.22-.09-.04-.02-.08-.14,.02v-.15l-.08-.02-.08-.04-.02-.15-.28-.02-.09-.13-.1-.15-.32-.02-.08-.08-.13-.02-.09-.04-.04,.06-.24,.02-.02,.08c-.08,.04-.28,.04-.44,.04-.25-.13-.49-.26-.75-.37l-.11,.28c.21,.08,.39,.19,.6,.3-.02,.05-.03,.08-.06,.08-.06,0-.04,.17-.04,.17,0,0,.17,0,.21,.02,.05,.02,.05,.15,.05,.15,.19-.02,.27,.24,.24,.31-.02,.06,.08,.06,.08,.06,0,0,0,.21-.02,.26s.17,.09,.21,.17c.05,.08-.02,.34-.06,.35-.04,.02,.1,.05,.09,.11-.02,.06,.04,0,.05,.11,.02,.1,.04,.32,.04,.32l.18,.02c.02-.17,.35-.18,.4-.15,.21,.08,.38,.41,.38,.49s-.14,.09-.14,.09v.08s-.44,.44-.44,.44c-.05-.03-.09-.05-.11-.02-.06,.04-.04-.27-.04-.27,0,0,.11-.08,.17-.04,.05,.04-.43-.64-.53-.58-.1,.06-.33-.06-.32-.18,.02-.11-.46-.5-.46-.5,0,0-.15-.1-.18-.02-.02,.08-.08,.13,0,.17,.08,.04,.06-.06,.15,.02,.09,.09,.25,.21,.19,.28-.06,.08-.14,.1-.14,.1l.09,.11h.14l.02,.22s.15,.08,.19,.17c.02,.06,.03,.1,.02,.14-.28-.21-.58-.41-.89-.59,0-.02,0-.05,0-.07-.02-.09,.1-.13,.17-.02l.13-.02,.02-.11-.18-.15h-.14s-.02,.1-.1,.06c-.09-.04-.04-.02-.11-.04-.07-.02-.05,.13-.04,.2-.2-.1-.4-.19-.6-.27-.86-.35-1.79-.55-2.75-.56v-1.17c.08,0,.12-.03,.13-.06,.02-.05,.02-.06,.1-.08,.08-.02-.02-.17-.09-.15-.05,0-.11,0-.14-.05v-.59c1.22,.02,2.4,.26,3.5,.71l.11-.28c-1.13-.46-2.35-.71-3.61-.73v-2.27Zm-.17,9.85l.02,.31-.14-.05h-.09l-.04-.08-.08-.02v.28l.08,.06,.06,.06,.13,.02,.02,.15,.32,.02,.04,.06,.19,.02,.37,.37-.02,.11-.06,.04c.02,.09-.17,.04-.17,.04v.08l.09,.02,.09,.05,.13-.22c.14-.09,.21,.04,.21,.11,.02,.08-.06,.06-.06,.06v.18l.08,.02c.13,.15-.05,.24-.05,.24l-.04,.13c-.04,.11-.18,.09-.18,.09l-.05,.08-.15,.04,.3,.04c.03-.11,.11-.13,.15-.08,.04,.05,.04,.15,.04,.15l.08,.02-.02,.15,.08,.02v.41l.09,.1c.15-.06,.15,.04,.08,.09-.08,.05-.02,.28-.02,.28l-.06,.06v.11l-.08,.05v.15c-.13-.06-.28-.04-.32,0-.11-.08-.36-.05-.36,.02,.08,.1-.09,.13-.09,.13l-.09,.1c.06,.13-.06,.15-.06,.15v.24l-.15,.15v.23c-.07,0-.15,.02-.23,.02-.6,0-1.15-.21-1.6-.6,0,0,.02,0,.02-.02,.06-.1,.17-.11,.17-.11l.04-.09,.34,.02c.02-.15,.19-.09,.19-.02,0,.06,.13,.02,.13,.02l.09-.15h.14l.02-.15,.06-.04v-.23c.21-.06,.18-.26,.18-.26l.05-.06-.02-.09c-.1-.04-.05-.13,.02-.11,.06,.02-.09-.11-.09-.11-.08,.06-.14-.08-.14-.08h-.19v-.18l-.02-.17-.19-.09-.14,.13-.02,.18v.11l-.13,.02-.02,.35-.1,.04,.02,.13-.14,.04-.14,.04-.05,.15-.1,.06-.05,.15-.06,.37c-.18-.19-.33-.4-.44-.63,.02-.09,.02-.18,.02-.18-.11-.05-.05-.23,.08-.08,.13,.15-.08-.31-.08-.31l-.1-.09-.13-.02c-.02-.12-.03-.25-.03-.38,0-.05,0-.11,0-.16,.04-.04,.08-.02,.08-.02l.08,.06,.11,.09,.02,.08-.08,.04-.02,.11,.04,.15h.1c.04-.21,.31-.21,.38-.08l.08-.18c-.18-.09,0-.23,.05-.17,.05,.06,.17-.17,.17-.17,0,0,.09,.11,0-.04-.09-.15,.06-.23,.06-.23-.02-.15,.17-.13,.17-.13l.02-.21-.18-.02c-.04,.18-.19,.02-.11-.02,.08-.04,.15-.11,.15-.11v-.11l.08-.02,.02-.13h.19l.17-.08,.04-.06,.18-.02,.25-.23-.02-.1c-.15,0,0-.11,0-.11l.02-.19h-.14l-.02-.27c.17-.05,.34-.08,.53-.08h0Zm-.13-5.23c-1.14,.02-2.22,.3-3.19,.77-.73,.35-1.38,.82-1.95,1.37l-1.45-1.46c.73-.71,1.56-1.29,2.46-1.73h0c1.27-.63,2.68-.98,4.14-1v2.05Zm-5.34-3.34h0c1.63-.82,3.45-1.27,5.33-1.29v2.27c-1.53,.02-2.99,.4-4.28,1.04h0c-.93,.47-1.78,1.07-2.52,1.79l-1.61-1.61c.92-.9,1.95-1.63,3.07-2.19Zm-3.29,2.41h0s1.6,1.61,1.6,1.61c-.75,.77-1.37,1.66-1.84,2.64-.61,1.27-.96,2.68-.98,4.17h-2.27c.02-1.85,.46-3.64,1.25-5.26,.56-1.15,1.31-2.22,2.24-3.17Z"/><path class="cls-1" d="M59.69,30.54c.31-.63,.8-1.22,1.4-1.66,1.31-.99,2.75-2.27,2.77-3.95-.44,1.21-1.76,1.72-2.63,2.54-.47,.43-.82,.96-1.03,1.51l-.03-.02c.11-.49,.31-.92,.46-1.4,.37-1.29,.3-2.82,1.55-3.68h0c-.64,.17-1.18,.58-1.66,1.11-1.01,1.12-.92,2.77-.79,4.24,.04,.46,.02,.84-.03,1.31Z"/><polygon class="cls-1" points="82.7 38.54 82.58 38.53 82.57 38.64 82.69 38.65 82.7 38.54"/><polygon class="cls-1" points="80.86 28.13 80.87 28.24 80.95 28.23 80.94 28.12 80.86 28.13"/><path class="cls-1" d="M81.95,29.04s.02-.13-.04-.09c-.05,.04-.09-.09-.14-.08-.05,.02-.08-.05-.13-.11-.05-.06-.04-.08-.1-.11-.03-.02-.05-.04-.08-.03h0s-.03,.02-.03,.04c0,.05,.06,.08,.04,.15-.02,.06,.02,.11,.08,.11s.09,.02,.14,.05c.05,.02,.09,.06,.13,.11l.13-.04Z"/><rect x="80.23" y="37.22" width=".09" height=".24"/><path class="cls-1" d="M82.19,29.9s.08-.15,.08-.15c-.06-.05-.11-.17-.11-.17,0,0-.06-.18-.06-.21s-.09-.05-.13-.06c-.05-.02-.11-.14-.11-.14h0s-.15,.02-.15,.02c.04,.05,.11,.09,.11,.15s-.02,.09,.05,.1c.08,.02,.13-.02,.15,.05,.02,.06,.02,.17,.02,.22-.02,.05,.02,.13,.08,.13s.08,.02,.08,.05Z"/><path class="cls-1" d="M80.29,29.8h-.18s.04,.06,.08,.11c.04,.04,.13,.11,.04,.17-.09,.05,.02,.04,.02,.04,0,0-.02,.27-.13,.23-.11-.04-.15,.15-.15,.19,0,.05,.45,.07,.38,0-.04-.04,.05-.13,.05-.13,0,0,.31,.02,.37,.02s.11-.02,.08-.08c-.04-.06-.15-.05-.15-.05,0,0-.15,.04-.29-.04s.02-.1,.05-.1c.02,0,.14-.09,.09-.15-.05-.06,0-.18,0-.13s.14,.08,.17,.04c.02-.04,0-.15-.06-.19-.06-.04,.11-.06,.06-.13-.07-.06-.09-.15-.09-.15h0s-.08,.1-.23,.05c0,0-.02,.24-.1,.3Z"/><path class="cls-1" d="M81.79,34.8c.05,.02,.1,.04,.05-.11-.02-.05-.06-.07-.11-.07-.11,0-.24,.07-.2,.12,.08,.1,.21,.05,.25,.06Z"/><rect x="80.72" y="29.33" width=".08" height=".06"/><polygon class="cls-1" points="76.84 24.94 76.84 25.06 76.98 25.07 76.94 24.97 76.84 24.94"/><polygon class="cls-1" points="80.65 29.31 80.65 29.23 80.52 29.25 80.52 29.33 80.65 29.31"/><path class="cls-1" d="M82.61,31.02c-.06-.02-.04-.19-.04-.19,0,0,.06-.24-.04-.24s-.02-.13-.09-.17c-.06-.04-.02-.22-.05-.27-.02-.05-.02-.11-.09-.15,0,0-.02-.02-.02,0h0s.02,.15,0,.17c-.04,.02-.06,.08-.1,.11s.08,.09,.08,.13,.02,.23,.02,.23c0,0,.09,.04,.1,.09,.02,.05,0,.15,.04,.17,.04,.02,.11,.06,.09,.11-.02,.05-.02,.15-.02,.15l.05,.11,.1,.06s.04-.31-.02-.32Z"/><polygon class="cls-1" points="75.9 37.81 75.94 37.85 75.97 37.91 76.07 37.76 75.99 37.74 75.9 37.81"/><path class="cls-1" d="M85.82,37.61l.02-.08s-.02-.04,0-.07h-.08c0,.06,0,.14,.07,.15Z"/><polygon class="cls-1" points="82.57 32.26 82.64 32.3 82.68 32.22 82.61 32.19 82.57 32.26"/><path class="cls-1" d="M86.22,37.29s-.02-.08-.04-.15h0s-.08,.02-.08,.02c.02,.08,.05,.15,.05,.16l.07-.03Z"/><path class="cls-1" d="M76.69,24.5h-.02s-.12,0-.12,0h0v.08s.1,0,.1,0l.08,.12,.06-.04-.09-.15v-.02Z"/><path class="cls-1" d="M85.42,35.95h0s.08-.02,.08-.02c0-.02-.02-.05-.04-.05h-.05c-.05,0-.11,.03-.15,.05l.05,.06s.11-.05,.12-.04Z"/><path class="cls-1" d="M85.63,37.84s.11,0,.11-.15c0-.08,0-.09-.03-.09h0s-.05,.02-.08,.05c-.08,.05-.05,.24,0,.19Z"/><polygon class="cls-1" points="76.94 24.32 76.87 24.29 76.81 24.4 76.88 24.43 76.94 24.32"/><path class="cls-1" d="M86.22,37.15s.03,.02,.05,0l-.02-.08s.02,0,.02,.02v-.02s0-.05-.02-.08h0s-.07,.04-.07,.04c0,.02,0,.04,.02,.05,0,.02,0,.05,.02,.06Z"/><polygon class="cls-1" points="82.64 31.94 82.71 31.95 82.73 31.84 82.65 31.84 82.64 31.94"/><polygon class="cls-1" points="77.52 37.35 77.49 37.28 77.39 37.35 77.42 37.41 77.52 37.35"/><polygon class="cls-1" points="102.93 93.32 105.9 93.32 105.9 78.54 102.74 78.54 99.4 84.48 96.11 78.54 92.86 78.54 92.86 93.32 95.89 93.32 95.89 84.03 99.4 90.16 102.93 84.03 102.93 93.32"/><polygon class="cls-1" points="117.7 81.15 117.7 78.54 108.22 78.54 108.22 93.32 117.7 93.32 117.7 90.6 111.17 90.6 111.17 87.13 116.96 87.13 116.96 84.53 111.17 84.53 111.17 81.15 117.7 81.15"/><rect x="71.37" y="57.08" width="3.28" height="16.18"/><path class="cls-1" d="M116.62,64.85c1.09-.89,1.9-1.64,1.9-3.6,0-1.14-.67-4.17-4.9-4.17h-6.45v16.18h6.85c2.67,0,5.21-1.14,5.21-4.43,0-3.09-1.87-3.5-2.61-3.98Zm-6.21-4.9h2.7c2.78,0,2.87,3.7,.21,3.7h-2.91v-3.7Zm3.61,10.35h-3.61v-3.8h3.39c2.73-.01,2.83,3.8,.23,3.8Z"/><polygon class="cls-1" points="57.06 78.54 57.06 93.32 66.17 93.32 66.17 90.63 60.1 90.63 60.1 78.54 57.06 78.54"/><polygon class="cls-1" points="136.05 81.26 136.05 93.32 139.14 93.32 139.14 81.26 142.83 81.26 142.83 78.49 132.32 78.49 132.32 81.26 136.05 81.26"/><polygon class="cls-1" points="130.76 70.29 124.15 70.29 124.15 57.08 120.86 57.08 120.86 73.26 130.76 73.26 130.76 70.29"/><path class="cls-1" d="M94.48,73.26l1.23-3.51h5.61l1.24,3.51h3.33l-5.71-16.18h-3.24l-5.88,16.18h3.42Zm4.01-11.51l1.78,5.04h-3.54l1.76-5.04Z"/><path class="cls-1" d="M79.58,86.18c.06-4.27-2.33-7.94-6.66-7.94s-6.77,3.38-6.75,7.94,2.55,7.54,6.82,7.47c4.27-.07,6.54-3.21,6.59-7.47Zm-10.25-.09c0-2.78,1.28-4.83,3.57-4.83h0c2.29,0,3.55,2.24,3.52,4.83s-1.23,4.51-3.48,4.55c-2.25,.04-3.59-1.77-3.6-4.55Z"/><path class="cls-1" d="M59.75,69.75h5.61l1.24,3.51h3.33l-5.71-16.18h-3.24l-5.88,16.18h3.42l1.23-3.51Zm2.79-7.99l1.78,5.04h-3.54l1.76-5.04Z"/><polygon class="cls-1" points="122.53 84.53 128.48 93.32 130.96 93.32 130.96 78.54 128.1 78.54 128.1 87.02 122.18 78.54 119.52 78.54 119.52 93.32 122.53 93.32 122.53 84.53"/><polygon class="cls-1" points="55.27 81.15 55.27 78.54 45.78 78.54 45.78 93.32 55.27 93.32 55.27 90.6 48.74 90.6 48.74 87.13 54.53 87.13 54.53 84.53 48.74 84.53 48.74 81.15 55.27 81.15"/><polygon class="cls-1" points="41.58 78.54 38.25 88.4 35.16 78.54 31.87 78.54 36.77 93.32 39.67 93.32 44.68 78.54 41.58 78.54"/><path class="cls-1" d="M32.18,68.11v-11.03h-3.21v10.28c0,4.24-5.93,4.24-5.93,0v-10.28h-3.15v11.03c0,7.54,12.29,7.54,12.29,0Z"/><path class="cls-1" d="M39.39,70.59c-1.8,0-4.1-1.95-4.1-1.95l-2.06,2.42s2.19,2.43,5.84,2.43c4.14,0,5.7-2.38,5.7-4.83,0-5.7-7.46-4.26-7.46-7.57,0-.8,.95-1.27,1.87-1.27,1.64,0,3.43,1.53,3.43,1.53l1.93-2.56s-2-2.04-5.17-2.04c-3.46,0-5.42,2.22-5.42,4.84,0,5.74,7.65,4.34,7.5,7.35-.06,1.25-1.18,1.66-2.06,1.66Z"/><path class="cls-1" d="M12.78,78.54h-4.62v14.78h5.31c8.18,0,9.54-14.78-.69-14.78Zm.31,12.09h-1.92v-9.37h1.13c6.55,0,5.32,9.37,.78,9.37Z"/><path class="cls-1" d="M84.39,88.84h2.02c7.18,0,6.67-10.3,.24-10.3h-5.35v14.78h3.09v-4.48Zm0-7.58h1.76c2.98,0,3.41,4.84,.02,4.84h-1.78v-4.84Z"/><polygon class="cls-1" points="31.14 81.15 31.14 78.54 21.66 78.54 21.66 93.32 31.14 93.32 31.14 90.6 24.61 90.6 24.61 87.13 30.4 87.13 30.4 84.53 24.61 84.53 24.61 81.15 31.14 81.15"/><polygon class="cls-1" points="49.14 73.26 52.5 73.26 52.5 60.11 56.54 60.11 56.54 57.08 45.06 57.08 45.06 60.11 49.14 60.11 49.14 73.26"/><path class="cls-1" d="M18.38,68.66c0-5.7-7.46-4.26-7.46-7.57,0-.8,.95-1.27,1.87-1.27,1.64,0,3.43,1.53,3.43,1.53l1.93-2.56s-2-2.04-5.17-2.04c-3.46,0-5.42,2.22-5.42,4.84,0,5.74,7.65,4.34,7.5,7.35-.06,1.25-1.18,1.66-2.06,1.66-1.8,0-4.1-1.95-4.1-1.95l-2.06,2.42s2.19,2.43,5.84,2.43c4.14,0,5.7-2.38,5.7-4.83Z"/><polygon class="cls-1" points="142.71 70.29 135.56 70.29 135.56 66.49 141.9 66.49 141.9 63.64 135.56 63.64 135.56 59.94 142.71 59.94 142.71 57.08 132.32 57.08 132.32 73.26 142.71 73.26 142.71 70.29"/><polygon class="cls-1" points="80.56 63.64 87.07 73.26 89.78 73.26 89.78 57.08 86.65 57.08 86.65 66.37 80.18 57.08 77.26 57.08 77.26 73.26 80.56 73.26 80.56 63.64"/><path class="cls-1" d="M138.48,111.85c-1.36-.78-4.51-1.62-5.26-1.82-1.65-.42-3.21-.82-4.41-1.51-1.24-.72-2.2-1.15-2.2-3.29,0-1.67,1.41-3.4,4.99-3.4,4.78,0,4.68,3.48,4.68,3.48l6.15-.19s-.15-8.66-11.06-8.66c-8.2,0-11.02,6.17-11.02,9.78,0,1.6,.58,3.49,2.02,5.21,2.08,2.49,5.17,3.09,6.88,3.77,1.94,.77,3.13,1.03,5.21,1.96,1.77,.79,2.51,1.4,2.51,3.06,0,2.5-2.85,3.64-5.3,3.64-5.96,0-5.61-4.72-5.61-4.72l-6.07,.19h0s-.96,9.71,11.56,9.71c8.98,0,11.6-5.99,11.6-9.2,0-5.26-2.98-7.03-4.68-8.01Z"/><path class="cls-1" d="M81.18,96.78l-11.54,31.58h6.73l2.2-6.69h11.45l2.24,6.69h6.78l-11.28-31.58h-6.58Zm-.96,19.87l4.03-12.25,4.09,12.25h-8.12Z"/><polygon class="cls-1" points="106.57 97.29 100.45 97.29 100.45 128.36 118.56 128.36 118.56 122.77 106.57 122.77 106.57 97.29"/><path class="cls-1" d="M23.95,111.63v5.17h7.51s-.95,6.73-7.9,6.73c-6.37,0-9.33-5.57-9.33-10.7,0-7.24,4-10.81,8.91-10.81,6.44,0,7.78,4.63,7.78,4.63l6.38-.51s-2.5-9.68-13.92-9.68c-10.14,0-15.64,8.06-15.64,16.49,0,9.96,7.97,16.06,15.29,16.06,15.53,0,15.25-17.23,15.25-17.39h-14.31Z"/><path class="cls-1" d="M71.18,111.38c-.19-1.49-.61-2.95-1.22-4.32l-6.05,2.72c.35,.78,.59,1.61,.7,2.46l6.57-.85Z"/><path class="cls-1" d="M69.43,105.99c-.72-1.32-1.63-2.53-2.7-3.59l-4.66,4.72c.61,.6,1.13,1.29,1.54,2.05l5.82-3.17Z"/><path class="cls-1" d="M65.85,101.6c-1.15-.97-2.44-1.77-3.82-2.37h0l-2.64,6.08c.79,.34,1.52,.8,2.18,1.35l4.28-5.06Z"/><path class="cls-1" d="M60.93,98.8c-1.42-.49-2.91-.77-4.42-.83l-.27,6.63c.86,.03,1.71,.19,2.52,.47l2.17-6.27Z"/><path class="cls-1" d="M55.57,104.59l-.24-6.63c-1.51,.06-2.99,.33-4.42,.82l2.15,6.27c.81-.28,1.66-.44,2.52-.47Z"/><path class="cls-1" d="M52.43,105.3l-2.62-6.09c-1.38,.6-2.67,1.39-3.82,2.36h0l4.27,5.08c.66-.55,1.39-1.01,2.18-1.35Z"/><path class="cls-1" d="M49.75,107.1l-4.64-4.73c-1.07,1.05-1.99,2.26-2.71,3.58l5.81,3.19c.41-.75,.93-1.44,1.55-2.04Z"/><path class="cls-1" d="M40.62,111.33l6.57,.88c.11-.85,.35-1.68,.7-2.46l-6.04-2.73c-.62,1.37-1.04,2.83-1.24,4.32Z"/><path class="cls-1" d="M47.13,112.88l-6.62-.37c-.08,1.5,.05,3.01,.41,4.48l6.45-1.56c-.2-.83-.28-1.69-.23-2.55Z"/><path class="cls-1" d="M47.54,116.08l-6.31,2.05c.47,1.43,1.14,2.79,2,4.03l5.45-3.78c-.49-.7-.87-1.48-1.14-2.29Z"/><path class="cls-1" d="M49.09,118.91l-5.14,4.19c.95,1.17,2.07,2.19,3.32,3.03l3.71-5.49c-.71-.48-1.35-1.06-1.89-1.73Z"/><path class="cls-1" d="M51.55,121l-3.28,5.76c1.31,.75,2.72,1.29,4.19,1.63h0l1.48-6.46c-.84-.19-1.64-.5-2.39-.93Z"/><path class="cls-1" d="M54.6,122.05l-.98,6.56c1.49,.22,3,.22,4.49,0h0s-.96-6.56-.96-6.56c-.85,.12-1.71,.12-2.56,0Z"/><path class="cls-1" d="M57.83,121.94l1.46,6.47c1.47-.33,2.88-.88,4.19-1.62h0s-3.26-5.77-3.26-5.77c-.75,.42-1.55,.73-2.39,.92Z"/><path class="cls-1" d="M62.69,118.94c-.54,.66-1.18,1.24-1.89,1.72l3.69,5.5c1.25-.84,2.37-1.86,3.33-3.02h0s-5.13-4.21-5.13-4.21Z"/><path class="cls-1" d="M64.24,116.11c-.27,.82-.65,1.59-1.14,2.29l5.43,3.8c.86-1.23,1.54-2.59,2.01-4.02l-6.3-2.07Z"/><path class="cls-1" d="M71.29,112.56h0l-6.62,.35c.05,.86-.04,1.72-.24,2.55l6.44,1.58c.36-1.46,.5-2.97,.42-4.47Z"/></svg>