<?xml version="1.0" encoding="UTF-8"?><svg id="_4_Quality_Education" xmlns="http://www.w3.org/2000/svg" viewBox="0 0 150 150"><path d="M45.12,25.61h0c.27.31.61.57,1.01.77.41.2.82.3,1.23.3.77,0,1.43-.22,1.98-.67l1.12.9.99-1.19-1.18-.99c.07-.17.12-.35.15-.52.04-.17.06-.44.06-.8v-6.46c0-.81-.3-1.51-.9-2.09-.61-.58-1.31-.88-2.11-.88-.88,0-1.62.31-2.2.93-.57.61-.86,1.37-.86,2.28v6.22c0,.47.04.88.13,1.23.1.35.29.68.58.99ZM46.2,23.39v-6.22c0-.17,0-.3.02-.39.01-.1.06-.24.13-.41.09-.17.22-.32.41-.45.19-.12.4-.19.65-.19.4,0,.71.14.93.43.22.27.34.61.34,1.01v6.22l-.6-.47-.99,1.19.82.69c-.17.07-.32.11-.45.11-.44-.01-.76-.16-.97-.43-.2-.29-.3-.61-.3-.97v-.13Z"/><path d="M52.64,25.39c.09.17.22.34.39.5.17.15.37.29.6.41.22.11.46.21.71.28.26.07.52.11.78.11.52,0,1-.13,1.42-.39.44-.26.79-.6,1.06-1.03h0c.15-.25.26-.51.32-.78.06-.27.09-.56.09-.86v-9.56h-1.79v9.56c0,.32-.09.62-.28.9-.17.26-.44.39-.8.39-.4,0-.68-.11-.84-.34-.17-.25-.27-.42-.28-.52-.01-.06-.02-.12-.04-.19v-9.8h-1.79v9.56c0,.3.02.58.07.84.06.26.19.57.37.91Z"/><path d="M61.38,23.9h2.31l.5,2.69h1.92l-2.8-12.51h-1.55l-2.8,12.51h1.89l.52-2.69ZM62.54,17.68l.84,4.55h-1.68l.84-4.55Z"/><polygon points="72.39 24.79 68.84 24.79 68.84 14.08 67.05 14.08 67.05 26.58 72.39 26.58 72.39 24.79"/><rect x="72.89" y="14.08" width="1.77" height="12.51"/><polygon points="77.77 26.58 79.54 26.58 79.54 15.74 81.69 15.74 81.69 14.08 75.66 14.08 75.66 15.74 77.77 15.74 77.77 26.58"/><polygon points="84.31 26.58 86.08 26.58 86.08 21.21 88.57 14.08 86.68 14.08 85.21 18.97 83.75 14.08 81.88 14.08 84.31 21.21 84.31 26.58"/><polygon points="49.9 32.97 49.9 31.33 44.54 31.33 44.54 43.83 49.9 43.83 49.9 42.04 46.31 42.04 46.31 38.36 49.45 38.36 49.45 36.66 46.31 36.66 46.31 32.97 49.9 32.97"/><path d="M54.09,31.33h-2.84v12.51h2.78c.88,0,1.61-.29,2.17-.86s.84-1.32.84-2.24v-6.5c0-.81-.29-1.49-.88-2.05-.57-.57-1.26-.86-2.07-.86ZM55.27,40.73h0c0,.96-.45,1.44-1.36,1.44h-.88v-9.17h.93c.36,0,.67.12.91.35.26.24.39.53.39.88v6.5Z"/><path d="M59,42.64c.09.17.22.34.39.5.17.15.37.29.6.41.22.11.46.21.71.28.26.07.52.11.78.11.52,0,1-.13,1.42-.39.44-.26.79-.6,1.06-1.03h0c.15-.25.26-.51.32-.78s.09-.56.09-.86v-9.56h-1.79v9.56c0,.32-.09.62-.28.9-.17.26-.44.39-.8.39-.4,0-.68-.11-.84-.34-.17-.25-.27-.42-.28-.52-.01-.06-.02-.12-.04-.19v-9.8h-1.79v9.56c0,.3.02.58.07.84.06.26.19.57.37.91Z"/><path d="M65.89,34.24v6.44c0,.36.02.7.07,1.01.06.31.2.65.41,1.01.21.36.54.66.99.9.46.24.97.35,1.53.35.22,0,.45-.04.69-.11.24-.07.45-.17.65-.28.21-.12.4-.26.56-.41.17-.16.32-.33.43-.5.21-.34.34-.65.37-.93.05-.29.07-.63.07-1.03v-.41h-1.77v.63c0,.19-.01.34-.04.45-.02.1-.11.26-.24.49s-.42.34-.84.34c-.4,0-.68-.12-.86-.37-.15-.24-.24-.45-.26-.63v-6.93c0-.35.09-.64.28-.88.2-.24.47-.35.82-.35.37,0,.65.12.84.35.2.24.3.53.3.88v.67h1.77v-.67c0-.88-.29-1.61-.86-2.17-.57-.57-1.29-.86-2.15-.86-.45,0-.88.12-1.29.35-.41.22-.73.5-.95.82s-.37.63-.45.91c-.06.27-.09.58-.09.93Z"/><path d="M74.15,43.83l.52-2.69h2.31l.5,2.69h1.92l-2.8-12.51h-1.55l-2.8,12.51h1.89ZM75.83,34.93l.84,4.55h-1.68l.84-4.55Z"/><polygon points="82.69 43.83 82.69 32.99 84.84 32.99 84.84 31.33 78.81 31.33 78.81 32.99 80.92 32.99 80.92 43.83 82.69 43.83"/><rect x="85.8" y="31.33" width="1.77" height="12.51"/><path d="M89.58,42.49c.1.19.24.37.41.54.19.17.4.33.63.47.24.14.49.25.77.34.27.07.56.11.86.11.52,0,1-.12,1.42-.37.44-.25.77-.55.99-.9.24-.35.39-.67.45-.95.07-.29.11-.62.11-.99v-6.37c0-.4-.05-.77-.15-1.1-.1-.35-.29-.68-.56-1.01-.27-.32-.62-.58-1.03-.77-.4-.19-.83-.28-1.29-.28s-.93.12-1.38.35c-.44.22-.8.54-1.08.93h0c-.2.29-.34.58-.43.88-.07.29-.11.62-.11.99v6.37c0,.31.02.58.06.82.04.24.15.55.34.93ZM90.98,40.73v-6.37c0-.1.01-.22.04-.37.02-.15.07-.3.15-.45.09-.15.23-.28.43-.39.21-.12.42-.19.63-.19.41,0,.73.17.97.52h0c.11.14.17.26.19.35.02.1.04.27.04.52v6.37c0,.2-.01.36-.04.49s-.08.26-.17.41c-.07.14-.21.26-.39.37-.17.1-.37.15-.6.15-.44,0-.75-.13-.93-.39-.19-.29-.29-.49-.3-.62-.01-.07-.02-.14-.02-.21v-.21Z"/><polygon points="100.99 38.9 98.23 31.33 96.53 31.33 96.53 43.83 98.32 43.83 98.32 36.23 101.1 43.83 102.78 43.83 102.78 31.33 100.99 31.33 100.99 38.9"/><polygon points="29.16 26.15 24.87 26.15 24.87 34.69 20.67 34.69 27.06 13.34 22.55 13.34 16.34 34.69 16.34 38.71 24.87 38.71 24.87 43.26 29.16 43.26 29.16 38.71 31.26 38.71 31.26 34.69 29.16 34.69 29.16 26.15"/><polygon points="98.7 117.25 69.21 125.85 66.81 125.85 37.33 117.25 37.33 65.23 34.58 67.33 34.58 119.28 66.18 128.21 69.85 128.21 101.45 119.28 101.45 67.33 98.7 65.23 98.7 117.25"/><path d="M113.91,60.73c-1.52,0-3.04.84-3.04,2.48v4.46h6.08v-4.46c0-1.67-1.52-2.48-3.04-2.48Z"/><polygon points="69.63 122.59 95.73 114.53 95.73 65.27 69.63 80.46 69.63 122.59"/><polygon points="66.4 80.46 40.29 65.27 40.29 114.53 66.4 122.59 66.4 80.46"/><polygon points="110.87 114.13 113.91 124.11 116.95 114.13 116.95 69.58 110.87 69.58 110.87 114.13"/></svg>