<?xml version="1.0" encoding="UTF-8"?>
<svg xmlns="http://www.w3.org/2000/svg" version="1.1" xmlns:xlink="http://www.w3.org/1999/xlink" viewBox="0 0 150 150">
  <!-- Generator: Adobe Illustrator 29.3.1, SVG Export Plug-In . SVG Version: 2.1.0 Build 151)  -->
  <defs>
    <style>
      .st0 {
        fill: #c31f33;
      }

      .st0, .st1 {
        display: none;
      }

      .st0, .st2 {
        fill-rule: evenodd;
      }
    </style>
  </defs>
  <g id="SDG_logo">
    <g>
      <polygon class="st2" points="-104.3 208.7 -104.2 208.7 -104.2 208.6 -104.3 208.6 -104.3 208.7"/>
      <polygon class="st2" points="-97.2 202.7 -97.2 202.6 -97.3 202.6 -97.2 202.7"/>
      <path class="st2" d="M-109.6,220.4c.6.7,1.4,1.2,2.2,1.5,1.5.6,3.3.1,4.6-.7.9-.6,1.7-1.5,2.9-1.5s.4,0,.6.1c-1.6.6-3,1.7-4.1,2.8l.7.7c1.2-1.3,2.7-2.7,4.1-3.3,1.4.6,2.8,2,4.1,3.3.3-.2.5-.4.7-.7-1.1-1.1-2.5-2.2-4.1-2.8.2,0,.4-.1.6-.1,1.1,0,1.9.9,2.9,1.5,1.3.8,3.1,1.3,4.6.7.8-.3,1.6-.8,2.2-1.5-1.2.8-3,.9-4.4.4-1.5-.6-3-1.5-4.8-1.5s-1.2.1-1.8.3c-.6-.2-1.2-.3-1.9-.3-1.7,0-3.3.8-4.8,1.5-1.3.6-3.1.4-4.3-.4Z"/>
      <path class="st2" d="M-100.5,219.3h0Z"/>
      <path class="st2" d="M-84.7,207.9h0Z"/>
      <path class="st2" d="M-85.9,214.4c0,.5-.4.9-.6,1.3.9-.7,2.1-1.3,3.1-2.1,1-.7,1.8-1.6,2.2-2.8.3-.8.4-1.8.3-2.7-.2,2.1-2.4,3.2-3.4,4.9-.2.4-.5.7-.8,1l.3-.6c.3-.7.5-1.6.4-2.5,0-1.1-.6-2-.4-3.2-.8,2.1-.5,4.6-1.1,6.7Z"/>
      <path class="st2" d="M-90,218.6c1.6-.5,3.4-.4,4.8-1.3,1.5-1,2.9-2.5,3.2-4.3-1,2.4-3.7,2.6-5.4,4-.3.3-.7.5-1,.7h0c.4-.4.8-.8,1.2-1.3,1-1.5.7-3.4,1.4-5-.7.8-1.4,1.7-1.8,2.7-.7,1.5-.9,3.3-2.4,4.5Z"/>
      <polygon class="st2" points="-97.1 202.6 -97.1 202.5 -97.2 202.5 -97.2 202.6 -97.1 202.6"/>
      <path class="st2" d="M-98.1,202.7h0c0,0,0,0,0,0h0Z"/>
      <rect x="-98" y="202.8" width="0" height=".1"/>
      <path class="st2" d="M-96.4,202.7h0c0,.1.2,0,.2,0,0,0,0-.2,0-.2s-.2.1-.2,0c0,0,0-.1,0-.1h-.3c0,.1.3.3.3.3,0,0,0,0,0,0Z"/>
      <polygon class="st2" points="-96.7 202.5 -97 202.5 -97 202.6 -96.7 202.6 -96.7 202.5"/>
      <path class="st2" d="M-93.9,202.8h0c0,0,0,.1,0,.1h.3c0-.1-.2-.1-.2-.1h0Z"/>
      <polygon class="st2" points="-104.1 207.6 -104.1 207.5 -104.2 207.4 -104.1 207.3 -104.1 207.2 -104.1 207.2 -104.2 207.3 -104.4 207.2 -104.4 207.5 -104.2 207.8 -104.1 207.6"/>
      <path class="st2" d="M-104.2,207.1c0,.1,0-.1,0-.1v-.9h-.2c0,.1,0,.1,0,.1,0,.2,0,.6,0,.6,0,0-.2,0-.2-.1s0,.2,0,.2c0,0,0,0,.2.2Z"/>
      <polygon class="st2" points="-98.3 202.6 -98.2 202.7 -98.2 202.6 -98.3 202.6"/>
      <polygon class="st2" points="-92.1 205.3 -92.1 205.3 -92.2 205.4 -92.3 205.3 -92.3 205.4 -92.2 205.5 -92.2 205.5 -92.2 205.5 -92.1 205.4 -92.1 205.4 -92.1 205.4 -92.1 205.3"/>
      <polygon class="st2" points="-91.8 205.3 -91.7 205.3 -91.6 205.2 -91.8 205.2 -91.8 205.3"/>
      <polygon class="st2" points="-92.5 202.1 -92.5 202.1 -92.6 202.1 -92.5 202.2 -92.5 202.1"/>
      <path class="st2" d="M-103.9,207h0c0-.1,0,0,0,0,0,0,0,.1,0,0q0,.1,0,0Z"/>
      <polygon class="st2" points="-94.1 202.6 -94.2 202.7 -94.1 202.7 -94.1 202.7 -94.1 202.6"/>
      <path class="st2" d="M-116.4,208.2c0,.9,0,1.9.3,2.7.4,1.1,1.3,2,2.2,2.8,1,.8,2.2,1.4,3.1,2.1-.2-.5-.5-.9-.6-1.3-.5-2.1-.2-4.6-1.2-6.6h0c.2,1.1-.3,2.1-.4,3.2,0,.9,0,1.7.4,2.5,0,.2.3.4.3.6-.3-.3-.6-.7-.8-1-.9-1.8-3.1-2.9-3.3-5Z"/>
      <circle cx="-104" cy="208.2" r=".1"/>
      <polygon class="st2" points="-94.5 202.4 -94.5 202.5 -94.4 202.5 -94.4 202.4 -94.5 202.4"/>
      <path class="st2" d="M-111.4,211.4c.8,1.5.4,3.5,1.4,5,.3.5.7.9,1.2,1.3h0c-.4-.2-.7-.4-1-.7-1.7-1.5-4.4-1.6-5.4-4,.3,1.7,1.7,3.3,3.2,4.3,1.4.9,3.2.8,4.8,1.3-1.5-1.2-1.7-2.9-2.3-4.5-.5-1-1.2-1.8-1.9-2.7Z"/>
      <path class="st2" d="M-85.9,211.4h0Z"/>
      <path class="st2" d="M-85.9,196.1h0Z"/>
      <polygon class="st2" points="-100.5 213.6 -100.4 213.6 -100.5 213.5 -100.4 213.5 -100.5 213.5 -100.6 213.5 -100.6 213.6 -100.6 213.6 -100.5 213.6"/>
      <path class="st2" d="M-84.9,199.1c-.4-.8-.5-1.7-.9-2.4-.8-1.3-2.2-1.8-3.4-2.3h0c.9.8,1.5,1.9,2.3,2.8.5.7,1.3,1.2,2,1.9Z"/>
      <polygon class="st2" points="-99.6 214.5 -99.5 214.6 -99.5 214.5 -99.4 214.5 -99.5 214.4 -99.6 214.4 -99.6 214.5 -99.6 214.5"/>
      <polygon class="st2" points="-105.9 215 -106 215 -105.9 215.2 -105.9 215.3 -105.8 215.3 -105.7 215.4 -105.6 215.4 -105.7 215.2 -105.9 215"/>
      <path class="st2" d="M-99.3,202.7s0,0,0,0h0c0,.1,0,0,0,0h0Z"/>
      <rect x="-99.1" y="202.5" width="0" height=".1"/>
      <rect x="-99.5" y="202.8" width="0" height=".1" transform="translate(-42 -15.6) rotate(-11.4)"/>
      <polygon class="st2" points="-100.8 200.3 -100.8 200.4 -100.7 200.3 -100.8 200.2 -100.8 200.3"/>
      <path class="st2" d="M-100.9,200.3s-.2,0,0-.1h0c0,.1,0,.1,0,.1,0,0,0,0,0,0Z"/>
      <path class="st2" d="M-84.3,199.7c0,.5.3.9.5,1.4h0c-.2-.5-.6-1.1-1-1.5-.9-.8-2.2-1.3-2.6-2.5,0,1.7,1.5,3,2.8,4,.6.4,1.1,1,1.4,1.7,0-.5,0-.9,0-1.3,0-1.5.2-3.1-.8-4.2-.5-.5-1-1-1.7-1.1,1.1.7,1,2.3,1.4,3.5Z"/>
      <path class="st2" d="M-111.4,211.4h0Z"/>
      <polygon class="st2" points="-98.5 202.6 -98.4 202.6 -98.4 202.5 -98.4 202.5 -98.5 202.6"/>
      <path class="st2" d="M-108.9,215.2h0c1,1.3,1.2,3.1,3,3.8.3.1.7.1.9.3-.3.1-.6-.1-.9-.1-2.2-.5-5,.1-6.7-1.8.6,1.3,1.9,2.2,3.2,2.6,2,.6,4-.1,5.8-.5.3-.1.6,0,.8-.1-1-.2-2-.5-2.8-1.2-1.1-1.1-2.1-2.2-3.3-3Z"/>
      <path class="st2" d="M-83,203.3v1.7c0,0,0,.1,0,0,0-.2,0-.4,0-.6-.2-1.4-1.4-2.3-2.4-3.3s-.4-.5-.5-.8c0,.7.3,1.4.6,2,.8,1.6,2.3,2.9,2.6,4.7,0-1.7,1.2-3,1.2-4.9s-.6-2.7-1.5-3.8h0c1,1.5.1,3.4.2,5Z"/>
      <path class="st2" d="M-91.8,218.1c-.8.7-1.8,1-2.8,1.2.2.1.6.1.8.1,1.8.5,3.9,1.2,5.8.5,1.3-.4,2.6-1.4,3.2-2.6-1.7,1.9-4.4,1.3-6.7,1.8-.3.1-.6.2-.9.1.3-.2.6-.2.9-.3,1.7-.7,2-2.5,3-3.8h0c-1.1.9-2.1,2-3.3,3Z"/>
      <polygon class="st2" points="-99.2 202.6 -99.3 202.6 -99.3 202.7 -99.2 202.7 -99.2 202.6"/>
      <path class="st2" d="M-81.3,202.9h0Z"/>
      <path class="st2" d="M-82.7,208c-.2.6-.2,1.3-.5,1.9h0c.6-1.8-.3-3.5-1.2-4.9-.2-.4-.4-.8-.5-1.3,0,.8,0,1.8.2,2.6.2,1.1.6,2.1.9,3.2.2.7,0,1.4,0,2.1h0c.7-1.4,2-2.4,2.5-3.7.3-1.1.6-2.4.3-3.6,0-.5-.2-.9-.4-1.4.5,2-.8,3.4-1.3,5.1Z"/>
      <circle cx="-103.9" cy="208.5" r=".1"/>
      <polygon class="st2" points="-104 207.9 -104.1 208 -104.1 208.1 -104 208.1 -104 207.9"/>
      <path class="st2" d="M-99,208.5s0,.1,0,0h0c0,0,0,.2,0,.2,0,0,0,.1,0,.1h0s0-.1,0-.2,0-.1,0-.1Z"/>
      <path class="st2" d="M-91.1,211.1s0,0,0,0h0c0,0,0,0,0,0,0-.1,0-.2,0-.2h0v.2h0Z"/>
      <polygon class="st2" points="-99.6 205.1 -99.7 205.1 -99.8 205.2 -99.8 205.2 -99.8 205.3 -99.8 205.3 -99.7 205.4 -99.8 205.4 -99.8 205.5 -99.9 205.5 -100.2 205.7 -100.2 205.8 -100.2 205.9 -100.3 206.1 -100.6 206.1 -100.6 206.4 -100.6 206.5 -100.4 206.6 -100.3 206.5 -100.3 206.5 -100.2 206.3 -100.2 206.2 -100.1 206.2 -100.1 206.1 -100 206 -99.8 206 -99.7 205.9 -99.7 205.7 -99.7 205.6 -99.7 205.5 -99.5 205.5 -99.5 205.2 -99.6 205.2 -99.6 205.1"/>
      <path class="st2" d="M-96.2,194.5h-.5q0-.1,0,0c0,.1,0,.1,0,.1h-.3c0,.1-.2.1-.2.1,0-.1-.2.1,0,.2.2.1.3,0,.3,0h0c0-.1.6-.1.6-.1h0c0-.1.2-.2.2-.1,0,0,0-.2,0-.2Z"/>
      <polygon class="st2" points="-95.9 194.4 -95.9 194.3 -96 194.3 -95.9 194.4 -95.9 194.5 -95.9 194.4 -95.7 194.3 -95.8 194.3 -95.9 194.4"/>
      <path class="st2" d="M-99.4,207.5h0v.2h0c0,.1,0,.1,0,.1,0,0,.2-.1.2-.2h-.3Z"/>
      <path class="st2" d="M-97.7,206h0Z"/>
      <polygon class="st2" points="-96.5 194.1 -96.5 194.1 -96.3 194 -96.4 194 -96.5 194 -96.6 194 -96.6 194.1 -96.5 194.1"/>
      <path class="st2" d="M-96.2,196.7h0c0-.1-.2-.1-.2-.1h0c0,.1,0,.2,0,.2,0,0,.2.1.2.1h0c0-.1,0-.2,0-.2Z"/>
      <path class="st2" d="M-97.5,195.2v-.2h0c0-.1,0-.3,0-.3h-.4c0,.1-.2.2-.2.2h-.3c0,.1.4.1.4.1h0c0,.1.3.1.3.1l.2.2c.2.1.2,0,0-.1h0Z"/>
      <path class="st2" d="M-95.3,198.4c0,0-.2-.1-.2-.1,0-.1-.2-.1-.2-.1,0,0-.2-.2,0-.2s0-.1,0-.1h-.2c0-.1,0-.1,0-.1h0s0,0,0,.1,0,.2,0,.2,0,.1.2.1c0,.1.2.1.2.1h0c0,.1.3.4.3.4l-.2-.3c.1.1.1,0,0,0Z"/>
      <path class="st2" d="M-92.8,196.6h.2c0,.1.2.4.2.2,0-.4-.2-.4-.3-.5h0c0,0-.3.1-.2.1,0,0,.1.2.2.2Z"/>
      <path class="st2" d="M-97.6,206.6c0,0,.2-.1,0,0,0-.2,0-.4,0-.5h-.2v.3c0-.1.3,0,.3.2Z"/>
      <path class="st2" d="M-112.4,199.1c.7-.7,1.5-1.1,2.1-1.9.7-.9,1.3-2,2.3-2.8-1.3.5-2.6,1-3.4,2.3-.5.7-.6,1.6-1,2.4Z"/>
      <path class="st2" d="M-111.8,202.4c.3-.6.5-1.3.6-2,0,.3-.3.6-.5.8-1,1-2.2,1.9-2.4,3.3,0,.2,0,.4,0,.6h0v-1.7c.2-1.6-.7-3.5.3-4.9h0c-.9,1.1-1.5,2.3-1.5,3.8s1.1,3.1,1.2,4.9c.3-1.9,1.8-3.2,2.6-4.8Z"/>
      <path class="st2" d="M-96.6,196.7h0q0,0,0,0Z"/>
      <path class="st2" d="M-115.9,202.9h0Z"/>
      <path class="st2" d="M-113.5,211.6h0c0-.6,0-1.4,0-2,.3-1.1.7-2.1.9-3.2.2-.8.3-1.8.2-2.6,0,.4-.2.9-.5,1.3-.9,1.4-1.9,3.1-1.2,4.9h0c-.3-.6-.3-1.3-.5-1.9-.5-1.7-1.8-3.1-1.4-5.1-.2.4-.3.9-.4,1.4-.2,1.2,0,2.5.3,3.6.5,1.3,1.9,2.3,2.6,3.6Z"/>
      <rect x="-92.7" y="202" width="0" height=".1"/>
      <polygon class="st2" points="-109.5 210.6 -109.5 210.8 -109.4 210.8 -109.4 210.9 -109.4 210.9 -109.4 210.8 -109.5 210.7 -109.5 210.7 -109.5 210.6"/>
      <path class="st2" d="M-100,197.2s.2,0,.2.1c0,0,0,.1.2,0,0,0,0-.1,0-.1s0-.1,0-.1h-.3s0,.1,0,.1Z"/>
      <rect x="-103.1" y="197.8" width="0" height=".1" transform="translate(-170.1 -15) rotate(-45)"/>
      <polygon class="st2" points="-108.7 211.7 -108.5 211.9 -108.5 211.8 -108.6 211.6 -108.7 211.5 -108.7 211.3 -108.9 211.2 -108.8 211.5 -108.8 211.6 -108.7 211.7"/>
      <path class="st2" d="M-98.4,206.8c0,.1,0-.2,0-.2s0-.2,0-.2h0l-.2.2c0,0,0,0,0,.2Z"/>
      <path class="st2" d="M-111.2,205.7c0,1.2.2,2.4.5,3.5h.3c-.3-1.2-.5-2.3-.5-3.4h2.3c0,.9.2,1.9.4,2.8h.3c-.3-1-.4-1.9-.4-2.8h2.1c0,.3,0,.6,0,.9,0,0-.3.1-.3.1v.2c-.2,0-.3.3-.3.3,0,0-.2.2-.2.2h0v.4h0v.4c0,0,0,.1,0,.1,0,0,0,.2,0,.2h-.3c0,.1,0,.2,0,.2h-.4s0,0,0-.2h-.3v.2h-.4c0-.1,0-.1,0-.1h0c0-.1-.2-.1-.2-.1h0c0,.1-.2.1-.2.1,0,.1-.2.3-.2.3,0-.1-.2-.2,0-.2s.2-.1.2-.1h0c0-.1-.5-.1-.5-.1h0c0,.1-.2.1-.2.1v.2h0c0,0,0,.2,0,.2,0,.1,0,.2,0,.2,0,.1,0,.2,0,.2,0,0,0,.1,0,.1,0,.1,0,.2,0,.2,0,.1,0,.2,0,.2v.2h0v.2h0c0,.1.2.1.2.1v-.3c-.2-.2.2-.3.2-.2s.2.1.2.1c0,.2.2.3.3.1,0-.2,0-.1.2,0,0,.1.3.3.3.3h.2v.2c.2,0,.3,0,.4.3s.3.4.3.4h.2c0-.2.2,0,.2.1s.3.4.3.4h.3c0,.1,0,.2,0,.2.2.3.4.5.7.8l-1.6,1.6c-1.4-1.5-2.4-3.2-3-5.1h-.3c.6,2.1,1.7,4,3.2,5.5s2.2,1.8,3.5,2.4h0c1.7.8,3.5,1.2,5.4,1.2s3.9-.5,5.7-1.3c1.2-.6,2.3-1.4,3.2-2.3,1-1,1.8-2.2,2.4-3.4.8-1.7,1.3-3.6,1.3-5.5s-.3-3.2-.9-4.7-1.6-3-2.8-4.2c-1.2-1.2-2.6-2.2-4.2-2.8-1.5-.6-3-.9-4.7-.9h0c-2,0-3.9.5-5.6,1.3h0c-2.4,1.2-4.4,3.2-5.7,5.7-.9,1.4-1.4,3.3-1.4,5.3ZM-106.3,205.5h-2.1c0-1.4.3-2.8.9-4,.4-.9,1-1.8,1.8-2.6h0l1.5,1.5c-.6.6-1.1,1.3-1.4,2.1-.4.9-.7,2-.7,3ZM-105.3,202.6c.3-.7.8-1.4,1.4-2h0l1.6,1.6c-.3.4-.6.8-.8,1.2q0,0,0,.1c0,.1-.2.1-.2.1h0c0,.1,0,.1,0,.1h0c0,.1-.2.1-.2.1h.4c0,0,0,.2,0,.2h-.3c0,.1-.2.1-.2.1h0c0,.1-.2.1-.2.1,0,0,0,.1,0,.2,0,0,0,.2,0,.2s0,.1,0,.2v.2c0,0,0,.1,0,.1h0v.4h-.2v.3h0c0,.1-1,.1-1,.1,0-1.4.3-2.4.7-3.3ZM-99.6,202.9h0v.2h-.2c0,.1,0,.1,0,.1h0c-.2.2-.4.3-.5.5l-1.5-1.5c.4-.3.8-.6,1.3-.9h0c.6-.3,1.2-.4,1.9-.4v2.1c-.3,0-.5.1-.8.2v-.3h-.1ZM-104.2,210c0-.2,0-.3,0-.3-.2-.2-.2-.5-.2-.5v-.2c-.2-.2,0-.2,0-.2,0-.2,0-.3,0-.3v-.2h-.2v-.6l-.5-.7c0,0,0-.2,0-.2,0-.1,0-.2,0-.2v-.3h.4c0-.1,0-.1,0-.1v-.3c0-.1,0-.1,0-.1h1v.3c0,0,0,.1,0,.1,0,.1,0,.3,0,.3s0,.3,0,.1c-.2,0,0,.2,0,.2.2.1.2-.1.2-.1h0c0,.2,0,.4.2.6.2.7.6,1.3,1.1,1.8l-1.6,1.6c0-.1-.2-.2-.3-.3,0-.1,0-.2,0-.2,0,0-.2-.2-.2-.2ZM-104.4,205.5c-.2-.1,0-.4,0-.4,0-.1.2-.2.3-.2h0c0,0,.2.1.2.1h.3v.5h0v.2h-.5l-.2-.2ZM-103.1,207.3c0-.3-.2-.5-.2-.8h0c0,0,.2.2.2.2h.5c0,.1.2.3.2.3,0-.2.4,0,.2.1.2.1.2.2.2.2.2-.1.2.1.2.1v-.2c0-.1.4-.2.2.1h0c0,.1,0,.2,0,.2v.3c.3,0,.2-.4.2-.4h0c0-.1,0-.1,0-.1,0-.3,0-.4,0-.5,0,.2.2.4.4.5l-1.5,1.5c-.4-.3-.7-.9-.9-1.5ZM-101.7,206.1h.2v-.2h0v.3h0c0-.1,0,0,0,0h-.2ZM-101.2,203.7c0-.1-.2,0-.2,0,0,.1-.2-.1-.2-.1l-.4-.3c-.3-.2-.6.1-.6.1,0,.1,0,.1-.2.1.2-.4.5-.7.8-1.1h0l1.2,1.2h0c-.2.2-.3.1-.3.1ZM-98.8,200.6c-.7,0-1.4.2-2,.5h0c-.5.2-.9.5-1.3.9l-1.6-1.6c.6-.5,1.2-1,1.9-1.3.9-.4,2-.7,3-.7h0v2.2ZM-106,205.9h.9c0,.1-.2.3-.2.3v.2h0c0,.1,0,.4,0,.4h0c0,0,0,.2,0,.2s-.2.1,0,.1c0,.1-.2,0-.2,0h-.2c0-.1,0-.1,0-.2,0-.4,0-.7,0-1h0ZM-105.9,212.1h0q0-.1.2-.1c0,0,.3.1.3.2,0,0,0,.1,0,.1l-.2.2c-.2-.2-.3-.3-.4-.4ZM-98.8,218c-1.8,0-3.5-.4-5.1-1.2-1.2-.6-2.3-1.3-3.3-2.3l1.6-1.6c.8.8,1.8,1.5,2.8,1.9h0c1.2.6,2.6.9,4,.9v2.3ZM-98.8,215.4c-1.3,0-2.7-.3-3.9-.9-1-.5-1.9-1.1-2.7-1.9l.3-.3h0c0,.3,0,.3,0,.3h.7l.3-.2h.6c.3,0,0-.5,0-.5v-.2c.5.4,1.1.7,1.7,1h0c.9.4,1.8.6,2.8.6v2.1ZM-98.8,213c-.9,0-1.8-.2-2.7-.6h0c-.7-.3-1.3-.7-1.9-1.2l-.3-.3,1.6-1.6c.5.5,1.1.9,1.8,1.1.2.1.4.1.5.2h0c0,.2,0,.2,0,.2h-.2c0,.1-.2.2-.2.2v.3h0v.2h0c0,.1,0,.1,0,.1v.2c0,0,.2.1.2.1.2,0,0,.2,0,.2h.2c0,.1,0,.3,0,.3,0,.2.2.1.2.1,0,0,0,.2,0,.2h.5s0,.1,0,.1h.4v.2h0ZM-98.8,209.4h0c0,.2-.4.1-.5,0v.2h0v.4h0c0,.1.3.1.3.1h0c0-.1,0,0,0,0h-.3c0,.1,0,0,0,0h-.2c-.3.1-.6,0-.9,0-.6-.2-1.2-.6-1.7-1l1.4-1.5c.4.4,1,.6,1.6.7h0c0,.1,0,.1,0,.2h0s0,.1,0,.2h0v.2h.2c0-.1,0,0,0,0h0c0,.1,0,.1,0,.1h0c0,.1,0,.1,0,.1,0,0,0,.3,0,.3ZM-97.7,207.9c0,0-.2.1-.2.1v-.3h0c0,0,0,.1,0,.2ZM-97.9,208.4h0q0-.1.2-.1h0c0,.1,0,.1,0,.1h0c0,.1,0,.2,0,.2h-.4c0-.1,0-.1,0-.1v.2h0c0,.1-.2.3-.2.3.2,0,0,.1,0,.1v-.5c.2,0,.3,0,.5-.1h.2ZM-97.6,202.8c0,.1,0,.1,0,.1,0,0,0,0,0,.1s0,.1,0,.1h-.6v-2.1c.6,0,1.2.1,1.7.4.5.2,1,.5,1.4.9h0c0,.1-.2,0-.2,0,0-.1,0-.1,0,0s0,.1,0,.1h0c0,.1,0,.2,0,.2s.2-.1.2,0h0c0,.1-.5.6-.5.6h0c0,.1-.2,0-.2-.1h0c0-.1,0-.1,0-.1h0c-.2.1-.2.2-.2.3s0,0,0,.1,0,.1,0,.1,0,0,0,.1h0,0c0,.1-.2.1-.2.1h0c-.2,0-.4-.2-.7-.3,0,0,0,0,0-.1,0-.1,0-.4,0-.4,0,0-.1-.2-.1-.1ZM-93.6,200.4l-1.6,1.6c-.5-.4-1-.8-1.5-1-.6-.2-1.2-.4-1.8-.4v-2.3c.9,0,1.8.2,2.6.5.2.1.5.2.7.3h0c.4.2.7.4,1,.7,0,.1,0,.1,0,.1h.2v.2c.2,0,.3.2.3.3ZM-92.9,201.1h0c0,.2,0,.3.2.3h0c.2.2.3.5.5.7h0s0,.1,0,.1h0c0,.1-.2.1-.2.1v.2h0c0,.1,0,.1,0,.1,0,0,0,.2,0,.1s.4,0,.3.2c0,.1.3.2.3.4h0c0,.2,0,.4.2.5h0c0,.2,0,.3,0,.5s0,.3,0,.3c-.2.1,0,0,0,0v.3c0,.1,0,.1,0,0,0,0,0-.1,0-.1v.6h-1.5v-.2c0,0,.3-.1.3-.1v-.2h0s0-.2.2-.2h.5s0-.2,0-.3,0-.1,0-.1c0,0,0-.1.2-.2s0-.4,0-.3-.2.1-.2.1h0c0,.1,0,.2,0,.2h0c0,.2,0,.2,0,.2h0c0,.1-.3.1-.3.1,0-.1,0-.2,0-.2,0,0,0-.2,0-.2h0s0-.2,0-.2c0,0,0-.1,0-.1s0-.2-.2-.2h-.3c0,.1,0,.1,0,.1h0c0,.2-.4.4-.2.1h0v-.2h-.2s0,0,0-.1h0c0-.1-.3-.4-.3-.4h-.3c0-.1-.2-.1-.2-.1h0c0-.1-.2-.3-.3-.4h0s-.2-.2-.2-.3h0c0-.1,1.6-1.7,1.6-1.7,0,.1,0,.1,0,.1h.2c-.2.5,0,.5,0,.5ZM-93.4,213.3c-.2,0,0-.2,0-.2h0c0-.1.3-.4.3-.4v-.2l-.6-.5c0,0,0-.2,0-.4,0-.1.2-.2.3-.3h0l.6.6c0,.1,0,.1-.2.1s0,.1,0,.1c0,.1,0,.1,0,0v-.2l.3.3c0,.1,0,.1,0,.2h0v.3c0,.1.3.1.4.1h0c-.5.6-1,1-1.5,1.3h0c.2-.5.2-.8,0-.8ZM-93.9,209.9h0v-.2h.2v-.3h0v-.6l-.2-.2c0,.1-.2.1-.2.1h0c0,.1,0,.2,0,.3,0,.1,0,.1,0,.1h-.2c0,.1,0,.2,0,.2h-.2c0-.1,0-.2,0-.2h.3c0-.1,0-.2,0-.2,0-.1.2-.1.2-.1,0,0,.3-.2.3-.4s0-.4.3-.4h.3c0-.1,0-.2,0-.2h.2c0,.1.2.1.3.1h0c0-.1.3-.2.3-.2,0-.1.3-.1.3-.1h0c0-.1-.2-.4-.3-.4,0,0-.2-.2-.3-.1-.2-.1-.2-.3-.2-.3v-.2c0-.1-.3-.3-.3-.3,0,0,0-.1,0-.2h1.8c0,1-.2,2-.6,2.8-.3.8-.8,1.5-1.4,2.1,0-.3,0-.5,0-.5h0v-.4h0l-.2.3h0c0,.1,0,0,0,0h0c0-.1-.2-.5-.2-.5ZM-95.7,208v.2c.2-.2.3,0,.3.1,0,0,0,.1.2,0s0,.1,0,.2-.3.1-.3,0,0-.1,0,0c0,0,0,.1-.2,0h0q0-.1,0-.1h0v-.3c0-.2.2-.2.3,0h0c-.1-.1,0-.1,0,0ZM-94.9,202.7c0,.1,0,.2.2.2h-.5c-.2.1-.2.3-.2.3,0,.2-.3,0-.3-.1l.3-.3h.3c0-.2,0,0,.2,0ZM-94.7,203.5c0,0-.2-.1-.2-.1h0v.2h0c0,.1,0,0,0,0,0,0-.2-.3,0-.3s0-.2,0-.2h0c0-.1,0-.1,0-.1h0s0,0,0,0h0c0,.4.2.5,0,.5ZM-95.8,209.9h.3c0,.2.2.1.2.1h0c0,.1,0,.1.2.2s.4,0,.4,0h0c0,.1,0,.2,0,.2h.3c-.2.2-.7.2-.7.1l-.3-.2s-.2-.2-.2-.1-.2-.1-.2,0-.2-.1-.2-.1h-.3c0-.1.2-.1.2-.1h0ZM-92.1,211.3c0,.1-.2,0-.2.1s0,.3,0,.4h0l-.8-.8c.6-.6,1.1-1.4,1.5-2.2.4-.9.6-1.9.7-3h2.1c0,1.4-.3,2.7-.9,4-.5,1-1.1,1.9-1.8,2.6h0v-.4h0v-.4c0,0-.3-.3-.3-.3ZM-91,205.5c0-.4,0-.7,0-1.1h0v-.3s0-.1,0-.2c0-.1,0-.2,0-.3h0c0-.1,0-.1,0-.1h0c0-.1,0-.2,0-.2h0c0-.1,0-.1,0-.1q0-.1,0-.2v-.3h0v-.2h0v-.2c0,0,0-.2,0-.2h0c0-.1,0-.2-.2-.4h.2c0-.1,0-.2,0-.2v-.2s0,0,0,.1h0c0-.1-.2-.3-.3-.4h0c0-.1,0-.1,0-.2q0,0,0-.1c0-.1,0-.1,0-.1v-.2h0q0,0-.2,0h0q0-.1,0-.2l.4-.4c.2.1.3.3.3.4s.2,0,.2,0c0-.2.2-.2.3-.1,0,.1,0,.2,0,.2h0c0,.1,0,.2,0,.2h0c0,.1.2.1.2.1,0,0,0,.2.2.2h.3c0,0,0,.1,0,.1,0,.1,0,.2,0,.2,0,0,.2,0,.2.1s0,.2,0,.2h0v.2h0v.2h.3c0-.1,0-.1,0-.2,0,.1,0,.2,0,.3.4,1.1.7,2.2.7,3.4h-2.2v.3ZM-96.8,209.8h0c0-.1-.2-.1-.2-.1,0-.2,0-.3,0-.2h0v-.2h0v-.3h0c0-.1.3-.1.3-.1,0-.2,0-.3,0-.3h0c0,.1.4.1.4.1h0c.2.1,0,.2,0,.2h0c0,.1-.3.1-.3.1h0c-.2.1-.2.3-.2.3v.2h0c0,.1.2,0,.2,0,0-.1,0-.2.2-.2,0-.1.3.1.2.2h0c-.2.1-.4.3-.6.4-.3.2-.7.3-1.1.4h0v-.2c0-.1-.3-.1-.3,0s-.5,0-.5,0v-.4h0c0-.1.3-.2.3-.2,0-.1.2,0,.2,0,0,0,.2.1.2.1h.2c0,0,0,.1,0,.1,0,.1,0,.1,0,.1v-.2h0,0c0-.1,0-.2,0-.2h-.2c0-.2,0-.2,0-.2h.2l.2.3h0c0,.1,0,.1,0,.1h0c0,.1.1.2.1.2v.2h.2c0-.1-.2-.2-.2-.2ZM-97.6,213c-.3,0-.6.1-.9.1v-.3h.2c0,0,.2,0,.2.1,0,.1.3,0,.3,0h.2ZM-98.5,213.3c.4,0,.7,0,1.1-.1h0c0,.1.2.2.2.2h.2v.2h.2c0,.2,0,.4,0,.4v.3h0v.2l.2.2h.2l.3.3c-.8.2-1.5.3-2.4.3v-2h0ZM-93.1,216.7c-1.6.8-3.4,1.3-5.4,1.3v-2.3c.9,0,1.8-.2,2.7-.4h.2c0,.1,0,.3,0,.3h.2c0-.1.3-.1.3-.1h.2c0-.1.2-.1.2-.1l1.2-1c.7-.4,1.3-.9,1.8-1.4h0l1.6,1.6c-1,.8-2,1.5-3.1,2.1ZM-87.6,211c-.6,1.2-1.4,2.3-2.3,3.2l-1.6-1.6c.8-.8,1.4-1.7,1.9-2.7.6-1.3.9-2.7.9-4.1h2.3c0,1.9-.4,3.7-1.2,5.2ZM-87.2,201.1c.6,1.4.9,2.9.9,4.4h-2.3c0-1.2-.3-2.4-.7-3.5,0-.2,0-.3-.2-.5,0-.1,0-.1,0-.1,0,0,0-.3,0-.3,0,0-.2-.1-.2-.2s-.2-.2-.2-.2c0-.1-.2-.2-.2-.2,0-.1,0-.2,0-.2l-.2-.2h0c0-.1-.2-.1-.2-.1l-.3-.4h0c0-.1,0-.1,0-.1h0c0-.1,0-.2,0-.2h0l-.3-.3h0c0-.1,0-.1,0-.1v-.2l1.5-1.5c1.3,1.1,2.2,2.4,2.8,3.9ZM-98.5,193.4c1.5,0,3,.3,4.4.9,1.5.6,2.8,1.5,4,2.6l-1.4,1.4h0c0,0,0-.1,0-.1v-.2h0c0-.1-.2-.1-.2-.1v-.2c0,0,0-.2,0-.2h0c0-.1,0-.1,0-.1v-.2h-.2v-.2h-.4c0-.1,0-.3,0-.3h-.4c0-.1,0-.1,0-.1h0c0,.1-.2.1-.2.1h0c0,.1-.3.1-.4.1-.3-.1-.5-.3-.7-.4v.3c0,.1.3.2.5.3,0,0,0,.1,0,.1s0,.2,0,.2h.2c0,0,0,.1,0,.1.2,0,.3.2.2.3,0,.1,0,.1,0,.1v.3c0,.1.2.1.2.2,0,.1,0,.3,0,.4h0c0,.2,0,.1,0,.2v.3h.2c0-.2.4-.2.4-.2.2.1.4.4.4.5s0,.1,0,.1h0c0,.1-.4.5-.4.5h0c0,0,0-.3,0-.3,0,0,0-.1.2,0,0,0-.4-.6-.5-.6,0,.1-.3-.1-.3-.2s-.5-.5-.5-.5c0,0-.2-.1-.2,0s0,.1,0,.2c0,0,0-.1.2,0s.3.2.2.3h0c0,.1,0,.2,0,.2h0v.2s.2.1.2.2h0c-.3,0-.6-.3-.9-.5h0c0-.2,0-.2.2-.1h0c0-.1-.2-.2-.2-.2h0s0,.1,0,.1h0c0,0,0,.1,0,.2-.2-.1-.4-.2-.6-.3-.9-.4-1.8-.5-2.7-.6v-1.2q0,0,0-.1t0-.1c0,0,0-.2,0-.2h0v-.6c1.2,0,2.4.3,3.5.7v-.3c-1-.5-2.3-.7-3.5-.7l-.4-2.3ZM-98.7,203.3v.3h-.2c0-.1,0-.1,0-.1v.3h0c0,.1,0,.2,0,.2h0v.2h.3c0,.1.2.1.2.1l.4.4h0c0,.1,0,.1,0,.1,0,.1-.2,0-.2,0h0c0,.1,0,.1,0,.1h0c0,.1,0,0,0,0,0-.1.2,0,.2.1s0,.1,0,.1v.2h0c0,.2,0,.2,0,.2h0c0,.2-.2.2-.2.2h0c0,.1-.2.1-.2.1h.3c0-.1,0-.1,0-.1h0c0,.1,0,.1,0,.1h0c0,.1,0,.1,0,.1v.4h0c.2,0,.2.1,0,.2s0,.3,0,.3h0v.2h0v.2c0-.1-.3,0-.3,0,0-.1-.4-.1-.4,0,0,.1,0,.1,0,.1h0c0,.2,0,.2,0,.2v.2h-.2v.3h-.2c-.6,0-1.2-.2-1.6-.6h0c0-.1.2-.1.2-.1h0c0-.1.3-.1.3-.1,0-.1.2-.1.2,0s0,0,0,0h0c0-.1,0-.1,0-.1v-.2h0v-.2c.2-.1.2-.3.2-.3h0v-.2c0,0,0-.1,0-.1s0-.1,0-.1c.3.3.3,0,.3,0h-.2v-.4h-.2c0-.1,0,0,0,0v.2h0c0,.1,0,.1,0,.1v.4h0c0,.1,0,.1,0,.1h0v.2c0,0-.2.1-.2.1v.2c0,0-.2.4-.2.4-.2-.2-.3-.4-.4-.6v-.2c0-.1,0-.2,0-.1,0,.2,0-.3,0-.3h0c0-.1,0-.1,0-.1v-.6h.2c0,.1,0,.2,0,.2h0c0,.1,0,.1,0,.1h0v.2h0c0-.2.3-.2.4-.1v-.2c0-.1,0-.2,0-.2,0,.1.2-.2.2-.2,0,0,0,.1,0,0,0-.2,0-.2,0-.2,0-.2.2-.1.2-.1v-.2h-.2c0,.2-.2,0,0,0s.2-.1.2-.1h0c0-.1,0-.1,0-.1h0c0-.1.2-.1.2-.1h.2v-.2h.2l.3-.2h0c-.2-.1,0-.2,0-.2v-.2h0v-.3c-.2,0,0,0,0,0h0ZM-98.8,198.1c-1.1,0-2.2.3-3.2.8-.7.4-1.4.8-2,1.4l-1.4-1.5c.7-.7,1.6-1.3,2.5-1.7h0c1.3-.6,2.7-1,4.1-1v2ZM-104.1,194.7h0c1.6-.8,3.5-1.3,5.3-1.3v2.3c-1.5,0-3,.4-4.3,1h0c-.9.5-1.8,1.1-2.5,1.8l-1.6-1.6c.9-.9,2-1.6,3.1-2.2ZM-107.4,197.1h0l1.6,1.6c-.7.8-1.4,1.7-1.8,2.6-.6,1.3-1,2.7-1,4.2h-2.3c0-1.9.5-3.6,1.3-5.3.5-1.1,1.3-2.1,2.2-3.1Z"/>
      <path class="st2" d="M-113.9,202.7c.3-.6.8-1.2,1.4-1.7,1.3-1,2.7-2.3,2.8-4-.4,1.2-1.8,1.7-2.6,2.5-.5.4-.8,1-1,1.5h0c0-.5.3-.9.5-1.4.4-1.3.3-2.8,1.5-3.7h0c-.6.2-1.2.6-1.7,1.1-1,1.1-.9,2.8-.8,4.2,0,.7-.1,1.1-.1,1.5Z"/>
      <polygon class="st2" points="-90.9 210.7 -91 210.7 -91 210.8 -90.9 210.8 -90.9 210.7"/>
      <polygon class="st2" points="-92.7 200.3 -92.7 200.4 -92.6 200.4 -92.7 200.3"/>
      <path class="st2" d="M-91.6,201.2s0,0,0,0c0-.1,0-.2-.2-.2s0-.1,0-.1c0-.1,0-.1,0-.1h0c0,.1,0,.1,0,.1q0,.1,0,.1t0,.1c0,0,0,.1,0,.1h.2Z"/>
      <rect x="-93.4" y="209.4" width="0" height=".2"/>
      <path class="st2" d="M-91.4,202.1h0c0-.2,0-.3,0-.3v-.2c0,0-.2-.1-.2-.1h0c0-.1-.2-.1-.2-.1,0,.1,0,.1,0,.1,0,0,0,.1,0,.1s0,0,.2.1v.2c0,0,0,0,0,.2q0-.1,0,0Z"/>
      <path class="st2" d="M-93.3,202h-.2s0,.1,0,.1c0,0,0,.1,0,.2,0,.1,0,0,0,0,0,0,0,.3,0,.2,0,0-.2.1-.2.2s.5.1.4,0h0c0-.1.3-.1.4-.1s0,0,0-.1-.2-.1-.2-.1h-.3c-.1,0,0-.1,0-.1,0,0,0-.1,0-.2,0-.1,0-.2,0-.1s0,.1.2,0c0,0,0-.2,0-.2s0-.1,0-.1h0c0-.1,0,0-.2,0,0,0,0,.2-.2.3Z"/>
      <path class="st2" d="M-91.8,207q0,0,0-.1h0c0-.1-.2,0-.2,0,0,.1.2.1.2.1Z"/>
      <rect x="-92.9" y="201.5" width="0" height=".1"/>
      <polygon class="st2" points="-96.7 197.1 -96.7 197.2 -96.6 197.3 -96.6 197.2 -96.7 197.1"/>
      <polygon class="st2" points="-92.9 201.5 -92.9 201.4 -93.1 201.4 -93.1 201.5 -92.9 201.5"/>
      <path class="st2" d="M-91,203.2c0,0,0-.2,0-.2,0,0,0-.2,0-.2s0-.1,0-.2c0,0,0-.2,0-.3q0-.1,0-.2h0v.2h0c0,.1,0,.2,0,.2v.2s0,0,0,.1v.2h0v.3h0c0,.1,0,.2,0,.2,0,0,0-.3,0-.3Z"/>
      <polygon class="st2" points="-97.7 210 -97.7 210 -97.6 210.1 -97.5 210 -97.6 209.9 -97.7 210"/>
      <path class="st2" d="M-87.8,209.8h0c0-.1,0-.1,0-.1,0,0,0,.1,0,.1Z"/>
      <polygon class="st2" points="-91 204.4 -90.9 204.5 -90.9 204.4 -91 204.4"/>
      <path class="st2" d="M-87.4,209.5h0c0-.1,0-.1,0-.1h0Z"/>
      <path class="st2" d="M-96.9,196.7h0c0,.1,0,0,0,0v.2h0v-.2h0Z"/>
      <path class="st2" d="M-88.2,208.1h0q0,0,0,0c0,0,0,0,0,0h0c0-.1,0,0-.2,0h.2Z"/>
      <path class="st2" d="M-88,210s0,0,0-.1h0c0-.1,0-.1,0-.1,0,.1,0,.3,0,.2Z"/>
      <polygon class="st2" points="-96.7 196.5 -96.7 196.5 -96.8 196.6 -96.7 196.6 -96.7 196.5"/>
      <path class="st2" d="M-87.4,209.3c0,0,0,0,0,0h0q0,0,0,0t0,0v-.2h0c0,0,0,.2,0,.2h0Z"/>
      <polygon class="st2" points="-91 204.1 -90.9 204.1 -90.9 204 -90.9 204 -91 204.1"/>
      <polygon class="st2" points="-96.1 209.5 -96.1 209.5 -96.2 209.5 -96.2 209.6 -96.1 209.5"/>
      <polygon class="st2" points="-70.7 265.5 -67.7 265.5 -67.7 250.7 -70.8 250.7 -74.2 256.7 -77.5 250.7 -80.7 250.7 -80.7 265.5 -77.7 265.5 -77.7 256.2 -74.2 262.3 -70.7 256.2 -70.7 265.5"/>
      <polygon class="st2" points="-55.9 253.3 -55.9 250.7 -65.4 250.7 -65.4 265.5 -55.9 265.5 -55.9 262.8 -62.4 262.8 -62.4 259.3 -56.6 259.3 -56.6 256.7 -62.4 256.7 -62.4 253.3 -55.9 253.3"/>
      <rect x="-102.2" y="229.3" width="3.3" height="16.2"/>
      <path class="st2" d="M-57,237c1.1-.9,1.9-1.6,1.9-3.6s-.7-4.2-4.9-4.2h-6.5v16.2h6.9c2.7,0,5.2-1.1,5.2-4.4,0-3.1-1.8-3.5-2.6-4ZM-63.2,232.1h2.7c2.8,0,2.9,3.7.2,3.7h-2.9v-3.7ZM-59.6,242.5h-3.6v-3.8h3.4c2.7,0,2.8,3.8.2,3.8Z"/>
      <polygon class="st2" points="-116.5 250.7 -116.5 265.5 -107.4 265.5 -107.4 262.8 -113.5 262.8 -113.5 250.7 -116.5 250.7"/>
      <polygon class="st2" points="-37.5 253.4 -37.5 265.5 -34.5 265.5 -34.5 253.4 -30.8 253.4 -30.8 250.7 -41.3 250.7 -41.3 253.4 -37.5 253.4"/>
      <polygon class="st2" points="-42.8 242.5 -49.4 242.5 -49.4 229.3 -52.7 229.3 -52.7 245.4 -42.8 245.4 -42.8 242.5"/>
      <path class="st2" d="M-79.1,245.4l1.2-3.5h5.6l1.2,3.5h3.3l-5.7-16.2h-3.2l-5.9,16.2h3.5ZM-75.1,233.9l1.8,5h-3.5l1.7-5Z"/>
      <path class="st2" d="M-94,258.4c0-4.3-2.3-7.9-6.7-7.9s-6.8,3.4-6.8,7.9,2.6,7.5,6.8,7.5c4.4-.1,6.6-3.3,6.7-7.5ZM-104.3,258.3c0-2.8,1.3-4.8,3.6-4.8h0c2.3,0,3.5,2.2,3.5,4.8s-1.2,4.5-3.5,4.5c-2.2.1-3.5-1.7-3.6-4.5Z"/>
      <path class="st2" d="M-113.8,241.9h5.6l1.2,3.5h3.3l-5.7-16.2h-3.2l-5.9,16.2h3.4l1.3-3.5ZM-111.1,233.9l1.8,5h-3.5l1.7-5Z"/>
      <polygon class="st2" points="-51.1 256.7 -45.1 265.5 -42.6 265.5 -42.6 250.7 -45.5 250.7 -45.5 259.2 -51.4 250.7 -54.1 250.7 -54.1 265.5 -51.1 265.5 -51.1 256.7"/>
      <polygon class="st2" points="-118.3 253.3 -118.3 250.7 -127.8 250.7 -127.8 265.5 -118.3 265.5 -118.3 262.8 -124.8 262.8 -124.8 259.3 -119.1 259.3 -119.1 256.7 -124.8 256.7 -124.8 253.3 -118.3 253.3"/>
      <path class="st2" d="M-129,231h0Z"/>
      <polygon class="st2" points="-132 250.7 -135.3 260.6 -138.4 250.7 -141.7 250.7 -136.8 265.5 -133.9 265.5 -128.9 250.7 -132 250.7"/>
      <path class="st2" d="M-141.4,240.3v-11h-3.2v10.3c0,4.2-5.9,4.2-5.9,0v-10.3h-3.2v11c0,7.5,12.3,7.5,12.3,0Z"/>
      <path class="st2" d="M-134.2,242.8c-1.8,0-4.1-2-4.1-2l-2.1,2.4s2.2,2.4,5.8,2.4,5.7-2.4,5.7-4.8c0-5.7-7.5-4.3-7.5-7.6s1-1.3,1.9-1.3c1.6,0,3.4,1.5,3.4,1.5l1.9-2.6s-2-2-5.2-2-5.4,2.2-5.4,4.8c0,5.7,7.6,4.3,7.5,7.4.1,1.4-1,1.8-1.9,1.8Z"/>
      <path class="st2" d="M-160.8,250.7h-4.6v14.8h5.3c8.2,0,9.5-14.8-.7-14.8ZM-160.5,262.8h-1.9v-9.4h1.1c6.6,0,5.3,9.4.8,9.4Z"/>
      <path class="st2" d="M-155.4,231h0Z"/>
      <path class="st2" d="M-89.2,261h2c7.2,0,6.7-10.3.2-10.3h-5.4v14.8h3.1v-4.5h.1ZM-89.2,253.4h1.8c3,0,3.4,4.8,0,4.8h-1.8v-4.8Z"/>
      <polygon class="st2" points="-142.4 253.3 -142.4 250.7 -151.9 250.7 -151.9 265.5 -142.4 265.5 -142.4 262.8 -149 262.8 -149 259.3 -143.2 259.3 -143.2 256.7 -149 256.7 -149 253.3 -142.4 253.3"/>
      <polygon class="st2" points="-124.4 245.4 -121.1 245.4 -121.1 232.3 -117.1 232.3 -117.1 229.3 -128.5 229.3 -128.5 232.3 -124.4 232.3 -124.4 245.4"/>
      <path class="st2" d="M-155.2,240.8c0-5.7-7.5-4.3-7.5-7.6s1-1.3,1.9-1.3c1.6,0,3.4,1.5,3.4,1.5l1.9-2.6s-2-2-5.2-2-5.4,2.2-5.4,4.8c0,5.7,7.6,4.3,7.5,7.4-.1,1.3-1.2,1.7-2.1,1.7-1.8,0-4.1-2-4.1-2l-2.1,2.4s2.2,2.4,5.8,2.4c4.3.2,5.9-2.2,5.9-4.7Z"/>
      <polygon class="st2" points="-30.9 242.5 -38 242.5 -38 238.7 -31.7 238.7 -31.7 235.8 -38 235.8 -38 232.1 -30.9 232.1 -30.9 229.3 -41.3 229.3 -41.3 245.4 -30.9 245.4 -30.9 242.5"/>
      <polygon class="st2" points="-93 235.8 -86.5 245.4 -83.8 245.4 -83.8 229.3 -86.9 229.3 -86.9 238.6 -93.4 229.3 -96.3 229.3 -96.3 245.4 -93 245.4 -93 235.8"/>
      <path class="st2" d="M-35.1,284c-1.4-.8-4.5-1.6-5.3-1.8-1.7-.4-3.2-.8-4.4-1.5s-2.2-1.2-2.2-3.3,1.4-3.4,5-3.4,4.7,3.5,4.7,3.5l6.1-.2s-.2-8.7-11.1-8.7-11,6.2-11,9.8.6,3.5,2,5.2c2.1,2.5,5.2,3.1,6.9,3.8,1.9.8,3.1,1,5.2,2,1.8.8,2.5,1.4,2.5,3.1,0,2.5-2.8,3.6-5.3,3.6-6,0-5.6-4.7-5.6-4.7l-6.1.2h0s-1,9.7,11.6,9.7,11.6-6,11.6-9.2c0-5.3-2.9-7.1-4.6-8.1Z"/>
      <path class="st2" d="M-92.4,269l-11.5,31.6h6.7l2.2-6.7h11.5l2.2,6.7h6.8l-11.3-31.6h-6.6ZM-93.4,288.8l4-12.2,4.1,12.2h-8.1Z"/>
      <polygon class="st2" points="-67 269.5 -73.1 269.5 -73.1 300.5 -55 300.5 -55 295 -67 295 -67 269.5"/>
      <path class="st2" d="M-149.6,283.8v5.2h7.5s-1,6.7-7.9,6.7-9.3-5.6-9.3-10.7,4-10.8,8.9-10.8,7.8,4.6,7.8,4.6l6.4-.5s-2.5-9.7-13.9-9.7-15.6,8.1-15.6,16.5,8,16.1,15.3,16.1c15.5,0,15.2-17.2,15.2-17.4h-14.4Z"/>
      <path class="st2" d="M-102.4,283.6c-.2-1.5-.6-3-1.2-4.3l-6,2.7c.4.8.6,1.6.7,2.5l6.5-.9Z"/>
      <path class="st2" d="M-104.2,278.2c-.7-1.3-1.6-2.5-2.7-3.6l-4.7,4.7c.6.6,1.1,1.3,1.5,2l5.9-3.1Z"/>
      <path class="st2" d="M-107.7,273.8c-1.1-1-2.4-1.8-3.8-2.4h0l-2.6,6.1c.8.3,1.5.8,2.2,1.4l4.2-5.1Z"/>
      <path class="st2" d="M-112.7,271c-1.4-.5-2.9-.8-4.4-.8l-.3,6.6c.9,0,1.7.2,2.5.5l2.2-6.3Z"/>
      <path class="st2" d="M-118,276.8l-.2-6.6c-1.5.1-3,.3-4.4.8l2.1,6.3c.8-.3,1.6-.5,2.5-.5Z"/>
      <path class="st2" d="M-121.2,277.5l-2.6-6.1c-1.4.6-2.7,1.4-3.8,2.4h0l4.3,5.1c.6-.6,1.4-1.1,2.1-1.4Z"/>
      <path class="st2" d="M-123.8,279.3l-4.6-4.7c-1.1,1.1-2,2.3-2.7,3.6l5.8,3.2c.3-.8.8-1.5,1.5-2.1Z"/>
      <path class="st2" d="M-133,283.5l6.6.9c0-.9.4-1.7.7-2.5l-6-2.7c-.7,1.4-1.1,2.8-1.3,4.3Z"/>
      <path class="st2" d="M-126.5,285.1l-6.6-.4c-.1,1.5.1,3,.4,4.5l6.4-1.6c0-.8-.2-1.7-.2-2.5Z"/>
      <path class="st2" d="M-126,288.3l-6.3,2c.5,1.4,1.1,2.8,2,4l5.4-3.8c-.5-.6-.9-1.4-1.1-2.2Z"/>
      <path class="st2" d="M-124.5,291.1l-5.1,4.2c1,1.2,2.1,2.2,3.3,3l3.7-5.5c-.7-.5-1.4-1-1.9-1.7Z"/>
      <path class="st2" d="M-122,293.2l-3.3,5.8c1.3.7,2.7,1.3,4.2,1.6h0l1.5-6.5c-.9-.2-1.7-.5-2.4-.9Z"/>
      <path class="st2" d="M-119,294.2l-1,6.6c1.5.2,3,.2,4.5,0h0l-1-6.6c-.8.2-1.6.2-2.5,0Z"/>
      <path class="st2" d="M-115.8,294.1l1.5,6.5c1.5-.3,2.9-.9,4.2-1.6h0l-3.3-5.8c-.7.4-1.5.7-2.4.9Z"/>
      <path class="st2" d="M-110.9,291.1c-.5.7-1.2,1.2-1.9,1.7l3.7,5.5c1.3-.8,2.4-1.9,3.3-3h0l-5.1-4.2Z"/>
      <path class="st2" d="M-109.3,288.3c-.3.8-.7,1.6-1.1,2.3l5.4,3.8c.9-1.2,1.5-2.6,2-4l-6.3-2.1Z"/>
      <path class="st2" d="M-102.3,284.7h0l-6.6.3c0,.9,0,1.7-.2,2.5l6.4,1.6c.3-1.3.5-2.8.4-4.4Z"/>
    </g>
  </g>
  <g id="_x31_3_Climate_Action" class="st1">
    <g>
      <path d="M-126,25.2c.2.4.5.7,1,.9.5.2,1,.4,1.5.4s.5,0,.7-.1.5-.2.7-.3c.2-.1.4-.3.6-.4.2-.2.3-.3.4-.5.2-.3.3-.6.4-.9,0-.3,0-.6,0-1v-.4h-1.8v1c0,.1,0,.3-.2.5s-.4.3-.8.3-.7-.1-.9-.4c0-.2-.2-.4-.3-.6v-6.9c0-.3,0-.6.3-.9.2-.2.5-.4.8-.4s.7.1.8.4c.2.2.3.5.3.9v.7h1.8v-.7c0-.9-.3-1.6-.9-2.2-.6-.6-1.3-.9-2.1-.9s-.9.1-1.3.4c-.4.2-.7.5-1,.8-.2.3-.4.6-.4.9,0,.3,0,.6,0,.9v6.4c0,.4,0,.7,0,1,0,.4.1.8.3,1.1Z"/>
      <polygon points="-114.1 24.6 -117.7 24.6 -117.7 13.9 -119.4 13.9 -119.4 26.4 -114.1 26.4 -114.1 24.6"/>
      <rect x="-113.7" y="13.9" width="1.8" height="12.5"/>
      <polygon points="-108.6 18.8 -106.8 24.1 -105.9 24.1 -104.1 18.8 -104.1 26.4 -102.3 26.4 -102.3 13.9 -104 13.9 -106.3 20.5 -108.7 13.9 -110.4 13.9 -110.4 26.4 -108.6 26.4 -108.6 18.8"/>
      <path d="M-99.6,23.7h2.3l.5,2.7h1.9l-2.8-12.5h-1.5l-2.8,12.5h1.9l.5-2.7ZM-98.4,17.5l.8,4.6h-1.7l.9-4.6Z"/>
      <polygon points="-93.2 26.4 -91.5 26.4 -91.5 15.5 -89.3 15.5 -89.3 13.9 -95.3 13.9 -95.3 15.5 -93.2 15.5 -93.2 26.4"/>
      <polygon points="-83.1 24.6 -86.7 24.6 -86.7 20.9 -83.5 20.9 -83.5 19.2 -86.7 19.2 -86.7 15.5 -83.1 15.5 -83.1 13.9 -88.5 13.9 -88.5 26.4 -83.1 26.4 -83.1 24.6"/>
      <path d="M-124.8,40.9h2.3l.5,2.7h1.9l-2.8-12.5h-1.5l-2.8,12.5h1.9l.5-2.7ZM-123.7,34.7l.8,4.6h-1.7l.9-4.6Z"/>
      <path d="M-113.5,34.7v-.7c0-.9-.3-1.6-.9-2.2-.6-.6-1.3-.9-2.1-.9s-.9.1-1.3.4c-.4.2-.7.5-1,.8-.2.3-.4.6-.4.9,0,.3,0,.6,0,.9v6.4c0,.4,0,.7,0,1s.2.6.4,1,.5.7,1,.9,1,.4,1.5.4.5,0,.7,0,.5-.2.7-.3.4-.3.6-.4c.2-.2.3-.3.4-.5.2-.3.3-.6.4-.9,0-.3,0-.6,0-1v-.4h-1.8v1c0,0,0,.3-.2.5s-.4.3-.8.3-.7,0-.9-.4c0-.2-.2-.4-.3-.6v-6.8c0-.3,0-.6.3-.9.2-.2.5-.4.8-.4s.7,0,.8.4c.2.2.3.5.3.9v.7h1.7Z"/>
      <polygon points="-108.8 43.6 -108.8 32.8 -106.6 32.8 -106.6 31.1 -112.6 31.1 -112.6 32.8 -110.5 32.8 -110.5 43.6 -108.8 43.6"/>
      <rect x="-105.7" y="31.1" width="1.8" height="12.5"/>
      <path d="M-102.6,34.2v6.4c0,.3,0,.6,0,.8s0,.5.3.9c0,.2.2.4.4.5.2.2.4.3.6.5.2,0,.5.2.8.3s.6,0,.9,0c.5,0,1,0,1.4-.4.4-.2.8-.5,1-.9.2-.3.4-.7.4-1,0-.3,0-.6,0-1v-6.4c0-.4,0-.8,0-1.1s-.3-.7-.6-1-.6-.6-1-.8c-.4-.2-.8-.3-1.3-.3s-.9.1-1.4.4c-.4.2-.8.5-1.1.9-.2.3-.3.6-.4.9,0,.5-.1.8-.1,1.2ZM-100.8,40.5v-6.8c0,0,0-.3,0-.4,0,0,.2-.3.4-.4s.4-.2.6-.2c.4,0,.7.2,1,.5h0c0,0,.2.3.2.4v7.4c0,0,0,.3-.2.4,0,0-.2.3-.4.4s-.4,0-.6,0c-.4,0-.7,0-.9-.4-.2-.3-.3-.5-.3-.6v-.2c.1,0,.1,0,.1-.2Z"/>
      <polygon points="-90.5 38.7 -93.3 31.1 -95 31.1 -95 43.6 -93.2 43.6 -93.2 36 -90.4 43.6 -88.7 43.6 -88.7 31.1 -90.5 31.1 -90.5 38.7"/>
      <polygon points="-162.4 17 -162.4 21.5 -158.1 18.3 -158.1 43.8 -153.9 43.8 -153.9 13.8 -158.1 13.8 -162.4 17"/>
      <path d="M-150.2,39.8c.1.3.3.6.4,1,.3.7,1,1.4,2.1,2.2,1.1.7,2.2,1.1,3.4,1.1s2.8-.4,4-1.3c1.2-.9,2-2.1,2.4-3.5.1-.5.1-.8.1-1.1v-5.2c0-1.1-.2-2-.6-2.7-.4-.7-1-1.4-2-2.1,1.7-1,2.5-2.5,2.5-4.4v-3.5c0-.7-.1-1.3-.2-2-.1-.6-.5-1.3-.9-2-.4-.7-1.2-1.3-2.1-1.9-1-.5-2-.8-3-.8-1.9,0-3.5.6-4.6,1.9-1.2,1.3-1.8,2.9-1.8,4.7v2.2h4.3v-2.2c0-.7.2-1.3.5-1.7.4-.5.9-.7,1.7-.7s.6.1.8.2.4.3.6.4c.2.2.3.4.4.5s.1.3.1.4c.1.2.1.5.1.9v3.6c0,1.7-.9,2.5-2.7,2.5h-.8v3.8h1.6c.3,0,.6.1.8.2.3.1.5.3.7.6.2.3.3.7.4,1.3v4.6c0,.8-.2,1.5-.5,2s-.9.8-1.7.8-1.3-.3-1.6-.8-.4-.9-.5-1.3v-2.5h-4.3v2.9c0,.3.1.6.1.8.1.5.2.8.3,1.1Z"/>
      <path d="M-95.9,66.8c-21.6-.2-43.3,9.6-56,28.2,24.5,36.1,83.2,39.2,108.8,0-12.3-18.9-32.5-28-52.8-28.2ZM-113,78.8c.7,0,.6.9-.2,1.5-.8.6-1.5.7-1.5.2-.1-.5,1.2-1.7,1.7-1.7ZM-116.9,84.2c.4-.9,1.3-1.5,2-1.6h.3c.4,0,.3.2-1,1.5-1.6,1.5-1.8,1.7-1.8,1.3s.2-.7.5-1.2ZM-104.2,107.1c-.3.4-.6.9-.6,1.2s0,.7-.3.9-.3.5-.3.6c0,.3-.9,1.3-1.2,1.3s-.2,0-.3.2c0,0-.5.3-1.1.3-.9,0-1,0-1.3-.4h0c-.2-.3-.3-.9-.3-1.8s0-1.4-.5-1.9c-.3-.3-.5-.8-.6-1s0-.7-.2-1-.3-.6-.8-.8c-.4-.2-.7-.4-.7-.5s-.4-.6-.8-1q-.8-.8-1.7-.7c-.5,0-1.1.3-1.3.4s-.6.3-1,.3c-.6,0-.7,0-1-.7-.2-.4-.3-.9-.3-1.1s0-.7-.3-1c-.4-.9-.7-3.2-.8-5.5,0-1.8,0-1.9.5-2.8.3-.5.6-1,.6-1.1,0-.2,1.4-.7,1.7-.6,0,0,.7,0,1.3.2.6,0,1.4.3,1.7.5.3.2.7.3.9.3s.5,0,.7.3c.2.2.6.3.8.3s.5,0,.6.2.4.2.8.3c1.3.2,3.1-.9,3.1-1.9s-.7-1.4-1.6-1.4-.8,0-1-.3c0-.2-.6-.3-1-.3s-.9-.2-1.2-.4c-.6-.5-2.1-.6-2.6,0s-.6.3-.8.3-.7,0-1,.3-1,.3-1.5.4h-1c0,0,0-.5,0-.5,0-.5.2-.6,1-.7,1.7-.2,2.7-.6,2.8-1.2,0-.4.3-.7,1.3-1.5,0,0,.7-.3,1.3-.5,1-.3,1.2-.3,2.4,0,1.6.4,2.3.3,3.1-.6.4-.3.9-.8,1.2-1.1.6-.5.6-.7.2-1-.5-.4-1.7,0-2.4.6-.5.6-.7.7-1.5.6-1.1,0-2.6-.6-2.7-1.1-.3-.9,1.3-1.7,3.8-1.8,1.1,0,2-.2,2.2-.3.3-.2,2.9-.5,2.9-.3s-.4.4-.8.6c-.7.4-.8.5-.8,1.1s0,.7.4.8c.4,0,2-.6,2.8-1.3.3-.3.8-.5,1-.5s.5-.3.6-.7c.2-.5,0-.6-.5-1.2-.9-.8-1.4-1.5-1.4-2.2,0-1.2-.3-1.4-3.3-1.5-1.5,0-2.6,0-2.3-.2.2,0,.5-.2.7-.3,0-.2.4-.3.6-.3s.5,0,.7-.3c.2-.2.6-.3.8-.3s.7,0,1-.3c.3-.2,1.1-.4,1.7-.5s1.5-.3,2-.4c.6,0,1.8-.2,2.9-.2s2.3,0,2.8.2c.4,0,1.2.3,1.8.4,1.2.2,3,.7,3.7,1.1.3.2.7.3.9.3s.5,0,.6.3c.2.2.5.3.7.3s.4,0,.4.2.2.3.5.4.6.3.7.4.7.6,1.3,1c1.1.8,3.8,3.3,3.8,3.5s.4.7,1,1.4c.5.7,1,1.4,1,1.5s0,.3.2.5c.8.8,2.3,5,2.3,6.2s-1.2,1.8-2.1.8c-1.3-1.5-2.5,0-1.4,1.9.2.3.2.5,0,.7-.3.4-1.8,1.2-2.3,1.2s-1.4,1.1-1.5,2,0,2.2.6,2.6c.3.2.4,1.2.2,1.2s-1.3-.8-2-1.5c-.6-.5-.9-1.1-1.8-3,0-.3-.3-.8-.4-1.1-.2-.9-1-1.6-1.9-1.6s-1.5.4-1.6,1.7c0,.8,0,1.4-.4,1.7q-.5.6-1,.2c-1-.8-1.3-1-1.6-1s-.3,0-.5-.3c0-.2-.5-.3-.8-.3-1,0-2.3-.8-2.8-1.8-.2-.5-.4-1-.5-1.1,0-.2-1.8-1.5-2.1-1.5s-.6-.3-1.1-.7c-1.2-.8-1.6-.7-1.6,0s.3.9,1.6,2.1c1.7,1.7,2.1,2.4,1.5,3-.3.4-1.5,1-1.9,1s-.8-.7-1.7-1.5c-1.1-1.1-1.6-1.5-1.9-1.4-.3,0-.5.2-.5.6s0,.7.2.8c0,0,.2.4.2.6,0,.6,1.7,2.8,2.2,2.8s.4.2.7.4c.7.6.5,1.2-.6,2.3-.8.8-.9.9-1,2.5,0,.9-.2,1.7-.3,1.8s-.3.5-.3.8c0,.4-.4,1-.7,1.4ZM-79,100c0,.2-.4.2-.5,0-.2-.2,0-.3,0-.4h.2c.2,0,.3.2.2.3ZM-91.6,97.4s0,0-.3.2c-.2,0-.3,0-.3,0s0-.2.3-.2.3,0,.3,0ZM-100.5,102.6c-.2.3-.4.8-.5,1.1,0,.4-.2.2-.2-.6s0-1.2.4-1.5.4-.4.5-.4c.2,0,0,.9-.2,1.4ZM-84.3,113.4s-.2,0-.5.3c-.2,0-.6.4-.9.5s-.5.3-.5.4-.3.2-.6.3c-.3,0-.7.3-.8.4,0,.2-.4.3-.5.3-.2,0-.5,0-.7.2-.5.3-1.8.7-3.6,1.1-1.5.4-7.1.5-7.8.3h0c-.2,0-.9-.2-1.5-.3-1.2-.2-1.4-.3-1.4-1.1s1.1-1.8,1.6-1.8.5,0,.7-.3c.8-.6,5.2-.2,6.9.6.3.2.7.3,1,.3s.6,0,.9.3c.7.3,1.8.5,2.3.4.2,0,.7-.5,1.2-.9,1.1-.9,2.8-1.6,3.6-1.5.3,0,.5,0,.6.3,0,0,0,.2,0,.2ZM-76.4,103.5c-.6,1.3-1.1,2.3-1.5,2.9-.2.3-.5.8-.6,1s-.3.5-.4.5-.4.5-.7.9c-.3.5-.7.8-.7.8,0,0-.2,0-.2.3s-.2.3-.3.3c-2,0-2.4,0-2.5-.3s-.8-.5-1.2,0c-.2.2-.5.3-.8.3s-.5,0-.5-.6,0-.7-.3-.9-.3-.8-.3-1.5c0-1.2.5-2.2,1.4-3,.5-.4,3-1.3,3.5-1.3s3.4-1,4.1-1.6c.2-.2.3-.2.5-.2s.4.3.6.9c.2.8.2,1,0,1.6ZM-75,98.3c-.2,0-.4,0-.4-.2-.9-1.4-1.1-3.1-.6-3.8.2-.2.3-.7.3-1,0-.5,0-.7.3-.6,0,0,.2,0,.4.3.4.4.5,5.3,0,5.3Z"/>
    </g>
  </g>
  <g id="_x31_4_Life_Below_Water" class="st1">
    <g>
      <polygon points="54.7 24.6 51.1 24.6 51.1 13.9 49.3 13.9 49.3 26.4 54.7 26.4 54.7 24.6"/>
      <rect x="55.3" y="13.9" width="1.8" height="12.5"/>
      <polygon points="60.3 21 63.4 21 63.4 19.3 60.3 19.3 60.3 15.5 63.9 15.5 63.9 13.9 58.5 13.9 58.5 26.4 60.3 26.4 60.3 21"/>
      <polygon points="69.9 24.6 66.3 24.6 66.3 20.9 69.4 20.9 69.4 19.2 66.3 19.2 66.3 15.5 69.9 15.5 69.9 13.9 64.5 13.9 64.5 26.4 69.9 26.4 69.9 24.6"/>
      <path d="M54.2,42.8c.6-.6.9-1.3.9-2.2v-1.5c0-.9-.4-1.6-1.1-2.1.8-.4,1.1-1.1,1.1-2v-1c0-.8-.2-1.5-.6-1.9-.4-.4-.8-.7-1.1-.8-.3-.2-.7-.2-1.1-.2h-2.9v12.5h2.8c.8,0,1.5-.3,2-.8ZM51.1,32.8h1c.4,0,.7,0,.9.4.2.2.3.5.3.9v.8c0,.4,0,.8-.3,1s-.5.4-.9.4h-1.1v-3.5h0ZM51.1,37.8h1c.4,0,.7,0,.9.4.2.2.3.5.3.9v1.5c0,.4,0,.7-.3.9s-.5.4-.9.4h-1v-4.1Z"/>
      <polygon points="62.2 32.8 62.2 31.1 56.9 31.1 56.9 43.6 62.2 43.6 62.2 41.8 58.6 41.8 58.6 38.2 61.8 38.2 61.8 36.5 58.6 36.5 58.6 32.8 62.2 32.8"/>
      <polygon points="62.9 31.1 62.9 43.6 68.3 43.6 68.3 41.8 64.7 41.8 64.7 31.1 62.9 31.1"/>
      <path d="M69,32.3h0c-.2.3-.3.6-.4.9,0,.3,0,.6,0,1v6.4c0,.3,0,.6,0,.8,0,.2,0,.5.3.9,0,.2.2.4.4.5.2.2.4.3.6.5.2,0,.5.2.8.3s.6,0,.9,0c.5,0,1,0,1.4-.4.4-.2.8-.5,1-.9.2-.3.4-.7.4-1,0-.3,0-.6,0-1v-6.4c0-.4,0-.8,0-1.1s-.3-.7-.6-1c-.3-.3-.6-.6-1-.8-.4-.2-.8-.3-1.3-.3s-.9.1-1.4.4c-.4.4-.8.7-1.1,1.1ZM70.3,40.5v-6.8c0,0,0-.3,0-.4,0,0,.2-.3.4-.4s.4-.2.6-.2c.4,0,.7.2,1,.5h0c0,0,.2.3.2.4v7.4c0,0,0,.3-.2.4,0,0-.2.3-.4.4s-.4,0-.6,0c-.4,0-.7,0-.9-.4-.2-.3-.3-.5-.3-.6v-.2c.1,0,.1,0,.1-.2Z"/>
      <polygon points="78.9 43.6 80.4 36 81.8 43.6 83.5 43.6 85.3 31.1 83.4 31.1 82.5 38.7 81 31.1 79.7 31.1 78.2 38.7 77.3 31.1 75.4 31.1 77.3 43.6 78.9 43.6"/>
      <polygon points="91.1 43.6 92.5 36 94 43.6 95.7 43.6 97.4 31.1 95.5 31.1 94.6 38.7 93.2 31.1 91.8 31.1 90.4 38.7 89.5 31.1 87.6 31.1 89.4 43.6 91.1 43.6"/>
      <path d="M98.9,43.6l.5-2.7h2.3l.5,2.7h1.9l-2.8-12.5h-1.5l-2.8,12.5h1.9ZM100.6,34.7l.8,4.6h-1.7l.9-4.6Z"/>
      <polygon points="105.7 43.6 107.4 43.6 107.4 32.8 109.6 32.8 109.6 31.1 103.5 31.1 103.5 32.8 105.7 32.8 105.7 43.6"/>
      <polygon points="110.6 43.6 115.9 43.6 115.9 41.8 112.3 41.8 112.3 38.2 115.5 38.2 115.5 36.5 112.3 36.5 112.3 32.8 115.9 32.8 115.9 31.1 110.6 31.1 110.6 43.6"/>
      <path d="M121.2,37.9c1-.6,1.5-1.5,1.5-2.7v-1.2c0-.8-.3-1.5-.9-2.1s-1.3-.9-2.1-.9h-3.1v12.5h1.8v-5.4h1.1l1.7,5.4h1.9l-1.9-5.6ZM120.9,35.2c0,.2,0,.4,0,.6,0,.2,0,.3-.2.5h0c-.2.3-.6.4-.9.4h-1.3v-3.9h1.3c.4,0,.7,0,.9.4.2.2.3.5.3.9,0,0,0,1.1,0,1.1Z"/>
      <polygon points="11.3 17 11.3 21.5 15.6 18.3 15.6 43.8 19.8 43.8 19.8 13.8 15.6 13.8 11.3 17"/>
      <polygon points="35.5 43.8 35.5 39.2 37.6 39.2 37.6 35.2 35.5 35.2 35.5 26.7 31.2 26.7 31.2 35.2 27 35.2 33.4 13.8 28.8 13.8 22.6 35.2 22.6 39.2 31.2 39.2 31.2 43.8 35.5 43.8"/>
      <path d="M95.8,72.7c-6.6,4.4-13.3,7.6-21.4.2-6.9,6-14,4.6-21.2-.3-5.4,4.3-11.1,6.7-18.4,2.5l.2,4.2c7.9,6.2,12.8,2.4,17.7-1.4,9.4,6.9,15.7,3.6,21.9,0,8.3,6.3,15.2,4.9,21.4.3,5,4.2,10.6,6.2,18.2,1l-.3-4c-8.8,4.6-13.2.7-18.1-2.4Z"/>
      <path d="M113.9,62.8h0Z"/>
      <path d="M83.6,91.9c-10.1.2-20,5.6-29.8,12.9-4.3-7.5-10-12.8-19.1-12.8,8.7,12.9,6.9,24.4,0,35.3,9.1,0,14.8-5.3,19.1-12.8,19.7,14.6,39.6,21.3,60.9-4.9-10.7-13.1-21-18-31.1-17.7ZM98.3,106.9c0,2.7-2.2,4.8-4.8,4.8s-4.8-2.2-4.8-4.8,2.2-4.8,4.8-4.8,4.8,2.1,4.8,4.8h0Z"/>
      <path d="M35.1,67c7.9,6.2,12.8,2.4,17.7-1.4,9.4,6.9,15.7,3.6,21.9,0,8.3,6.3,15.2,4.9,21.4.3,5,4.2,10.6,6.2,18.2,1l-.3-4c-8.8,4.7-13.2.8-18.1-2.3-6.6,4.4-13.3,7.6-21.4.2-6.9,6-14,4.6-21.2-.3-5.4,4.3-11.1,6.7-18.4,2.5l.2,4.1Z"/>
      <path d="M113.9,75h0Z"/>
    </g>
  </g>
  <g id="_x31_5_Life_on_Land" class="st1">
    <g>
      <polygon class="st2" points="229.1 24.6 225.6 24.6 225.6 13.9 223.8 13.9 223.8 26.4 229.1 26.4 229.1 24.6"/>
      <rect x="229.5" y="13.9" width="1.8" height="12.5"/>
      <polygon class="st2" points="234.2 21 237.3 21 237.3 19.3 234.2 19.3 234.2 15.5 237.7 15.5 237.7 13.9 232.4 13.9 232.4 26.4 234.2 26.4 234.2 21"/>
      <polygon class="st2" points="243.7 24.6 240.1 24.6 240.1 20.9 243.2 20.9 243.2 19.2 240.1 19.2 240.1 15.5 243.7 15.5 243.7 13.9 238.3 13.9 238.3 26.4 243.7 26.4 243.7 24.6"/>
      <path class="st2" d="M224,42.3c.1.2.2.4.4.5.2.2.4.3.6.5.2,0,.5.2.8.3s.6,0,.9,0c.5,0,1,0,1.4-.4.4-.2.8-.5,1-.9.2-.3.4-.7.4-1,.1-.3.1-.6.1-1v-6.4c0-.4,0-.8-.1-1.1s-.3-.7-.6-1-.6-.6-1-.8c-.4-.2-.8-.3-1.3-.3s-.9.1-1.4.4c-.4.2-.8.5-1.1.9h0c-.2.3-.3.6-.4.9-.1.3-.1.6-.1,1v6.4c0,.3,0,.6.1.8s.1.7.3,1.1ZM225.4,40.5v-6.8c0,0,.1-.3.1-.4.1,0,.2-.3.4-.4.2,0,.4-.2.6-.2.4,0,.7.2,1,.5h0c.1,0,.2.3.2.4v7.4c0,0-.1.3-.2.4-.1,0-.2.3-.4.4-.2,0-.4,0-.6,0-.4,0-.7,0-.9-.4-.2-.3-.3-.5-.3-.6v-.2c0,0,0,0,0-.2Z"/>
      <polygon class="st2" points="232.5 31.1 230.8 31.1 230.8 43.6 232.6 43.6 232.6 36 235.3 43.6 237 43.6 237 31.1 235.2 31.1 235.2 38.7 232.5 31.1"/>
      <polygon class="st2" points="242.2 31.1 242.2 43.6 247.5 43.6 247.5 41.8 243.9 41.8 243.9 31.1 242.2 31.1"/>
      <path class="st2" d="M250,40.9h2.3l.5,2.7h1.9l-2.8-12.5h-1.5l-2.8,12.5h1.9l.5-2.7ZM251.2,34.7l.8,4.6h-1.7l.9-4.6Z"/>
      <polygon class="st2" points="257.1 36 259.8 43.6 261.5 43.6 261.5 31.1 259.7 31.1 259.7 38.7 257 31.1 255.3 31.1 255.3 43.6 257.1 43.6 257.1 36"/>
      <path class="st2" d="M267.7,42.8c.6-.6.8-1.3.8-2.2v-6.6c0-.8-.3-1.5-.9-2.1s-1.3-.9-2.1-.9h-2.8v12.5h2.8c.9,0,1.6-.2,2.2-.7ZM264.5,42v-9.2h.9c.4,0,.7,0,.9.4.3.2.4.5.4.9v6.5h0c0,1-.5,1.4-1.4,1.4,0,0-.8,0-.8,0Z"/>
      <polygon class="st2" points="186.7 17 186.7 21.5 191 18.3 191 43.8 195.3 43.8 195.3 13.8 191 13.8 186.7 17"/>
      <path class="st2" d="M210.3,26.6c-.4-.6-.9-1.1-1.7-1.5-.7-.4-1.5-.6-2.2-.6h0c-1.3,0-2.5.4-3.5,1.3v-8h8.4v-4h-12.3v16h3.8c.4-1.1,1.1-1.6,2.1-1.6s.7.1.9.2c.3.1.5.3.6.5.2.2.3.4.4.6.1.2.1.4.1.5v7.9c0,.2-.2.6-.4,1s-.8.7-1.6.7-.7,0-.9-.2c-.3,0-.5-.3-.6-.5s-.3-.4-.4-.6c-.1-.2-.1-.4-.1-.5v-1.7h-4.4v.9c0,.8.1,1.5.3,2.3.2.7.5,1.5,1,2.2s1.2,1.3,2.1,1.8c.9.5,1.9.7,2.9.7s2.6-.4,3.7-1.1c1.2-.7,1.9-1.5,2.2-2.3s.5-1.4.5-1.9c.1-.5.1-1,.1-1.7v-6.7c0-.7-.1-1.3-.2-1.9-.2-.6-.4-1.2-.8-1.8Z"/>
      <path class="st2" d="M220.6,84.8c-4.6,7.2,0,14,5.5,14h17.9c9.9,0,16.8-16.8,1.4-23.7,5.6-19.4-20.4-18.1-20.2-5h0c-11.2.8-10,11.6-4.6,14.7Z"/>
      <path class="st2" d="M273.1,89.6c-6.1-3.9-9.5-2.1-12,0-.6.6-.4,1.9.7,1.3,5-2.3,11.1,2.8,11.1,2.8,0,0,5.2-4.9,10.9-2.8,1.5.5,1.4-1,.9-1.3-2.8-2-6.5-4-11.6,0Z"/>
      <path class="st2" d="M263.6,74.5s4-4.4,8.8-3.1c1.3.3,1-.9.6-1.2-2.6-1.5-5.7-2.9-9.6.8-5.3-2.8-8-1.1-9.9.9-.5.5-.2,1.6.7,1.1h0c4-2.3,9.4,1.5,9.4,1.5Z"/>
      <path class="st2" d="M268.6,62.1h0c3.6-.5,6.6,3.9,6.6,3.9,0,0,4.3-2.1,7.5.3.8.6,1.1-.4.8-.7-1.5-1.9-3.4-3.9-7.4-2.3-3.2-3.7-5.7-3.2-7.6-2.3-.6.3-.7,1.2.1,1.1Z"/>
      <path class="st2" d="M234.8,101.6c-.5,0-.8.4-.8.8v9.9c0,.5.4.8.8.8h3.7c.5,0,.8-.4.8-.8v-9.9c0-.5-.4-.8-.8-.8h-3.7Z"/>
      <path class="st2" d="M286.1,117.6h-70.9c-.5,0-.8.4-.8.8v3.5c0,.5.4.8.8.8h70.9c.5,0,.8-.4.8-.8v-3.5c0-.4-.3-.8-.8-.8Z"/>
      <path class="st2" d="M286.1,126.1h-70.9c-.5,0-.8.4-.8.8v3.5c0,.5.4.8.8.8h70.9c.5,0,.8-.4.8-.8v-3.4c0-.5-.3-.9-.8-.9Z"/>
    </g>
  </g>
  <g id="_x34__Quality_Education">
    <g>
      <path id="rect8528-63" class="st0" d="M1.8.8h146.4c.5,0,.8.4.8.8v146.7c0,.5-.4.8-.8.8H1.8c-.5,0-.8-.4-.8-.8V1.7c0-.5.4-.8.8-.8Z"/>
      <g>
        <path d="M45.1,25.6h0c.3.3.6.6,1,.8.4.2.8.3,1.2.3.8,0,1.4-.2,2-.7l1.1.9,1-1.2-1.2-1c0-.2.1-.3.1-.5,0-.2,0-.4,0-.8v-6.5c0-.8-.3-1.5-.9-2.1-.6-.6-1.3-.9-2.1-.9s-1.6.3-2.2.9c-.6.6-.9,1.4-.9,2.3v6.2c0,.5,0,.9.1,1.2,0,.3.3.7.6,1ZM46.2,23.4v-6.2c0-.2,0-.3,0-.4,0,0,0-.2.1-.4,0-.2.2-.3.4-.4.2-.1.4-.2.7-.2.4,0,.7.1.9.4.2.3.3.6.3,1v6.2l-.6-.5-1,1.2.8.7c-.2,0-.3.1-.4.1-.4,0-.8-.2-1-.4-.2-.3-.3-.6-.3-1h0Z"/>
        <path d="M52.6,25.4c0,.2.2.3.4.5.2.1.4.3.6.4.2.1.5.2.7.3.3,0,.5.1.8.1.5,0,1-.1,1.4-.4.4-.3.8-.6,1.1-1h0c.1-.2.3-.5.3-.8,0-.3,0-.6,0-.9v-9.6h-1.8v9.6c0,.3,0,.6-.3.9-.2.3-.4.4-.8.4s-.7-.1-.8-.3c-.2-.2-.3-.4-.3-.5,0,0,0-.1,0-.2v-9.8h-1.8v9.6c0,.3,0,.6,0,.8,0,.3.2.6.4.9Z"/>
        <path d="M61.4,23.9h2.3l.5,2.7h1.9l-2.8-12.5h-1.5l-2.8,12.5h1.9l.5-2.7ZM62.5,17.7l.8,4.6h-1.7l.8-4.6Z"/>
        <polygon points="72.4 24.8 68.8 24.8 68.8 14.1 67.1 14.1 67.1 26.6 72.4 26.6 72.4 24.8"/>
        <rect x="72.9" y="14.1" width="1.8" height="12.5"/>
        <polygon points="77.8 26.6 79.5 26.6 79.5 15.7 81.7 15.7 81.7 14.1 75.7 14.1 75.7 15.7 77.8 15.7 77.8 26.6"/>
        <polygon points="84.3 26.6 86.1 26.6 86.1 21.2 88.6 14.1 86.7 14.1 85.2 19 83.7 14.1 81.9 14.1 84.3 21.2 84.3 26.6"/>
        <polygon points="49.9 33 49.9 31.3 44.5 31.3 44.5 43.8 49.9 43.8 49.9 42 46.3 42 46.3 38.4 49.4 38.4 49.4 36.7 46.3 36.7 46.3 33 49.9 33"/>
        <path d="M54.1,31.3h-2.8v12.5h2.8c.9,0,1.6-.3,2.2-.9s.8-1.3.8-2.2v-6.5c0-.8-.3-1.5-.9-2.1-.6-.6-1.3-.9-2.1-.9ZM55.3,40.7h0c0,1-.5,1.4-1.4,1.4h-.9v-9.2h.9c.4,0,.7.1.9.4.3.2.4.5.4.9v6.5Z"/>
        <path d="M59,42.6c0,.2.2.3.4.5.2.1.4.3.6.4.2.1.5.2.7.3.3,0,.5.1.8.1.5,0,1-.1,1.4-.4.4-.3.8-.6,1.1-1h0c.1-.2.3-.5.3-.8s0-.6,0-.9v-9.6h-1.8v9.6c0,.3,0,.6-.3.9-.2.3-.4.4-.8.4s-.7-.1-.8-.3c-.2-.2-.3-.4-.3-.5,0,0,0-.1,0-.2v-9.8h-1.8v9.6c0,.3,0,.6,0,.8,0,.3.2.6.4.9Z"/>
        <path d="M65.9,34.2v6.4c0,.4,0,.7,0,1,0,.3.2.6.4,1,.2.4.5.7,1,.9.5.2,1,.4,1.5.4s.5,0,.7-.1c.2,0,.5-.2.7-.3.2-.1.4-.3.6-.4.2-.2.3-.3.4-.5.2-.3.3-.6.4-.9,0-.3,0-.6,0-1v-.4h-1.8v.6c0,.2,0,.3,0,.4,0,0-.1.3-.2.5s-.4.3-.8.3-.7-.1-.9-.4c-.1-.2-.2-.4-.3-.6v-6.9c0-.3,0-.6.3-.9.2-.2.5-.4.8-.4s.7.1.8.4c.2.2.3.5.3.9v.7h1.8v-.7c0-.9-.3-1.6-.9-2.2-.6-.6-1.3-.9-2.1-.9s-.9.1-1.3.4c-.4.2-.7.5-1,.8s-.4.6-.4.9c0,.3,0,.6,0,.9Z"/>
        <path d="M74.2,43.8l.5-2.7h2.3l.5,2.7h1.9l-2.8-12.5h-1.5l-2.8,12.5h1.9ZM75.8,34.9l.8,4.6h-1.7l.8-4.6Z"/>
        <polygon points="82.7 43.8 82.7 33 84.8 33 84.8 31.3 78.8 31.3 78.8 33 80.9 33 80.9 43.8 82.7 43.8"/>
        <rect x="85.8" y="31.3" width="1.8" height="12.5"/>
        <path d="M89.6,42.5c0,.2.2.4.4.5.2.2.4.3.6.5.2.1.5.2.8.3.3,0,.6.1.9.1.5,0,1-.1,1.4-.4.4-.2.8-.5,1-.9.2-.3.4-.7.4-1,0-.3.1-.6.1-1v-6.4c0-.4,0-.8-.1-1.1,0-.3-.3-.7-.6-1-.3-.3-.6-.6-1-.8-.4-.2-.8-.3-1.3-.3s-.9.1-1.4.4c-.4.2-.8.5-1.1.9h0c-.2.3-.3.6-.4.9,0,.3-.1.6-.1,1v6.4c0,.3,0,.6,0,.8,0,.2.1.5.3.9ZM91,40.7v-6.4c0,0,0-.2,0-.4,0-.1,0-.3.1-.4,0-.1.2-.3.4-.4.2-.1.4-.2.6-.2.4,0,.7.2,1,.5h0c.1.1.2.3.2.4,0,0,0,.3,0,.5v6.4c0,.2,0,.4,0,.5s0,.3-.2.4c0,.1-.2.3-.4.4-.2,0-.4.1-.6.1-.4,0-.7-.1-.9-.4-.2-.3-.3-.5-.3-.6,0,0,0-.1,0-.2v-.2Z"/>
        <polygon points="101 38.9 98.2 31.3 96.5 31.3 96.5 43.8 98.3 43.8 98.3 36.2 101.1 43.8 102.8 43.8 102.8 31.3 101 31.3 101 38.9"/>
        <polygon points="29.2 26.2 24.9 26.2 24.9 34.7 20.7 34.7 27.1 13.3 22.6 13.3 16.3 34.7 16.3 38.7 24.9 38.7 24.9 43.3 29.2 43.3 29.2 38.7 31.3 38.7 31.3 34.7 29.2 34.7 29.2 26.2"/>
        <polygon points="98.7 117.2 69.2 125.9 66.8 125.9 37.3 117.2 37.3 65.2 34.6 67.3 34.6 119.3 66.2 128.2 69.8 128.2 101.4 119.3 101.4 67.3 98.7 65.2 98.7 117.2"/>
        <path d="M113.9,60.7c-1.5,0-3,.8-3,2.5v4.5h6.1v-4.5c0-1.7-1.5-2.5-3-2.5Z"/>
        <polygon points="69.6 122.6 95.7 114.5 95.7 65.3 69.6 80.5 69.6 122.6"/>
        <polygon points="66.4 80.5 40.3 65.3 40.3 114.5 66.4 122.6 66.4 80.5"/>
        <polygon points="110.9 114.1 113.9 124.1 117 114.1 117 69.6 110.9 69.6 110.9 114.1"/>
      </g>
    </g>
  </g>
</svg>