<?xml version="1.0" encoding="utf-8"?>
<!-- Generator: Adobe Illustrator 26.4.1, SVG Export Plug-In . SVG Version: 6.00 Build 0)  -->
<svg version="1.1" xmlns="http://www.w3.org/2000/svg" xmlns:xlink="http://www.w3.org/1999/xlink" x="0px" y="0px"
	 viewBox="0 0 150 150" style="enable-background:new 0 0 150 150;" xml:space="preserve">
<style type="text/css">
	.st0{fill-rule:evenodd;clip-rule:evenodd;}
</style>
<g id="Layer_2">
</g>
<g id="svg2" xmlns:inkscape="http://www.inkscape.org/namespaces/inkscape" xmlns:svg="http://www.w3.org/2000/svg" xmlns:sodipodi="http://sodipodi.sourceforge.net/DTD/sodipodi-0.dtd" xmlns:rdf="http://www.w3.org/1999/02/22-rdf-syntax-ns#" xmlns:dc="http://purl.org/dc/elements/1.1/" xmlns:cc="http://creativecommons.org/ns#">
	<g>
		<polygon class="st0" points="-104.3,208.7 -104.2,208.7 -104.2,208.6 -104.3,208.6 		"/>
		<polygon class="st0" points="-97.2,202.7 -97.2,202.6 -97.3,202.6 -97.2,202.7 		"/>
		<path class="st0" d="M-109.6,220.4c0.6,0.7,1.4,1.2,2.2,1.5c1.5,0.6,3.3,0.1,4.6-0.7c0.9-0.6,1.7-1.5,2.9-1.5c0.2,0,0.4,0,0.6,0.1
			c-1.6,0.6-3,1.7-4.1,2.8c0.2,0.2,0.5,0.5,0.7,0.7c1.2-1.3,2.7-2.7,4.1-3.3c1.4,0.6,2.8,2,4.1,3.3c0.3-0.2,0.5-0.4,0.7-0.7
			c-1.1-1.1-2.5-2.2-4.1-2.8c0.2,0,0.4-0.1,0.6-0.1c1.1,0,1.9,0.9,2.9,1.5c1.3,0.8,3.1,1.3,4.6,0.7c0.8-0.3,1.6-0.8,2.2-1.5
			c-1.2,0.8-3,0.9-4.4,0.4c-1.5-0.6-3-1.5-4.8-1.5c-0.6,0-1.2,0.1-1.8,0.3c-0.6-0.2-1.2-0.3-1.9-0.3c-1.7,0-3.3,0.8-4.8,1.5
			C-106.6,221.4-108.4,221.2-109.6,220.4z"/>
		<polygon class="st0" points="-100.5,219.3 -100.5,219.3 -100.5,219.3 		"/>
		<polygon class="st0" points="-84.7,207.9 -84.7,207.9 -84.7,207.9 		"/>
		<path class="st0" d="M-85.9,214.4c-0.1,0.5-0.4,0.9-0.6,1.3c0.9-0.7,2.1-1.3,3.1-2.1c1-0.7,1.8-1.6,2.2-2.8
			c0.3-0.8,0.4-1.8,0.3-2.7c-0.2,2.1-2.4,3.2-3.4,4.9c-0.2,0.4-0.5,0.7-0.8,1c0.1-0.2,0.2-0.4,0.3-0.6c0.3-0.7,0.5-1.6,0.4-2.5
			c-0.1-1.1-0.6-2-0.4-3.2C-85.6,209.8-85.3,212.3-85.9,214.4z"/>
		<path class="st0" d="M-90,218.6c1.6-0.5,3.4-0.4,4.8-1.3c1.5-1,2.9-2.5,3.2-4.3c-1,2.4-3.7,2.6-5.4,4c-0.3,0.3-0.7,0.5-1,0.7l0,0
			c0.4-0.4,0.8-0.8,1.2-1.3c1-1.5,0.7-3.4,1.4-5c-0.7,0.8-1.4,1.7-1.8,2.7C-88.3,215.6-88.5,217.4-90,218.6z"/>
		<polygon class="st0" points="-97.1,202.6 -97.1,202.5 -97.2,202.5 -97.2,202.6 		"/>
		<path class="st0" d="M-98.1,202.7L-98.1,202.7L-98.1,202.7C-98,202.7-98.1,202.7-98.1,202.7L-98.1,202.7z"/>
		<rect x="-98" y="202.8" class="st0" width="0.1" height="0.1"/>
		<path class="st0" d="M-96.4,202.7c0,0,0.1,0.1,0.1,0.1c0.1,0,0.2-0.1,0.2-0.1s0.1-0.2,0-0.2c-0.1,0-0.2,0.1-0.2,0
			c0,0,0-0.1-0.1-0.1l0,0c0,0-0.1,0-0.1,0l-0.2,0l0,0.1L-96.4,202.7C-96.5,202.6-96.4,202.6-96.4,202.7z"/>
		<polygon class="st0" points="-96.7,202.5 -97,202.5 -97,202.6 -96.7,202.6 		"/>
		<path class="st0" d="M-93.9,202.8c0,0-0.1,0-0.1,0c-0.1,0-0.1,0.1,0,0.1l0.2,0c0,0,0.1-0.1,0.1-0.1
			C-93.8,202.8-93.9,202.8-93.9,202.8L-93.9,202.8z"/>
		<polygon class="st0" points="-104.1,207.6 -104.1,207.5 -104.2,207.4 -104.1,207.3 -104.1,207.2 -104.1,207.2 -104.2,207.3 
			-104.4,207.2 -104.4,207.5 -104.2,207.8 		"/>
		<path class="st0" d="M-104.2,207.1c0,0.1,0.1-0.1,0.1-0.1v-0.9l-0.2,0l0,0.1h0.1c0.1,0.2,0,0.6,0,0.6s-0.2,0-0.2-0.1
			c0-0.1-0.1,0.2,0,0.2C-104.4,207-104.3,207-104.2,207.1z"/>
		<polygon class="st0" points="-98.3,202.6 -98.2,202.7 -98.2,202.6 -98.3,202.6 		"/>
		<polygon class="st0" points="-92.1,205.3 -92.1,205.3 -92.2,205.4 -92.3,205.3 -92.3,205.4 -92.2,205.5 -92.2,205.5 -92.2,205.5 
			-92.1,205.4 -92.1,205.4 -92.1,205.4 -92.1,205.3 		"/>
		<polygon class="st0" points="-91.8,205.3 -91.7,205.3 -91.6,205.2 -91.8,205.2 		"/>
		<polygon class="st0" points="-92.5,202.1 -92.5,202.1 -92.6,202.1 -92.5,202.2 		"/>
		<path class="st0" d="M-103.9,207C-103.9,207-103.9,207-103.9,207c-0.1-0.1-0.1,0-0.1,0S-103.9,207.1-103.9,207
			C-103.9,207.1-103.9,207.1-103.9,207z"/>
		<polygon class="st0" points="-94.1,202.6 -94.2,202.7 -94.1,202.7 -94.1,202.7 		"/>
		<path class="st0" d="M-116.4,208.2c-0.1,0.9,0,1.9,0.3,2.7c0.4,1.1,1.3,2,2.2,2.8c1,0.8,2.2,1.4,3.1,2.1c-0.2-0.5-0.5-0.9-0.6-1.3
			c-0.5-2.1-0.2-4.6-1.2-6.6l0,0c0.2,1.1-0.3,2.1-0.4,3.2c-0.1,0.9,0.1,1.7,0.4,2.5c0.1,0.2,0.3,0.4,0.3,0.6c-0.3-0.3-0.6-0.7-0.8-1
			C-114,211.4-116.2,210.3-116.4,208.2z"/>
		<circle class="st0" cx="-104" cy="208.2" r="0.1"/>
		<polygon class="st0" points="-94.5,202.4 -94.5,202.5 -94.4,202.5 -94.4,202.4 		"/>
		<path class="st0" d="M-111.4,211.4c0.8,1.5,0.4,3.5,1.4,5c0.3,0.5,0.7,0.9,1.2,1.3l0,0c-0.4-0.2-0.7-0.4-1-0.7
			c-1.7-1.5-4.4-1.6-5.4-4c0.3,1.7,1.7,3.3,3.2,4.3c1.4,0.9,3.2,0.8,4.8,1.3c-1.5-1.2-1.7-2.9-2.3-4.5
			C-110,213.1-110.7,212.3-111.4,211.4z"/>
		<polygon class="st0" points="-85.9,211.4 -85.9,211.4 -85.9,211.4 		"/>
		<polygon class="st0" points="-85.9,196.1 -85.9,196.1 -85.9,196.1 		"/>
		<polygon class="st0" points="-100.5,213.6 -100.4,213.6 -100.5,213.5 -100.4,213.5 -100.5,213.5 -100.6,213.5 -100.6,213.6 
			-100.6,213.6 		"/>
		<path class="st0" d="M-84.9,199.1c-0.4-0.8-0.5-1.7-0.9-2.4c-0.8-1.3-2.2-1.8-3.4-2.3h0c0.9,0.8,1.5,1.9,2.3,2.8
			C-86.4,197.9-85.6,198.4-84.9,199.1z"/>
		<polygon class="st0" points="-99.6,214.5 -99.5,214.6 -99.5,214.5 -99.4,214.5 -99.5,214.4 -99.6,214.4 -99.6,214.5 -99.6,214.5 
					"/>
		<polygon class="st0" points="-105.9,215 -106,215 -105.9,215.2 -105.9,215.3 -105.8,215.3 -105.7,215.4 -105.6,215.4 
			-105.7,215.2 		"/>
		<path class="st0" d="M-99.3,202.7C-99.3,202.7-99.4,202.7-99.3,202.7L-99.3,202.7l-0.1,0.1L-99.3,202.7L-99.3,202.7z"/>
		<rect x="-99.1" y="202.5" class="st0" width="0.1" height="0.1"/>
		
			<rect x="-99.5" y="202.8" transform="matrix(0.9803 -0.1973 0.1973 0.9803 -41.9778 -15.6361)" class="st0" width="0.1" height="0.1"/>
		<polygon class="st0" points="-100.8,200.3 -100.8,200.4 -100.7,200.3 -100.8,200.2 		"/>
		<path class="st0" d="M-100.9,200.3c0,0-0.2,0-0.1-0.1l0,0.1L-100.9,200.3C-100.8,200.4-100.9,200.3-100.9,200.3z"/>
		<path class="st0" d="M-84.3,199.7c0.1,0.5,0.3,0.9,0.5,1.4l0,0c-0.2-0.5-0.6-1.1-1-1.5c-0.9-0.8-2.2-1.3-2.6-2.5
			c0,1.7,1.5,3,2.8,4c0.6,0.4,1.1,1,1.4,1.7c-0.1-0.5-0.1-0.9,0-1.3c0.1-1.5,0.2-3.1-0.8-4.2c-0.5-0.5-1-1-1.7-1.1
			C-84.6,196.9-84.7,198.5-84.3,199.7z"/>
		<polygon class="st0" points="-111.4,211.4 -111.4,211.4 -111.4,211.4 		"/>
		<polygon class="st0" points="-98.5,202.6 -98.4,202.6 -98.4,202.5 -98.4,202.5 		"/>
		<path class="st0" d="M-108.9,215.2L-108.9,215.2c1,1.3,1.2,3.1,3,3.8c0.3,0.1,0.7,0.1,0.9,0.3c-0.3,0.1-0.6-0.1-0.9-0.1
			c-2.2-0.5-5,0.1-6.7-1.8c0.6,1.3,1.9,2.2,3.2,2.6c2,0.6,4-0.1,5.8-0.5c0.3-0.1,0.6,0,0.8-0.1c-1-0.2-2-0.5-2.8-1.2
			C-106.7,217.1-107.7,216-108.9,215.2z"/>
		<path class="st0" d="M-83,203.3l0.1,1.7c0,0,0,0.1-0.1,0c-0.1-0.2-0.1-0.4-0.1-0.6c-0.2-1.4-1.4-2.3-2.4-3.3
			c-0.2-0.2-0.4-0.5-0.5-0.8c0.1,0.7,0.3,1.4,0.6,2c0.8,1.6,2.3,2.9,2.6,4.7c0.1-1.7,1.2-3,1.2-4.9c0-1.5-0.6-2.7-1.5-3.8
			c0,0,0,0-0.1,0C-82.2,199.8-83.1,201.7-83,203.3z"/>
		<path class="st0" d="M-91.8,218.1c-0.8,0.7-1.8,1-2.8,1.2c0.2,0.1,0.6,0.1,0.8,0.1c1.8,0.5,3.9,1.2,5.8,0.5
			c1.3-0.4,2.6-1.4,3.2-2.6c-1.7,1.9-4.4,1.3-6.7,1.8c-0.3,0.1-0.6,0.2-0.9,0.1c0.3-0.2,0.6-0.2,0.9-0.3c1.7-0.7,2-2.5,3-3.8v0
			C-89.6,216-90.6,217.1-91.8,218.1z"/>
		<polygon class="st0" points="-99.2,202.6 -99.3,202.6 -99.3,202.7 -99.2,202.7 		"/>
		<polygon class="st0" points="-81.3,202.9 -81.3,202.9 -81.3,202.9 		"/>
		<path class="st0" d="M-82.7,208c-0.2,0.6-0.2,1.3-0.5,1.9c0,0,0,0-0.1,0c0.6-1.8-0.3-3.5-1.2-4.9c-0.2-0.4-0.4-0.8-0.5-1.3
			c-0.1,0.8,0.1,1.8,0.2,2.6c0.2,1.1,0.6,2.1,0.9,3.2c0.2,0.7,0.1,1.4,0,2.1l0.1-0.1c0.7-1.3,2-2.3,2.5-3.6c0.3-1.1,0.6-2.4,0.3-3.6
			c-0.1-0.5-0.2-0.9-0.4-1.4C-80.9,204.9-82.2,206.3-82.7,208z"/>
		<circle class="st0" cx="-103.9" cy="208.5" r="0.1"/>
		<polygon class="st0" points="-104,207.9 -104.1,208 -104.1,208.1 -104,208.1 		"/>
		<path class="st0" d="M-99,208.5c0,0,0,0.1-0.1,0c0,0,0,0,0,0v0c-0.1,0-0.1,0.2-0.1,0.2c0,0,0,0.1,0.1,0.1c0.1,0,0.1,0,0.1,0
			c0,0,0.1-0.1,0.1-0.2C-98.9,208.5-99,208.5-99,208.5z"/>
		<path class="st0" d="M-91.1,211.1C-91.1,211.1-91.1,211.2-91.1,211.1L-91.1,211.1C-91,211.2-91,211.1-91.1,211.1
			c0.1-0.1,0-0.2,0-0.2v0L-91.1,211.1C-91.1,211.1-91.1,211.1-91.1,211.1L-91.1,211.1z"/>
		<polygon class="st0" points="-99.6,205.1 -99.7,205.1 -99.8,205.2 -99.8,205.2 -99.8,205.3 -99.8,205.3 -99.7,205.4 -99.8,205.4 
			-99.8,205.5 -99.9,205.5 -100.2,205.7 -100.2,205.8 -100.2,205.9 -100.3,206.1 -100.6,206.1 -100.6,206.4 -100.6,206.5 
			-100.4,206.6 -100.3,206.5 -100.3,206.5 -100.2,206.3 -100.2,206.2 -100.1,206.2 -100.1,206.1 -100,206 -99.8,206 -99.7,205.9 
			-99.7,205.7 -99.7,205.6 -99.7,205.5 -99.5,205.5 -99.5,205.2 -99.6,205.2 		"/>
		<path class="st0" d="M-96.2,194.5c-0.1,0-0.2,0-0.2,0h-0.2c0,0-0.1-0.1-0.1-0.1l0,0c-0.1,0-0.1,0-0.1,0.1c0,0.1-0.1,0.1-0.1,0.1
			l-0.3,0c0,0.1-0.2,0.1-0.2,0.1c0-0.1-0.2,0.1,0,0.2c0.2,0.1,0.3,0,0.3,0l0-0.1l0.6,0c0.1-0.1,0.1-0.1,0.1-0.1s0.2-0.1,0.2,0
			C-96.1,194.7-96.1,194.5-96.2,194.5z"/>
		<polygon class="st0" points="-95.9,194.4 -95.9,194.3 -96,194.3 -95.9,194.4 -95.9,194.5 -95.9,194.4 -95.7,194.3 -95.8,194.3 		
			"/>
		<path class="st0" d="M-99.4,207.5l-0.1,0l0,0.2l0.1,0.1l0.1,0c0,0,0.2-0.1,0.2-0.2L-99.4,207.5L-99.4,207.5z"/>
		<polygon class="st0" points="-97.7,206 -97.7,206 -97.7,206 		"/>
		<polygon class="st0" points="-96.5,194.1 -96.5,194.1 -96.3,194 -96.4,194 -96.5,194 -96.6,194 -96.6,194.1 -96.5,194.1 		"/>
		<path class="st0" d="M-96.2,196.7L-96.2,196.7c-0.1-0.1-0.2-0.1-0.2-0.1h0c0,0-0.1,0.1-0.1,0.1c0.1,0,0.1,0.1,0.1,0.1
			c0.1,0,0.2,0.1,0.2,0.1c0,0,0.1,0,0.1,0l0-0.1L-96.2,196.7z"/>
		<path class="st0" d="M-97.5,195.2V195l-0.1-0.1l-0.1-0.2l-0.2,0l-0.2,0.1l-0.2,0.1l-0.2,0l-0.1,0.1l0.4,0l0.1,0.1l0.3,0l0.2,0.2
			c0.2,0.1,0.2,0,0.1-0.1L-97.5,195.2z"/>
		<path class="st0" d="M-95.3,198.4c-0.1,0-0.2-0.1-0.2-0.1c0-0.1-0.2-0.1-0.2-0.1s-0.2-0.2-0.1-0.2c0.1,0,0-0.1,0-0.1s-0.2,0-0.2,0
			c0,0,0-0.1,0-0.1s-0.1,0-0.1,0l0,0c0,0,0,0,0,0c0,0,0.1,0,0.1,0.1c0,0.1,0,0.2,0.1,0.2c0.1,0,0.1,0.1,0.2,0.1
			c0,0.1,0.2,0.1,0.2,0.1l0.1,0.1l0.3,0.3L-95.3,198.4C-95.2,198.5-95.2,198.4-95.3,198.4z"/>
		<path class="st0" d="M-92.8,196.6l0.2,0.1c0,0,0.2,0.3,0.2,0.1c0-0.4-0.2-0.4-0.3-0.5c0,0,0,0-0.1,0l0,0c-0.1,0-0.3,0.1-0.2,0.1
			C-93,196.5-92.9,196.6-92.8,196.6z"/>
		<path class="st0" d="M-97.6,206.6C-97.5,206.6-97.4,206.5-97.6,206.6c-0.1-0.2-0.1-0.4-0.1-0.5c0,0,0,0-0.1,0c0,0,0,0-0.1,0.1v0.2
			C-97.8,206.3-97.6,206.5-97.6,206.6z"/>
		<path class="st0" d="M-112.4,199.1c0.7-0.7,1.5-1.1,2.1-1.9c0.7-0.9,1.3-2,2.3-2.8c-1.3,0.5-2.6,1-3.4,2.3
			C-111.9,197.4-112,198.3-112.4,199.1z"/>
		<path class="st0" d="M-111.8,202.4c0.3-0.6,0.5-1.3,0.6-2c-0.1,0.3-0.3,0.6-0.5,0.8c-1,1-2.2,1.9-2.4,3.3c0,0.2-0.1,0.4-0.1,0.6
			c0,0,0,0-0.1,0l0.1-1.7c0.1-1.6-0.8-3.5,0.2-4.9l0,0c0,0-0.1,0-0.1,0c-0.9,1.1-1.5,2.3-1.5,3.8c0,1.8,1.1,3.1,1.2,4.9
			C-114.1,205.3-112.6,204-111.8,202.4z"/>
		<path class="st0" d="M-96.6,196.7C-96.6,196.7-96.6,196.7-96.6,196.7C-96.7,196.7-96.7,196.7-96.6,196.7z"/>
		<polygon class="st0" points="-115.9,202.9 -115.9,202.9 -115.9,202.9 		"/>
		<path class="st0" d="M-113.5,211.6L-113.5,211.6c0-0.6-0.1-1.4,0.1-2c0.3-1.1,0.7-2.1,0.9-3.2c0.2-0.8,0.3-1.8,0.2-2.6
			c-0.1,0.4-0.2,0.9-0.5,1.3c-0.9,1.4-1.9,3.1-1.2,4.9c0,0,0,0-0.1,0c-0.3-0.6-0.3-1.3-0.5-1.9c-0.5-1.7-1.8-3.1-1.4-5.1
			c-0.2,0.4-0.3,0.9-0.4,1.4c-0.2,1.2,0,2.5,0.3,3.6C-115.6,209.3-114.2,210.3-113.5,211.6z"/>
		<rect x="-92.7" y="202" class="st0" width="0.1" height="0.1"/>
		<polygon class="st0" points="-109.5,210.6 -109.5,210.8 -109.4,210.8 -109.4,210.9 -109.4,210.9 -109.4,210.8 -109.5,210.7 
			-109.5,210.7 		"/>
		<path class="st0" d="M-100,197.2c0,0,0.2,0,0.2,0.1c0,0,0.1,0.1,0.2,0c0,0,0.1-0.1-0.1-0.1s-0.1-0.1-0.1-0.1c0,0-0.1,0-0.2,0v0
			c-0.1,0-0.1,0-0.1,0C-100.1,197.1-100,197.2-100,197.2z"/>
		
			<rect x="-103.1" y="197.8" transform="matrix(0.7071 -0.7071 0.7071 0.7071 -170.1228 -14.9344)" class="st0" width="0.1" height="0.1"/>
		<polygon class="st0" points="-108.7,211.7 -108.5,211.9 -108.5,211.8 -108.6,211.6 -108.7,211.5 -108.7,211.3 -108.9,211.2 
			-108.8,211.5 -108.8,211.6 		"/>
		<path class="st0" d="M-98.4,206.8c0,0.1,0-0.2,0.1-0.2c0.1,0,0-0.2,0-0.2h0l-0.2,0.2C-98.4,206.6-98.4,206.7-98.4,206.8z"/>
		<path class="st0" d="M-111.2,205.7c0,1.2,0.2,2.4,0.5,3.5l0.3-0.1c-0.3-1.1-0.5-2.2-0.5-3.3h2.3c0,0.9,0.2,1.9,0.4,2.8l0.3-0.1
			c-0.3-0.9-0.4-1.8-0.4-2.7h2.1c0,0.3,0,0.6,0.1,0.9c-0.1,0-0.3,0.1-0.3,0.1l-0.1,0.2c-0.1,0-0.2,0.3-0.2,0.3
			c-0.1,0-0.2,0.2-0.2,0.2c0,0-0.1,0.1-0.1,0.1v0.3l-0.1,0.1l0,0.3c0.1,0,0.1,0.1,0.1,0.1c-0.1,0-0.1,0.2-0.1,0.2l-0.3,0.1l-0.1,0.1
			l-0.3,0l-0.1,0.1c0-0.1-0.1-0.2-0.1-0.3l-0.3,0.1c0,0,0,0.1,0,0.1h-0.4l0-0.1l-0.1,0l0-0.1l-0.2,0l0,0.1l-0.2,0
			c0,0.1-0.2,0.3-0.2,0.3c0-0.1-0.2-0.2-0.1-0.2c0.1,0,0.2-0.1,0.2-0.1v-0.1l-0.5,0l-0.1,0.1l-0.2,0v0.2l-0.1,0c-0.1,0,0,0.2,0,0.2
			c0.1,0.1,0,0.2,0,0.2c-0.1,0.1,0.1,0.2,0.1,0.2c0.1,0-0.1,0.1-0.1,0.1c0,0.1,0.1,0.2,0.1,0.2c-0.1,0.1,0.1,0.2,0.1,0.2l0,0.2
			l0.1,0.1v0.1l0.1,0.1h0.2l0-0.3c-0.2-0.2,0.2-0.3,0.2-0.2c0,0.1,0.2,0.1,0.2,0.1c0,0.2,0.2,0.3,0.3,0.1c0.1-0.2,0.1-0.1,0.2,0
			c0,0.1,0.3,0.3,0.3,0.3h0.2l0,0.2c0.2,0,0.3,0,0.4,0.3c0.1,0.3,0.3,0.4,0.3,0.4l0.2,0c0-0.2,0.2,0,0.2,0.1c0,0.1,0.3,0.4,0.3,0.4
			l0.3,0.1l0.1,0.1c0.2,0.3,0.4,0.5,0.7,0.8l-1.6,1.6c-1.4-1.5-2.4-3.2-3-5.1l-0.3,0.1c0.6,2,1.7,3.9,3.2,5.4c1,1,2.2,1.8,3.5,2.4
			l0,0c0,0,0,0,0,0c0,0,0,0,0,0l0,0c1.7,0.8,3.5,1.2,5.4,1.2c2,0,3.9-0.5,5.7-1.3c1.2-0.6,2.3-1.4,3.2-2.3c1-1,1.8-2.2,2.4-3.4
			c0.8-1.7,1.3-3.6,1.3-5.5c0-1.6-0.3-3.2-0.9-4.7c-0.6-1.5-1.6-3-2.8-4.2c-1.2-1.2-2.6-2.2-4.2-2.8c-1.5-0.6-3-0.9-4.7-0.9l0,0
			c-2,0-3.9,0.5-5.6,1.3l0,0c-2.4,1.2-4.4,3.2-5.7,5.7C-110.7,201.8-111.2,203.7-111.2,205.7z M-106.3,205.5h-2.1
			c0-1.4,0.3-2.8,0.9-4c0.4-0.9,1-1.8,1.8-2.6l0,0l1.5,1.5c-0.6,0.6-1.1,1.3-1.4,2.1C-106,203.4-106.3,204.5-106.3,205.5z
			 M-105.3,202.6c0.3-0.7,0.8-1.4,1.4-2l0,0l1.6,1.6c-0.3,0.4-0.6,0.8-0.8,1.2c-0.1,0-0.1,0-0.1,0.1c0,0.1-0.2,0.1-0.2,0.1l0,0.1
			l-0.1,0l0,0.1l-0.2,0l0.4,0c0.1,0,0,0.2-0.1,0.2l-0.2,0l-0.1,0.1h-0.2l-0.1,0.1l-0.2,0c0,0-0.1,0.1-0.1,0.2c0,0,0,0.2-0.1,0.2
			s-0.1,0.1-0.1,0.2c0,0-0.1,0.2-0.1,0.2l0,0.1l-0.1,0v0.4l-0.2,0.1v0.2l-0.1,0.1h-1C-106,204.5-105.7,203.5-105.3,202.6z
			 M-99.6,202.9L-99.6,202.9l-0.1,0.2l-0.1,0v0.1h-0.1v0.1c-0.2,0.1-0.4,0.2-0.5,0.4l-1.5-1.5c0.4-0.3,0.8-0.6,1.3-0.9l0,0
			c0.6-0.3,1.2-0.4,1.9-0.4v2.1c-0.3,0-0.5,0.1-0.8,0.2L-99.6,202.9L-99.6,202.9L-99.6,202.9z M-104.2,210c0-0.2-0.1-0.3-0.1-0.3
			c-0.2-0.2-0.2-0.5-0.2-0.5V209c-0.2-0.2,0.1-0.2,0.1-0.2c0.1-0.2-0.1-0.3-0.1-0.3l0-0.2l-0.2,0l0-0.6l-0.5-0.7c-0.1,0,0-0.2,0-0.2
			c0.1-0.1,0-0.2,0-0.2l0-0.3l0.3,0l0.1-0.1h0.1l0-0.3c0-0.1,0.1-0.1,0.1-0.1l0,0h0.1c0,0,0.1,0,0.1,0l0.2,0l0,0h0.6l0.1,0.3
			l-0.2,0.1c-0.1,0.1-0.1,0.3,0,0.3c0.1,0,0.1,0.3-0.1,0.1c-0.2,0,0.1,0.2,0,0.2c0.2,0.1,0.2-0.1,0.2-0.1l0.1-0.1
			c0,0.3,0.1,0.5,0.2,0.7c0.2,0.7,0.6,1.3,1.1,1.8l-1.6,1.6c-0.1-0.1-0.2-0.2-0.3-0.3c0-0.1,0.1-0.2,0.1-0.2
			C-104,210.2-104.2,210-104.2,210z M-104.4,205.5c-0.2-0.1-0.1-0.4-0.1-0.4c0.1-0.1,0.2-0.2,0.3-0.2v0c0.1,0,0.2,0.1,0.2,0.1l0.2,0
			c0,0,0.1,0.1,0.1,0.1c0,0.1,0,0.2,0,0.4c0,0,0,0.1,0,0.1c0,0,0,0.1,0,0.1h-0.5v0L-104.4,205.5z M-103.1,207.3
			c-0.1-0.3-0.2-0.5-0.2-0.8v0c0.1,0,0.2,0.2,0.2,0.2c0,0,0.5,0,0.5,0c0.1,0.1,0.2,0.3,0.2,0.3c0.1-0.2,0.4,0,0.2,0.1
			c0.2,0.1,0.2,0.2,0.2,0.2c0.2-0.1,0.2,0.1,0.2,0.1c0,0,0.1-0.2,0.1-0.2c-0.2-0.1,0.3-0.2,0.1,0.1l-0.1,0.1l0.1,0.1l0,0.3
			c0.3,0,0.2-0.4,0.2-0.4l0.1,0c0-0.1,0.1-0.1,0.1-0.1c-0.1-0.3,0.1-0.4,0.1-0.5c0.1,0.2,0.2,0.4,0.4,0.5l-1.5,1.5
			C-102.6,208.5-102.9,207.9-103.1,207.3z M-101.7,206.1l0.1,0l0.1-0.1l0-0.1h0.1c0,0.1,0,0.2,0,0.3l-0.1,0l0-0.1l0,0.1h-0.2
			L-101.7,206.1z M-101.2,203.7c0-0.1-0.2,0-0.2,0c0,0.1-0.2-0.1-0.2-0.1l-0.4-0.3c-0.3-0.2-0.6,0.1-0.6,0.1c0,0.1-0.1,0.1-0.2,0.1
			c0.2-0.4,0.5-0.7,0.8-1.1l0,0l1.2,1.2l-0.1,0C-101.1,203.8-101.2,203.7-101.2,203.7z M-98.8,200.6c-0.7,0-1.4,0.2-2,0.5l0,0
			c-0.5,0.2-0.9,0.5-1.3,0.9l-1.6-1.6c0.6-0.5,1.2-1,1.9-1.3c0.9-0.4,2-0.7,3-0.7l0,0V200.6z M-106,205.9h0.9l0,0.1l-0.2,0.2l0,0.2
			l-0.1,0l0,0.1l-0.1,0.3l0.1,0c0.1,0,0.1,0.2,0,0.2s-0.2,0.1-0.1,0.1c0.1,0.1-0.2,0-0.2,0s-0.2-0.1-0.2-0.1c0,0-0.1,0-0.1-0.1
			C-105.9,206.5-106,206.2-106,205.9L-106,205.9z M-105.9,212.1L-105.9,212.1c0.1-0.1,0.1-0.1,0.2-0.1c0.1,0,0.3,0.1,0.3,0.2
			c0,0,0,0.1,0.1,0.1l-0.2,0.2C-105.7,212.3-105.8,212.2-105.9,212.1z M-98.8,218c-1.8,0-3.5-0.4-5.1-1.2c-1.2-0.6-2.3-1.3-3.3-2.3
			l1.6-1.6c0.8,0.8,1.8,1.5,2.8,1.9l0,0c0,0,0,0,0,0c0,0,0,0,0,0l0,0c1.2,0.6,2.6,0.9,4,0.9V218z M-98.8,215.4
			c-1.3,0-2.7-0.3-3.9-0.9c-1-0.5-1.9-1.1-2.7-1.9l0.3-0.3c0,0,0,0.1,0,0.1c0,0.2,0.1,0.2,0.1,0.2l0.7,0l0.3-0.2l0.6,0
			c0.3,0,0.1-0.5,0.1-0.5c0,0,0-0.1,0-0.2c0.5,0.4,1.1,0.7,1.7,1l0,0c0.9,0.4,1.8,0.6,2.8,0.6V215.4z M-98.8,213
			c-0.9,0-1.8-0.2-2.7-0.6l0,0c-0.7-0.3-1.3-0.7-1.9-1.2l-0.3-0.3l1.6-1.6c0.5,0.5,1.1,0.9,1.8,1.1c0.2,0.1,0.4,0.1,0.5,0.2
			c0,0,0,0.1,0,0.1c0,0.1-0.1,0.1-0.1,0.1l-0.1,0l-0.1,0.1l-0.2,0.1l0,0.3l-0.1,0.1v0.1l-0.1,0v0.1l-0.1,0l0.1,0.2l0.1,0.1
			c0.2,0,0.1,0.2,0.1,0.2l0.1,0l0.1,0.1l0.1,0.2c0,0.2,0.2,0.1,0.2,0.1c0.1,0,0.1,0.2,0.1,0.2l0.5,0c0,0,0,0.1,0.1,0.1
			c0,0,0.2,0,0.4,0V213z M-98.8,209.4L-98.8,209.4c0,0.2-0.4,0.1-0.5,0l0,0.2l-0.1,0l0,0.2l0,0.2l0.1,0v0.1l0.3,0l0.1-0.1v0.2v0
			l-0.2,0l-0.1,0.1l0-0.1h-0.1l-0.1,0.1c-0.3,0-0.6-0.1-0.9-0.2c-0.6-0.2-1.2-0.6-1.7-1l1.4-1.5c0.4,0.4,1,0.6,1.6,0.7v0
			c0,0,0,0.1,0,0.1c0.1,0,0,0,0.1,0.1l0,0.1c0-0.1-0.1,0,0,0.1c0,0-0.1,0-0.1,0c0,0,0,0.1,0,0.1c0,0,0,0,0,0.1c0,0,0.2,0,0.2,0
			s0-0.1,0-0.1c0,0,0,0,0,0v0.1c0,0,0,0-0.1,0v0.1l-0.1,0l0.1,0.1l0.1,0V209.4z M-97.7,207.9c-0.1,0-0.2,0.1-0.2,0.1v-0.3l0.1-0.1
			c0,0,0,0,0,0C-97.7,207.6-97.7,207.8-97.7,207.9z M-97.9,208.4L-97.9,208.4c0.1-0.1,0.1-0.1,0.2-0.1l0,0c0,0,0,0.1,0,0.1l0.1,0
			l-0.1,0.1l-0.1,0.1l-0.1,0l-0.2,0l-0.1-0.1l-0.1,0l0,0.2l-0.1,0.1l-0.2,0.2c0.2,0,0.1,0.1,0,0.1v-0.5c0.2,0,0.3,0,0.5-0.1
			c0,0,0,0,0,0H-97.9z M-97.6,202.8c0,0.1-0.1,0.1-0.1,0.1s-0.1,0-0.1,0.1c0,0.1-0.1,0.1-0.1,0.1s0,0,0,0.1
			c-0.2-0.1-0.4-0.1-0.6-0.1l0-2.1c0.6,0,1.2,0.1,1.7,0.4c0.5,0.2,1,0.5,1.4,0.9l-0.1,0.1c0,0-0.2-0.1-0.2-0.1c0-0.1-0.1-0.1-0.1,0
			c0,0.1-0.1,0.1-0.1,0.1s-0.1,0.1-0.1,0.1c0,0,0,0.1,0.1,0.1c0.1,0,0.2-0.1,0.2,0c0,0,0,0,0,0.1l-0.5,0.5c-0.1,0-0.1,0-0.1,0
			c0,0.1-0.2,0-0.2-0.1c0.1-0.1,0.1-0.1,0.1-0.1l-0.1,0l-0.1,0.1c-0.2,0-0.2,0.1-0.2,0.2c0,0.1-0.1,0-0.1,0.1c0,0.1,0,0.1,0.1,0.1
			c0.1,0,0,0,0,0.1c0,0,0.1,0,0.1,0l-0.1,0.1c-0.1,0-0.2,0-0.2,0c0,0,0,0,0,0.1c-0.2-0.2-0.4-0.3-0.7-0.4c0,0,0.1,0,0.1-0.1
			c0.1-0.1,0.1-0.4,0.1-0.4S-97.6,202.7-97.6,202.8z M-93.6,200.4l-1.6,1.6c-0.5-0.4-1-0.8-1.5-1c-0.6-0.2-1.2-0.4-1.8-0.4l0-2.3
			c0.9,0,1.8,0.2,2.6,0.5c0.2,0.1,0.5,0.2,0.7,0.3c0,0,0,0,0,0c0.4,0.2,0.7,0.4,1,0.7c0,0.1,0.1,0.1,0.1,0.1l0.1,0
			c0,0,0.1,0.1,0.1,0.1v0.1C-93.7,200.2-93.6,200.3-93.6,200.4z M-92.9,201.1C-92.9,201.1-92.9,201.1-92.9,201.1
			c0.1,0.2,0.1,0.3,0.2,0.3c0,0,0,0,0,0c0.2,0.2,0.3,0.5,0.5,0.7l0,0c0,0,0,0.1,0.1,0.1c0,0,0,0.1,0,0.1l-0.2,0v0.2l-0.1,0l0,0.1
			l0.1,0c0,0,0,0.2,0,0.1c0-0.1,0.4,0,0.3,0.2c0,0.1,0.3,0.2,0.3,0.4c0,0,0,0,0.1,0c0.1,0.2,0.1,0.4,0.2,0.5l0,0c0,0,0,0,0,0
			c0,0.2,0.1,0.3,0.1,0.5c0,0.1,0,0.3-0.1,0.3c-0.2,0.1,0,0,0,0l0,0.3c0,0.1,0.1,0.1,0.1,0c0,0,0-0.1,0.1-0.1c0,0.2,0,0.4,0,0.6
			h-1.5c0,0,0,0,0,0l0.1-0.2l0.2-0.1l0-0.2l-0.1,0c0,0,0.1-0.2,0.2-0.2s0.5,0,0.5,0s0.1-0.2,0.1-0.3s0.1-0.1,0.1-0.1
			c0,0,0.1-0.1,0.2-0.2s-0.1-0.4-0.1-0.3s-0.2,0.1-0.2,0.1l0,0.1l-0.1,0.1c0,0,0,0,0,0.1c0,0.1-0.1,0.1-0.1,0.1l-0.1,0.1
			c0,0-0.3,0-0.3,0c-0.1-0.1,0-0.2,0-0.2c0.1,0,0-0.2,0-0.2l0.1,0c0,0,0-0.2,0.1-0.2c0,0,0-0.1-0.1-0.1c-0.1,0-0.1-0.2-0.2-0.2
			c-0.1,0-0.3,0-0.3,0l0,0.1l-0.1,0c0,0,0,0.1,0,0.1c-0.1,0.1-0.4,0.3-0.2,0l0-0.1v-0.1l-0.2,0c0,0-0.1,0-0.1-0.1s0-0.1,0-0.1
			l-0.3-0.3l-0.3,0l0-0.1l-0.2,0c0,0-0.1,0-0.1,0c-0.1-0.1-0.2-0.3-0.3-0.4c0,0,0,0,0,0c0,0-0.2-0.2-0.2-0.3c0,0-0.1-0.1-0.1-0.1
			l1.6-1.6c0.1,0.1,0,0.1,0.1,0.1c0,0,0,0,0.1,0c0,0,0.1,0.1,0.1,0.1l0,0C-93.1,201.1-93,201.1-92.9,201.1z M-93.4,213.3
			c-0.2,0-0.1-0.2,0.1-0.2l0.1,0v-0.1l0.3-0.3v-0.2l-0.6-0.5c-0.1,0-0.1-0.2-0.1-0.4c0.1-0.1,0.2-0.2,0.3-0.3l0,0l0.6,0.6
			c0,0.1-0.1,0.1-0.2,0.1c-0.1,0,0.1,0.1,0.1,0.1c0,0.1,0.1,0.1,0.1,0c0,0,0-0.1,0-0.2l0.3,0.3c0,0.1-0.1,0.1-0.1,0.2l0.1,0.1l0,0.2
			c0.1,0.1,0.3,0.1,0.4,0.1l0.1,0.1c-0.5,0.5-1,0.9-1.5,1.2v-0.1C-93.2,213.6-93.2,213.3-93.4,213.3z M-93.9,209.9L-93.9,209.9
			l0.1-0.2l0.1,0l0-0.3l0.1,0v-0.6l-0.2-0.2c0,0.1-0.2,0.1-0.2,0.1s-0.1,0.1-0.1,0.1s0.1,0.1,0,0.2c0,0.1-0.1,0.1-0.1,0.1l-0.2,0.1
			l-0.1,0.1h-0.2l0-0.1c0,0,0-0.1,0.1-0.1l0.2,0l0.1-0.1l0.1-0.1c0-0.1,0.2-0.1,0.2-0.1s0.3-0.2,0.3-0.4c0-0.1,0.1-0.4,0.3-0.4h0.3
			c0.1-0.1,0.1-0.2,0.1-0.2l0.2,0l0,0.1c0,0,0.2,0,0.3,0c0,0,0.1-0.1,0.1-0.1c0.1,0,0.3-0.1,0.3-0.1c0-0.1,0.3-0.1,0.3-0.1l0-0.1
			c0,0-0.2-0.3-0.3-0.3c0,0-0.2-0.2-0.3-0.1c-0.2-0.1-0.2-0.3-0.2-0.3l-0.1-0.2c0-0.1-0.2-0.3-0.2-0.3c-0.1,0-0.1-0.1-0.1-0.2h1.8
			c0,1-0.2,2-0.6,2.8c-0.3,0.8-0.8,1.5-1.4,2.1c0-0.3-0.1-0.5-0.1-0.5l-0.1-0.1l0-0.3h-0.1l-0.2,0.3l0,0.1l-0.1-0.1l0.1-0.1
			L-93.9,209.9z M-95.7,208c0,0.1,0,0.2,0,0.2c0.2-0.2,0.3,0,0.3,0.1c0,0,0.1,0.1,0.2,0s0.1,0.1,0.1,0.2c0,0.1-0.3,0.1-0.3,0
			s-0.1-0.1-0.1,0c0,0-0.1,0.1-0.2,0l-0.1-0.1c0,0,0,0,0,0c0,0,0,0-0.1,0l-0.1-0.1c0-0.1,0-0.2,0-0.2
			C-95.9,207.9-95.8,207.9-95.7,208L-95.7,208C-95.8,207.9-95.7,207.9-95.7,208z M-94.9,202.7c0.1,0.1,0.1,0.2,0.2,0.2l-0.2,0
			l-0.1,0l-0.2,0c-0.2,0.1-0.2,0.3-0.2,0.3c-0.1,0.2-0.3,0-0.3-0.1l0.3-0.3c0,0,0,0,0.1,0c0.1,0,0.2,0,0.2,0v0
			C-95.1,202.6-95,202.7-94.9,202.7z M-94.7,203.5c-0.1,0-0.2-0.1-0.2-0.1s-0.1,0-0.1,0c0,0.1,0,0.2,0,0.2s-0.1,0.1-0.1,0.1
			c0,0-0.1-0.2-0.1-0.2c0,0-0.2-0.3,0-0.3c0.2,0,0-0.2,0.1-0.2l0.1-0.1h0.1l0.1-0.1c0,0.1,0.1,0.1,0.1,0.2c0,0,0,0.1,0,0.1
			C-94.6,203.4-94.5,203.5-94.7,203.5z M-95.8,209.9C-95.8,209.9-95.8,209.9-95.8,209.9L-95.8,209.9l0.3,0.1c0,0.1,0.2,0,0.2,0
			l0.1,0.1c0,0,0.1,0,0.2,0.1c0.1,0.1,0.4,0,0.4,0l0.1,0.1l0.1,0.1l0.2,0l0.1,0.1c-0.2,0.1-0.7,0.1-0.7,0c0,0-0.3-0.2-0.3-0.2
			s-0.2-0.2-0.2-0.1s-0.2-0.1-0.2,0s-0.2-0.1-0.2-0.1l-0.3-0.1l0.2,0L-95.8,209.9z M-92.1,211.3c0,0.1-0.2,0-0.2,0.1
			c0,0.1-0.1,0.3-0.1,0.4c0,0,0,0,0,0l-0.8-0.8c0.6-0.6,1.1-1.4,1.5-2.2c0.4-0.9,0.6-1.9,0.7-3l0,0h2.1c0,1.4-0.3,2.7-0.9,4
			c-0.5,1-1.1,1.9-1.8,2.6l-0.1-0.1c0-0.1,0-0.3,0-0.3l-0.1-0.1l0-0.3C-91.8,211.5-92.1,211.3-92.1,211.3z M-91,205.5
			c0-0.4,0-0.7-0.1-1.1c0-0.1,0-0.1,0-0.1c0,0,0-0.2,0-0.2s0.1-0.1,0-0.2c-0.1-0.1,0-0.2,0.1-0.3l-0.1-0.1l-0.1,0l-0.1,0
			c0-0.1,0-0.2-0.1-0.2l0.1,0v-0.1l-0.1,0c0-0.1,0-0.1-0.1-0.2l0-0.3l-0.1-0.1l0-0.1l-0.1,0l0.1-0.2l-0.1-0.2h-0.1
			c-0.1-0.1-0.1-0.2-0.2-0.4c0,0,0,0,0.1,0c0.1,0,0.1,0,0.1,0l0-0.1l-0.1-0.1l0-0.2c0,0-0.1,0-0.1,0.1c0,0,0,0,0,0
			c-0.1-0.1-0.2-0.3-0.3-0.4c0,0,0,0,0,0c0.1-0.1,0-0.1-0.1-0.2c-0.1,0-0.1,0-0.1-0.1c0-0.1-0.1-0.1-0.1-0.1l0-0.2l-0.1,0.1
			c-0.1-0.1-0.1-0.1-0.2-0.2l0-0.1c-0.1,0-0.1,0-0.1-0.1l0.4-0.4c0.2,0.1,0.3,0.3,0.3,0.4c0,0.1,0.2,0,0.2,0c0-0.2,0.2-0.2,0.3-0.1
			c0,0.1,0.1,0.2,0.1,0.2l0.1,0.1l0.1,0.1l0.1,0l0,0.1l0.2,0c0,0,0.1,0.2,0.2,0.2c0,0,0.2,0,0.3,0c0.1,0,0.1,0.1,0.1,0.1
			c0,0.1,0.1,0.2,0.1,0.2s0.2,0,0.2,0.1c0,0.1,0.1,0.2,0.1,0.2l0.1,0.1l0,0.1l0.1,0l0,0.2l0.2,0l0.1-0.1c0,0,0.1,0,0.1-0.1
			c0,0.1,0.1,0.2,0.1,0.3c0.4,1.1,0.7,2.2,0.7,3.4H-91z M-96.8,209.8l0-0.1l-0.2,0c-0.1-0.2,0-0.3,0.1-0.2l0.1,0l0-0.2l0.1,0l0-0.3
			l-0.1,0v-0.1l0.3,0c-0.1-0.2,0-0.3,0-0.3l0,0h0.1l0,0.1l0.4,0h0c0.2,0.1,0.1,0.2,0,0.2c-0.1,0-0.1,0-0.1,0l0,0.1l-0.3,0l0,0.1
			c-0.2,0-0.2,0.2-0.2,0.2c0,0.1,0,0.2,0,0.2l0.1,0.1l0.2-0.1c0-0.1,0.1-0.2,0.2-0.2c0.1-0.1,0.3,0.1,0.2,0.2c0,0,0,0,0,0
			c-0.2,0.1-0.4,0.3-0.6,0.4c-0.3,0.2-0.7,0.3-1.1,0.4c0,0,0,0,0,0l-0.1,0l0-0.2c0-0.1-0.3-0.1-0.3,0c0,0.1-0.5,0-0.5,0v-0.4
			l0.1-0.1l0.3-0.1c0-0.1,0.2,0,0.2,0c0.1,0,0.2,0.1,0.2,0.1l0.2,0c0.1,0,0.1,0.1,0.1,0.1c0,0.1,0.1,0.1,0.1,0.1l0-0.2l0.1,0
			l-0.1-0.1l-0.1-0.1l-0.2-0.1c-0.1-0.1,0-0.1,0.1-0.1h0.2c0,0,0.2,0.3,0.2,0.3s0.1,0.1,0.1,0.1l0.1,0l0,0.1L-96.8,209.8l0,0.2h0.2
			l0-0.1L-96.8,209.8z M-97.6,213c-0.3,0-0.6,0.1-0.9,0.1v-0.3c0,0,0.1,0,0.2,0v0c0.1,0,0.2,0,0.2,0.1c0.1,0.1,0.3,0,0.3,0
			L-97.6,213z M-98.5,213.3c0.4,0,0.7,0,1.1-0.1v0l0,0.1l0.2,0.1l0.2,0l0.1,0.2l0.1,0l0,0.1c0.1,0.1,0,0.3,0,0.3v0.3l0.1,0.1l0,0.1
			l0.2,0.2l0.2,0l0.3,0.3c-0.8,0.2-1.5,0.3-2.4,0.3V213.3z M-93.1,216.7c-1.6,0.8-3.4,1.3-5.4,1.3v-2.3c0.9,0,1.8-0.2,2.7-0.4
			l0.2,0.1l0.1,0.2l0.1,0l0.1-0.1l0.3,0l0.2-0.1l0.2,0l1.2-1c0.7-0.4,1.3-0.9,1.8-1.4v0l1.6,1.6C-91,215.4-92,216.1-93.1,216.7z
			 M-87.6,211c-0.6,1.2-1.4,2.3-2.3,3.2l-1.6-1.6c0.8-0.8,1.4-1.7,1.9-2.7c0.6-1.3,0.9-2.7,0.9-4.1h2.3
			C-86.4,207.7-86.8,209.5-87.6,211z M-87.2,201.1c0.6,1.4,0.9,2.9,0.9,4.4h-2.3c0-1.2-0.3-2.4-0.7-3.5c-0.1-0.2-0.1-0.3-0.2-0.5
			c0-0.1,0.1-0.1,0.1-0.1c0.1,0,0-0.3,0-0.3s-0.2-0.1-0.2-0.2c0-0.1-0.2-0.2-0.2-0.2c0-0.1-0.2-0.2-0.2-0.2c0-0.1-0.1-0.2-0.1-0.2
			l-0.2-0.2l0-0.1l-0.2,0l-0.3-0.4l0-0.1l-0.1,0v-0.1l-0.1-0.1l-0.1,0l-0.3-0.3l0-0.1h-0.1l0-0.2l1.5-1.5
			C-88.7,198.3-87.8,199.6-87.2,201.1z M-98.5,193.4c1.5,0,3,0.3,4.4,0.9c1.5,0.6,2.8,1.5,4,2.6l-1.4,1.4c0,0-0.1,0-0.1,0
			c-0.1,0,0-0.1,0-0.1V198l-0.1-0.1c0,0-0.2,0-0.2,0s-0.1-0.2-0.1-0.2l0-0.2l-0.1,0l0-0.1l-0.1,0v-0.2l-0.1,0l-0.1,0l0-0.2l-0.3,0
			l-0.1-0.1l-0.1-0.2l-0.3,0l-0.1-0.1l-0.1,0l-0.1,0l0,0.1l-0.2,0l0,0.1c-0.1,0-0.3,0-0.4,0c-0.3-0.1-0.5-0.3-0.7-0.4l-0.1,0.3
			c0.2,0.1,0.4,0.2,0.6,0.3c0,0,0,0.1-0.1,0.1c-0.1,0,0,0.2,0,0.2s0.2,0,0.2,0c0.1,0,0.1,0.1,0.1,0.1c0.2,0,0.3,0.2,0.2,0.3
			c0,0.1,0.1,0.1,0.1,0.1s0,0.2,0,0.3s0.2,0.1,0.2,0.2c0.1,0.1,0,0.3-0.1,0.4c0,0,0.1,0.1,0.1,0.1c0,0.1,0,0,0.1,0.1
			c0,0.1,0,0.3,0,0.3l0.2,0c0-0.2,0.4-0.2,0.4-0.2c0.2,0.1,0.4,0.4,0.4,0.5c0,0.1-0.1,0.1-0.1,0.1l0,0.1l-0.4,0.4c0,0-0.1,0-0.1,0
			c-0.1,0,0-0.3,0-0.3s0.1-0.1,0.2,0c0.1,0-0.4-0.6-0.5-0.6c-0.1,0.1-0.3-0.1-0.3-0.2c0-0.1-0.5-0.5-0.5-0.5s-0.2-0.1-0.2,0
			c0,0.1-0.1,0.1,0,0.2c0.1,0,0.1-0.1,0.2,0c0.1,0.1,0.3,0.2,0.2,0.3c-0.1,0.1-0.1,0.1-0.1,0.1l0.1,0.1h0.1l0,0.2
			c0,0,0.2,0.1,0.2,0.2c0,0.1,0,0.1,0,0.1c-0.3-0.2-0.6-0.4-0.9-0.6c0,0,0,0,0-0.1c0-0.1,0.1-0.1,0.2,0l0.1,0l0-0.1l-0.2-0.1h-0.1
			c0,0,0,0.1-0.1,0.1c-0.1,0,0,0-0.1,0c-0.1,0-0.1,0.1,0,0.2c-0.2-0.1-0.4-0.2-0.6-0.3c-0.9-0.4-1.8-0.5-2.7-0.6v-1.2
			c0.1,0,0.1,0,0.1-0.1c0-0.1,0-0.1,0.1-0.1c0.1,0,0-0.2-0.1-0.2c-0.1,0-0.1,0-0.1,0V196c1.2,0,2.4,0.3,3.5,0.7l0.1-0.3
			c-1.1-0.5-2.4-0.7-3.6-0.7L-98.5,193.4z M-98.7,203.3l0,0.3l-0.1,0h-0.1l0-0.1l-0.1,0v0.3l0.1,0.1l0.1,0.1l0.1,0l0,0.2l0.3,0
			l0,0.1l0.2,0l0.4,0.4l0,0.1l-0.1,0c0,0.1-0.2,0-0.2,0v0.1l0.1,0l0.1,0.1l0.1-0.2c0.1-0.1,0.2,0,0.2,0.1c0,0.1-0.1,0.1-0.1,0.1v0.2
			l0.1,0c0.1,0.2-0.1,0.2-0.1,0.2l0,0.1c0,0.1-0.2,0.1-0.2,0.1l-0.1,0.1l-0.2,0l0.3,0c0-0.1,0.1-0.1,0.1-0.1c0,0.1,0,0.1,0,0.1
			l0.1,0l0,0.1l0.1,0v0.4l0.1,0.1c0.2-0.1,0.2,0,0.1,0.1c-0.1,0.1,0,0.3,0,0.3l-0.1,0.1v0.1l-0.1,0.1v0.1c-0.1-0.1-0.3,0-0.3,0
			c-0.1-0.1-0.4-0.1-0.4,0c0.1,0.1-0.1,0.1-0.1,0.1l-0.1,0.1c0.1,0.1-0.1,0.1-0.1,0.1v0.2l-0.2,0.1l0,0.2c-0.1,0-0.2,0-0.2,0
			c-0.6,0-1.2-0.2-1.6-0.6c0,0,0,0,0,0c0.1-0.1,0.2-0.1,0.2-0.1l0-0.1l0.3,0c0-0.1,0.2-0.1,0.2,0c0,0.1,0.1,0,0.1,0l0.1-0.1h0.1
			l0-0.2l0.1,0v-0.2c0.2-0.1,0.2-0.3,0.2-0.3l0.1-0.1l0-0.1c-0.1,0-0.1-0.1,0-0.1c0.1,0-0.1-0.1-0.1-0.1C-99,206.2-99,206-99,206
			h-0.2v-0.2l0-0.2l-0.2-0.1l-0.1,0.1l0,0.2v0.1l-0.1,0l0,0.4l-0.1,0l0,0.1l-0.1,0l-0.1,0l-0.1,0.2l-0.1,0.1l-0.1,0.2l-0.1,0.4
			c-0.2-0.2-0.3-0.4-0.4-0.6c0-0.1,0-0.2,0-0.2c-0.1-0.1-0.1-0.2,0.1-0.1c0.1,0.2-0.1-0.3-0.1-0.3l-0.1-0.1l-0.1,0
			c0-0.1,0-0.3,0-0.4c0-0.1,0-0.1,0-0.2c0,0,0.1,0,0.1,0l0.1,0.1l0.1,0.1l0,0.1l-0.1,0l0,0.1l0,0.1h0.1c0-0.2,0.3-0.2,0.4-0.1
			l0.1-0.2c-0.2-0.1,0-0.2,0-0.2c0.1,0.1,0.2-0.2,0.2-0.2s0.1,0.1,0,0c-0.1-0.2,0.1-0.2,0.1-0.2c0-0.2,0.2-0.1,0.2-0.1l0-0.2l-0.2,0
			c0,0.2-0.2,0-0.1,0c0.1,0,0.2-0.1,0.2-0.1v-0.1l0.1,0l0-0.1h0.2l0.2-0.1l0-0.1l0.2,0l0.3-0.2l0-0.1c-0.2,0,0-0.1,0-0.1l0-0.2h-0.1
			l0-0.3C-99,203.3-98.8,203.3-98.7,203.3L-98.7,203.3z M-98.8,198.1c-1.1,0-2.2,0.3-3.2,0.8c-0.7,0.4-1.4,0.8-2,1.4l-1.4-1.5
			c0.7-0.7,1.6-1.3,2.5-1.7l0,0c1.3-0.6,2.7-1,4.1-1V198.1z M-104.1,194.7L-104.1,194.7c1.6-0.8,3.5-1.3,5.3-1.3v2.3
			c-1.5,0-3,0.4-4.3,1l0,0c-0.9,0.5-1.8,1.1-2.5,1.8l-1.6-1.6C-106.3,196-105.2,195.3-104.1,194.7z M-107.4,197.1L-107.4,197.1
			l1.6,1.6c-0.7,0.8-1.4,1.7-1.8,2.6c-0.6,1.3-1,2.7-1,4.2h-2.3c0-1.9,0.5-3.6,1.3-5.3C-109.1,199.1-108.3,198.1-107.4,197.1z"/>
		<path class="st0" d="M-113.9,202.7c0.3-0.6,0.8-1.2,1.4-1.7c1.3-1,2.7-2.3,2.8-4c-0.4,1.2-1.8,1.7-2.6,2.5c-0.5,0.4-0.8,1-1,1.5
			l0,0c0.1-0.5,0.3-0.9,0.5-1.4c0.4-1.3,0.3-2.8,1.5-3.7l0,0c-0.6,0.2-1.2,0.6-1.7,1.1c-1,1.1-0.9,2.8-0.8,4.2
			C-113.8,201.9-113.9,202.3-113.9,202.7z"/>
		<polygon class="st0" points="-90.9,210.7 -91,210.7 -91,210.8 -90.9,210.8 		"/>
		<polygon class="st0" points="-92.7,200.3 -92.7,200.4 -92.6,200.4 -92.7,200.3 		"/>
		<path class="st0" d="M-91.6,201.2C-91.6,201.2-91.6,201.1-91.6,201.2c-0.1-0.1-0.1-0.2-0.2-0.2c-0.1,0-0.1-0.1-0.1-0.1
			c-0.1-0.1,0-0.1-0.1-0.1c0,0-0.1,0-0.1,0l0,0c0,0,0,0,0,0c0,0.1,0.1,0.1,0,0.1c0,0.1,0,0.1,0.1,0.1s0.1,0,0.1,0.1
			c0.1,0,0.1,0.1,0.1,0.1L-91.6,201.2z"/>
		<rect x="-93.4" y="209.4" class="st0" width="0.1" height="0.2"/>
		<path class="st0" d="M-91.4,202.1c0,0,0.1-0.1,0.1-0.1c-0.1-0.1-0.1-0.2-0.1-0.2s-0.1-0.2-0.1-0.2s-0.1-0.1-0.1-0.1
			c0,0-0.1-0.1-0.1-0.1l0,0l-0.2,0c0,0.1,0.1,0.1,0.1,0.1s0,0.1,0.1,0.1c0.1,0,0.1,0,0.2,0.1c0,0.1,0,0.2,0,0.2
			C-91.6,202-91.5,202-91.4,202.1C-91.4,202-91.4,202-91.4,202.1z"/>
		<path class="st0" d="M-93.3,202h-0.2c0,0,0,0.1,0.1,0.1c0,0,0.1,0.1,0,0.2c-0.1,0.1,0,0,0,0s0,0.3-0.1,0.2c-0.1,0-0.2,0.1-0.2,0.2
			c0,0.1,0.5,0.1,0.4,0c0,0,0.1-0.1,0.1-0.1s0.3,0,0.4,0s0.1,0,0.1-0.1c0-0.1-0.2-0.1-0.2-0.1s-0.2,0-0.3,0s0-0.1,0.1-0.1
			c0,0,0.1-0.1,0.1-0.2c-0.1-0.1,0-0.2,0-0.1s0.1,0.1,0.2,0c0,0,0-0.2-0.1-0.2c-0.1,0,0.1-0.1,0.1-0.1c-0.1-0.1-0.1-0.1-0.1-0.1l0,0
			c0,0-0.1,0.1-0.2,0.1C-93.2,201.7-93.2,201.9-93.3,202z"/>
		<path class="st0" d="M-91.8,207c0.1,0,0.1,0,0.1-0.1c0,0-0.1-0.1-0.1-0.1c-0.1,0-0.2,0.1-0.2,0.1C-92,207-91.8,207-91.8,207z"/>
		<rect x="-92.9" y="201.5" class="st0" width="0.1" height="0.1"/>
		<polygon class="st0" points="-96.7,197.1 -96.7,197.2 -96.6,197.3 -96.6,197.2 		"/>
		<polygon class="st0" points="-92.9,201.5 -92.9,201.4 -93.1,201.4 -93.1,201.5 		"/>
		<path class="st0" d="M-91,203.2c-0.1,0,0-0.2,0-0.2s0.1-0.2,0-0.2c-0.1,0,0-0.1-0.1-0.2c-0.1,0,0-0.2-0.1-0.3c0-0.1,0-0.1-0.1-0.2
			c0,0,0,0,0,0l0,0c0,0,0,0.2,0,0.2c0,0-0.1,0.1-0.1,0.1c0,0,0.1,0.1,0.1,0.1c0,0,0,0.2,0,0.2s0.1,0,0.1,0.1c0,0.1,0,0.2,0,0.2
			c0,0,0.1,0.1,0.1,0.1c0,0.1,0,0.2,0,0.2l0.1,0.1l0.1,0.1C-91,203.5-90.9,203.2-91,203.2z"/>
		<polygon class="st0" points="-97.7,210 -97.7,210 -97.6,210.1 -97.5,210 -97.6,209.9 		"/>
		<path class="st0" d="M-87.8,209.8L-87.8,209.8c0-0.1,0-0.1,0-0.1l-0.1,0C-87.8,209.7-87.8,209.8-87.8,209.8z"/>
		<polygon class="st0" points="-91,204.4 -90.9,204.5 -90.9,204.4 -91,204.4 		"/>
		<path class="st0" d="M-87.4,209.5c0,0,0-0.1,0-0.1v0l-0.1,0C-87.5,209.4-87.4,209.5-87.4,209.5L-87.4,209.5z"/>
		<path class="st0" d="M-96.9,196.7L-96.9,196.7c0,0-0.1,0-0.1,0h0l0,0.1L-96.9,196.7l0,0.2l0.1,0L-96.9,196.7L-96.9,196.7z"/>
		<path class="st0" d="M-88.2,208.1C-88.2,208.1-88.2,208.1-88.2,208.1L-88.2,208.1C-88.1,208.1-88.1,208.1-88.2,208.1
			C-88.1,208.1-88.2,208.1-88.2,208.1L-88.2,208.1c-0.1-0.1-0.1,0-0.2,0l0,0.1C-88.2,208.1-88.2,208.1-88.2,208.1z"/>
		<path class="st0" d="M-88,210c0,0,0.1,0,0.1-0.1c0-0.1,0-0.1,0-0.1l0,0c0,0-0.1,0-0.1,0C-88,209.9-88,210.1-88,210z"/>
		<polygon class="st0" points="-96.7,196.5 -96.7,196.5 -96.8,196.6 -96.7,196.6 		"/>
		<path class="st0" d="M-87.4,209.3C-87.3,209.3-87.3,209.4-87.4,209.3L-87.4,209.3C-87.3,209.3-87.3,209.3-87.4,209.3
			C-87.3,209.3-87.3,209.3-87.4,209.3c0-0.1,0-0.1,0-0.2v0l-0.1,0C-87.4,209.2-87.4,209.3-87.4,209.3
			C-87.4,209.3-87.4,209.3-87.4,209.3z"/>
		<polygon class="st0" points="-91,204.1 -90.9,204.1 -90.9,204 -90.9,204 		"/>
		<polygon class="st0" points="-96.1,209.5 -96.1,209.5 -96.2,209.5 -96.2,209.6 		"/>
		<polygon class="st0" points="-70.7,265.5 -67.7,265.5 -67.7,250.7 -70.8,250.7 -74.2,256.7 -77.5,250.7 -80.7,250.7 -80.7,265.5 
			-77.7,265.5 -77.7,256.2 -74.2,262.3 -70.7,256.2 		"/>
		<polygon class="st0" points="-55.9,253.3 -55.9,250.7 -65.4,250.7 -65.4,265.5 -55.9,265.5 -55.9,262.8 -62.4,262.8 -62.4,259.3 
			-56.6,259.3 -56.6,256.7 -62.4,256.7 -62.4,253.3 		"/>
		<rect x="-102.2" y="229.3" class="st0" width="3.3" height="16.2"/>
		<path class="st0" d="M-57,237c1.1-0.9,1.9-1.6,1.9-3.6c0-1.1-0.7-4.2-4.9-4.2l-6.5,0v16.2h6.9c2.7,0,5.2-1.1,5.2-4.4
			C-54.3,237.9-56.2,237.5-57,237z M-63.2,232.1h2.7c2.8,0,2.9,3.7,0.2,3.7h-2.9V232.1z M-59.6,242.5h-3.6v-3.8h3.4
			C-57.1,238.7-57,242.5-59.6,242.5z"/>
		<polygon class="st0" points="-116.5,250.7 -116.5,265.5 -107.4,265.5 -107.4,262.8 -113.5,262.8 -113.5,250.7 		"/>
		<polygon class="st0" points="-37.5,253.4 -37.5,265.5 -34.5,265.5 -34.5,253.4 -30.8,253.4 -30.8,250.7 -41.3,250.7 -41.3,253.4 
					"/>
		<polygon class="st0" points="-42.8,242.5 -49.4,242.5 -49.4,229.3 -52.7,229.3 -52.7,245.4 -42.8,245.4 		"/>
		<path class="st0" d="M-79.1,245.4l1.2-3.5h5.6l1.2,3.5h3.3l-5.7-16.2h-3.2l-5.9,16.2H-79.1z M-75.1,233.9l1.8,5h-3.5L-75.1,233.9z
			"/>
		<path class="st0" d="M-94,258.4c0.1-4.3-2.3-7.9-6.7-7.9s-6.8,3.4-6.8,7.9s2.6,7.5,6.8,7.5C-96.3,265.8-94.1,262.6-94,258.4z
			 M-104.3,258.3c0-2.8,1.3-4.8,3.6-4.8h0c2.3,0,3.5,2.2,3.5,4.8s-1.2,4.5-3.5,4.5C-102.9,262.9-104.2,261.1-104.3,258.3z"/>
		<path class="st0" d="M-113.8,241.9h5.6l1.2,3.5h3.3l-5.7-16.2h-3.2l-5.9,16.2h3.4L-113.8,241.9z M-111.1,233.9l1.8,5h-3.5
			L-111.1,233.9z"/>
		<polygon class="st0" points="-51.1,256.7 -45.1,265.5 -42.6,265.5 -42.6,250.7 -45.5,250.7 -45.5,259.2 -51.4,250.7 -54.1,250.7 
			-54.1,265.5 -51.1,265.5 		"/>
		<polygon class="st0" points="-118.3,253.3 -118.3,250.7 -127.8,250.7 -127.8,265.5 -118.3,265.5 -118.3,262.8 -124.8,262.8 
			-124.8,259.3 -119.1,259.3 -119.1,256.7 -124.8,256.7 -124.8,253.3 		"/>
		<polygon class="st0" points="-129,231 -129,231 -129,231 		"/>
		<polygon class="st0" points="-132,250.7 -135.3,260.6 -138.4,250.7 -141.7,250.7 -136.8,265.5 -133.9,265.5 -128.9,250.7 		"/>
		<path class="st0" d="M-141.4,240.3v-11h-3.2v10.3c0,4.2-5.9,4.2-5.9,0v-10.3h-3.2v11C-153.7,247.8-141.4,247.8-141.4,240.3z"/>
		<path class="st0" d="M-134.2,242.8c-1.8,0-4.1-2-4.1-2l-2.1,2.4c0,0,2.2,2.4,5.8,2.4c4.1,0,5.7-2.4,5.7-4.8c0-5.7-7.5-4.3-7.5-7.6
			c0-0.8,1-1.3,1.9-1.3c1.6,0,3.4,1.5,3.4,1.5l1.9-2.6c0,0-2-2-5.2-2c-3.5,0-5.4,2.2-5.4,4.8c0,5.7,7.6,4.3,7.5,7.4
			C-132.2,242.4-133.3,242.8-134.2,242.8z"/>
		<path class="st0" d="M-160.8,250.7h-4.6v14.8h5.3C-151.9,265.5-150.6,250.7-160.8,250.7z M-160.5,262.8h-1.9v-9.4h1.1
			C-154.7,253.4-156,262.8-160.5,262.8z"/>
		<polygon class="st0" points="-155.4,231 -155.4,231 -155.4,231 		"/>
		<path class="st0" d="M-89.2,261h2c7.2,0,6.7-10.3,0.2-10.3h-5.4v14.8h3.1V261z M-89.2,253.4h1.8c3,0,3.4,4.8,0,4.8h-1.8
			L-89.2,253.4z"/>
		<polygon class="st0" points="-142.4,253.3 -142.4,250.7 -151.9,250.7 -151.9,265.5 -142.4,265.5 -142.4,262.8 -149,262.8 
			-149,259.3 -143.2,259.3 -143.2,256.7 -149,256.7 -149,253.3 		"/>
		<polygon class="st0" points="-124.4,245.4 -121.1,245.4 -121.1,232.3 -117.1,232.3 -117.1,229.3 -128.5,229.3 -128.5,232.3 
			-124.4,232.3 		"/>
		<path class="st0" d="M-155.2,240.8c0-5.7-7.5-4.3-7.5-7.6c0-0.8,1-1.3,1.9-1.3c1.6,0,3.4,1.5,3.4,1.5l1.9-2.6c0,0-2-2-5.2-2
			c-3.5,0-5.4,2.2-5.4,4.8c0,5.7,7.6,4.3,7.5,7.4c-0.1,1.3-1.2,1.7-2.1,1.7c-1.8,0-4.1-2-4.1-2l-2.1,2.4c0,0,2.2,2.4,5.8,2.4
			C-156.8,245.7-155.2,243.3-155.2,240.8z"/>
		<polygon class="st0" points="-30.9,242.5 -38,242.5 -38,238.7 -31.7,238.7 -31.7,235.8 -38,235.8 -38,232.1 -30.9,232.1 
			-30.9,229.3 -41.3,229.3 -41.3,245.4 -30.9,245.4 		"/>
		<polygon class="st0" points="-93,235.8 -86.5,245.4 -83.8,245.4 -83.8,229.3 -86.9,229.3 -86.9,238.6 -93.4,229.3 -96.3,229.3 
			-96.3,245.4 -93,245.4 		"/>
		<path class="st0" d="M-35.1,284c-1.4-0.8-4.5-1.6-5.3-1.8c-1.7-0.4-3.2-0.8-4.4-1.5c-1.2-0.7-2.2-1.2-2.2-3.3c0-1.7,1.4-3.4,5-3.4
			c4.8,0,4.7,3.5,4.7,3.5l6.1-0.2c0,0-0.2-8.7-11.1-8.7c-8.2,0-11,6.2-11,9.8c0,1.6,0.6,3.5,2,5.2c2.1,2.5,5.2,3.1,6.9,3.8
			c1.9,0.8,3.1,1,5.2,2c1.8,0.8,2.5,1.4,2.5,3.1c0,2.5-2.8,3.6-5.3,3.6c-6,0-5.6-4.7-5.6-4.7l-6.1,0.2l0,0c0,0-1,9.7,11.6,9.7
			c9,0,11.6-6,11.6-9.2C-30.4,286.8-33.4,285-35.1,284z"/>
		<path class="st0" d="M-92.4,269l-11.5,31.6h6.7l2.2-6.7h11.5l2.2,6.7h6.8L-85.8,269H-92.4z M-93.4,288.8l4-12.2l4.1,12.2H-93.4z"
			/>
		<polygon class="st0" points="-67,269.5 -73.1,269.5 -73.1,300.5 -55,300.5 -55,295 -67,295 		"/>
		<path class="st0" d="M-149.6,283.8v5.2h7.5c0,0-1,6.7-7.9,6.7c-6.4,0-9.3-5.6-9.3-10.7c0-7.2,4-10.8,8.9-10.8
			c6.4,0,7.8,4.6,7.8,4.6l6.4-0.5c0,0-2.5-9.7-13.9-9.7c-10.1,0-15.6,8.1-15.6,16.5c0,10,8,16.1,15.3,16.1
			c15.5,0,15.2-17.2,15.2-17.4H-149.6z"/>
		<path class="st0" d="M-102.4,283.6c-0.2-1.5-0.6-3-1.2-4.3l-6,2.7c0.4,0.8,0.6,1.6,0.7,2.5L-102.4,283.6z"/>
		<path class="st0" d="M-104.2,278.2c-0.7-1.3-1.6-2.5-2.7-3.6l-4.7,4.7c0.6,0.6,1.1,1.3,1.5,2L-104.2,278.2z"/>
		<path class="st0" d="M-107.7,273.8c-1.1-1-2.4-1.8-3.8-2.4h0l-2.6,6.1c0.8,0.3,1.5,0.8,2.2,1.4L-107.7,273.8z"/>
		<path class="st0" d="M-112.7,271c-1.4-0.5-2.9-0.8-4.4-0.8l-0.3,6.6c0.9,0,1.7,0.2,2.5,0.5L-112.7,271z"/>
		<path class="st0" d="M-118,276.8l-0.2-6.6c-1.5,0.1-3,0.3-4.4,0.8l2.1,6.3C-119.7,277-118.9,276.8-118,276.8z"/>
		<path class="st0" d="M-121.2,277.5l-2.6-6.1c-1.4,0.6-2.7,1.4-3.8,2.4h0l4.3,5.1C-122.7,278.3-121.9,277.8-121.2,277.5z"/>
		<path class="st0" d="M-123.8,279.3l-4.6-4.7c-1.1,1.1-2,2.3-2.7,3.6l5.8,3.2C-125,280.6-124.5,279.9-123.8,279.3z"/>
		<path class="st0" d="M-133,283.5l6.6,0.9c0.1-0.9,0.4-1.7,0.7-2.5l-6-2.7C-132.4,280.6-132.8,282-133,283.5z"/>
		<path class="st0" d="M-126.5,285.1l-6.6-0.4c-0.1,1.5,0.1,3,0.4,4.5l6.4-1.6C-126.4,286.8-126.5,285.9-126.5,285.1z"/>
		<path class="st0" d="M-126,288.3l-6.3,2c0.5,1.4,1.1,2.8,2,4l5.4-3.8C-125.4,289.9-125.8,289.1-126,288.3z"/>
		<path class="st0" d="M-124.5,291.1l-5.1,4.2c1,1.2,2.1,2.2,3.3,3l3.7-5.5C-123.3,292.3-124,291.8-124.5,291.1z"/>
		<path class="st0" d="M-122,293.2l-3.3,5.8c1.3,0.7,2.7,1.3,4.2,1.6h0l1.5-6.5C-120.5,293.9-121.3,293.6-122,293.2z"/>
		<path class="st0" d="M-119,294.2l-1,6.6c1.5,0.2,3,0.2,4.5,0v0l-1-6.6C-117.3,294.4-118.1,294.4-119,294.2z"/>
		<path class="st0" d="M-115.8,294.1l1.5,6.5c1.5-0.3,2.9-0.9,4.2-1.6v0l-3.3-5.8C-114.1,293.6-114.9,293.9-115.8,294.1z"/>
		<path class="st0" d="M-110.9,291.1c-0.5,0.7-1.2,1.2-1.9,1.7l3.7,5.5c1.3-0.8,2.4-1.9,3.3-3l0,0L-110.9,291.1z"/>
		<path class="st0" d="M-109.3,288.3c-0.3,0.8-0.7,1.6-1.1,2.3l5.4,3.8c0.9-1.2,1.5-2.6,2-4L-109.3,288.3z"/>
		<path class="st0" d="M-102.3,284.7L-102.3,284.7l-6.6,0.3c0,0.9,0,1.7-0.2,2.5l6.4,1.6C-102.4,287.8-102.2,286.3-102.3,284.7z"/>
	</g>
	<g>
		<path d="M-126,25.2c0.2,0.4,0.5,0.7,1,0.9c0.5,0.2,1,0.4,1.5,0.4c0.2,0,0.5,0,0.7-0.1c0.2-0.1,0.5-0.2,0.7-0.3
			c0.2-0.1,0.4-0.3,0.6-0.4c0.2-0.2,0.3-0.3,0.4-0.5c0.2-0.3,0.3-0.6,0.4-0.9c0-0.3,0.1-0.6,0.1-1v-0.4h-1.8v0.6c0,0.2,0,0.3,0,0.4
			c0,0.1-0.1,0.3-0.2,0.5c-0.1,0.2-0.4,0.3-0.8,0.3c-0.4,0-0.7-0.1-0.9-0.4c-0.1-0.2-0.2-0.4-0.3-0.6v-6.9c0-0.3,0.1-0.6,0.3-0.9
			c0.2-0.2,0.5-0.4,0.8-0.4c0.4,0,0.7,0.1,0.8,0.4c0.2,0.2,0.3,0.5,0.3,0.9v0.7h1.8v-0.7c0-0.9-0.3-1.6-0.9-2.2
			c-0.6-0.6-1.3-0.9-2.1-0.9c-0.4,0-0.9,0.1-1.3,0.4c-0.4,0.2-0.7,0.5-1,0.8c-0.2,0.3-0.4,0.6-0.4,0.9c-0.1,0.3-0.1,0.6-0.1,0.9v6.4
			c0,0.4,0,0.7,0.1,1C-126.4,24.5-126.2,24.9-126,25.2z"/>
		<polygon points="-114.1,24.6 -117.7,24.6 -117.7,13.9 -119.4,13.9 -119.4,26.4 -114.1,26.4 		"/>
		<rect x="-113.7" y="13.9" width="1.8" height="12.5"/>
		<polygon points="-108.6,18.8 -106.8,24.1 -105.9,24.1 -104.1,18.8 -104.1,26.4 -102.3,26.4 -102.3,13.9 -104,13.9 -106.3,20.5 
			-108.7,13.9 -110.4,13.9 -110.4,26.4 -108.6,26.4 		"/>
		<path d="M-99.6,23.7h2.3l0.5,2.7h1.9l-2.8-12.5h-1.5l-2.8,12.5h1.9L-99.6,23.7z M-98.4,17.5l0.8,4.6h-1.7L-98.4,17.5z"/>
		<polygon points="-93.2,26.4 -91.5,26.4 -91.5,15.5 -89.3,15.5 -89.3,13.9 -95.3,13.9 -95.3,15.5 -93.2,15.5 		"/>
		<polygon points="-83.1,24.6 -86.7,24.6 -86.7,20.9 -83.5,20.9 -83.5,19.2 -86.7,19.2 -86.7,15.5 -83.1,15.5 -83.1,13.9 
			-88.5,13.9 -88.5,26.4 -83.1,26.4 		"/>
		<path d="M-124.8,40.9h2.3l0.5,2.7h1.9l-2.8-12.5h-1.5l-2.8,12.5h1.9L-124.8,40.9z M-123.7,34.7l0.8,4.6h-1.7L-123.7,34.7z"/>
		<path d="M-113.5,34.7V34c0-0.9-0.3-1.6-0.9-2.2c-0.6-0.6-1.3-0.9-2.1-0.9c-0.4,0-0.9,0.1-1.3,0.4c-0.4,0.2-0.7,0.5-1,0.8
			c-0.2,0.3-0.4,0.6-0.4,0.9c-0.1,0.3-0.1,0.6-0.1,0.9v6.4c0,0.4,0,0.7,0.1,1c0.1,0.3,0.2,0.6,0.4,1s0.5,0.7,1,0.9
			c0.5,0.2,1,0.4,1.5,0.4c0.2,0,0.5,0,0.7-0.1c0.2-0.1,0.5-0.2,0.7-0.3c0.2-0.1,0.4-0.3,0.6-0.4c0.2-0.2,0.3-0.3,0.4-0.5
			c0.2-0.3,0.3-0.6,0.4-0.9c0-0.3,0.1-0.6,0.1-1v-0.4h-1.8v0.6c0,0.2,0,0.3,0,0.4c0,0.1-0.1,0.3-0.2,0.5c-0.1,0.2-0.4,0.3-0.8,0.3
			c-0.4,0-0.7-0.1-0.9-0.4c-0.1-0.2-0.2-0.4-0.3-0.6V34c0-0.3,0.1-0.6,0.3-0.9c0.2-0.2,0.5-0.4,0.8-0.4c0.4,0,0.7,0.1,0.8,0.4
			c0.2,0.2,0.3,0.5,0.3,0.9v0.7H-113.5z"/>
		<polygon points="-108.8,43.6 -108.8,32.8 -106.6,32.8 -106.6,31.1 -112.6,31.1 -112.6,32.8 -110.5,32.8 -110.5,43.6 		"/>
		<rect x="-105.7" y="31.1" width="1.8" height="12.5"/>
		<path d="M-102.6,34.2v6.4c0,0.3,0,0.6,0.1,0.8s0.1,0.5,0.3,0.9c0.1,0.2,0.2,0.4,0.4,0.5c0.2,0.2,0.4,0.3,0.6,0.5
			c0.2,0.1,0.5,0.2,0.8,0.3c0.3,0.1,0.6,0.1,0.9,0.1c0.5,0,1-0.1,1.4-0.4c0.4-0.2,0.8-0.5,1-0.9c0.2-0.3,0.4-0.7,0.4-1
			c0.1-0.3,0.1-0.6,0.1-1v-6.4c0-0.4,0-0.8-0.1-1.1c-0.1-0.3-0.3-0.7-0.6-1s-0.6-0.6-1-0.8c-0.4-0.2-0.8-0.3-1.3-0.3
			c-0.5,0-0.9,0.1-1.4,0.4c-0.4,0.2-0.8,0.5-1.1,0.9c-0.2,0.3-0.3,0.6-0.4,0.9C-102.5,33.5-102.6,33.8-102.6,34.2z M-100.8,40.5
			v-6.4c0-0.1,0-0.2,0-0.4c0-0.1,0.1-0.3,0.1-0.4c0.1-0.1,0.2-0.3,0.4-0.4c0.2-0.1,0.4-0.2,0.6-0.2c0.4,0,0.7,0.2,1,0.5l0,0
			c0.1,0.1,0.2,0.3,0.2,0.4c0,0.1,0,0.3,0,0.5v6.4c0,0.2,0,0.4,0,0.5s-0.1,0.3-0.2,0.4c-0.1,0.1-0.2,0.3-0.4,0.4
			c-0.2,0.1-0.4,0.1-0.6,0.1c-0.4,0-0.7-0.1-0.9-0.4c-0.2-0.3-0.3-0.5-0.3-0.6c0-0.1,0-0.1,0-0.2C-100.8,40.7-100.8,40.6-100.8,40.5
			z"/>
		<polygon points="-90.5,38.7 -93.3,31.1 -95,31.1 -95,43.6 -93.2,43.6 -93.2,36 -90.4,43.6 -88.7,43.6 -88.7,31.1 -90.5,31.1 		"/>
		<polygon points="-162.4,17 -162.4,21.5 -158.1,18.3 -158.1,43.8 -153.9,43.8 -153.9,13.8 -158.1,13.8 		"/>
		<path d="M-150.2,39.8c0.1,0.3,0.3,0.6,0.4,1c0.3,0.7,1,1.4,2.1,2.2c1.1,0.7,2.2,1.1,3.4,1.1c1.5,0,2.8-0.4,4-1.3
			c1.2-0.9,2-2.1,2.4-3.5c0.1-0.5,0.1-0.8,0.1-1.1c0-0.3,0-0.5,0-0.7v-0.5v-4c0-1.1-0.2-2-0.6-2.7c-0.4-0.7-1-1.4-2-2.1
			c1.7-1,2.5-2.5,2.5-4.4v-3.5c0-0.7-0.1-1.3-0.2-2c-0.1-0.6-0.5-1.3-0.9-2c-0.4-0.7-1.2-1.3-2.1-1.9c-1-0.5-2-0.8-3-0.8
			c-1.9,0-3.5,0.6-4.6,1.9c-1.2,1.3-1.8,2.9-1.8,4.7v2.2h4.3v-2.2c0-0.7,0.2-1.3,0.5-1.7c0.4-0.5,0.9-0.7,1.7-0.7
			c0.3,0,0.6,0.1,0.8,0.2c0.2,0.1,0.4,0.3,0.6,0.4c0.2,0.2,0.3,0.4,0.4,0.5s0.1,0.3,0.1,0.4c0.1,0.2,0.1,0.5,0.1,0.9v3.6
			c0,1.7-0.9,2.5-2.7,2.5h-0.8v3.8h0.8c0.2,0,0.5,0,0.8,0c0.3,0,0.6,0.1,0.8,0.2c0.3,0.1,0.5,0.3,0.7,0.6c0.2,0.3,0.3,0.7,0.4,1.3
			v4.6c0,0.8-0.2,1.5-0.5,2s-0.9,0.8-1.7,0.8c-0.8,0-1.3-0.3-1.6-0.8c-0.3-0.5-0.4-0.9-0.5-1.3v-2.5h-4.3v1.7c0,0.4,0,0.8,0,1.2
			c0,0.3,0.1,0.6,0.1,0.8C-150.4,39.2-150.3,39.5-150.2,39.8z"/>
		<path d="M-95.9,66.8c-21.6-0.2-43.3,9.6-56,28.2c24.5,36.1,83.2,39.2,108.8,0C-55.4,76.1-75.6,67-95.9,66.8z M-113,78.8
			c0.7,0,0.6,0.9-0.2,1.5c-0.8,0.6-1.5,0.7-1.5,0.2C-114.8,80-113.5,78.8-113,78.8z M-116.9,84.2c0.4-0.9,1.3-1.5,2-1.6
			c0.1,0,0.2,0,0.3,0c0.4,0.1,0.3,0.2-1,1.5c-1.6,1.5-1.8,1.7-1.8,1.3C-117.4,85.2-117.2,84.7-116.9,84.2z M-104.2,107.1
			c-0.3,0.4-0.6,0.9-0.6,1.2c0,0.3-0.1,0.7-0.3,0.9c-0.2,0.2-0.3,0.5-0.3,0.6c0,0.3-0.9,1.3-1.2,1.3c-0.1,0-0.2,0.1-0.3,0.2
			c0,0.1-0.5,0.3-1.1,0.3c-0.9,0.1-1,0-1.3-0.4v0c-0.2-0.3-0.3-0.9-0.3-1.8c0-1.1-0.1-1.4-0.5-1.9c-0.3-0.3-0.5-0.8-0.6-1
			s-0.1-0.7-0.2-1c-0.1-0.3-0.3-0.6-0.8-0.8c-0.4-0.2-0.7-0.4-0.7-0.5c0-0.1-0.4-0.6-0.8-1c-0.8-0.8-0.8-0.8-1.7-0.7
			c-0.5,0.1-1.1,0.3-1.3,0.4s-0.6,0.3-1,0.3c-0.6,0-0.7-0.1-1-0.7c-0.2-0.4-0.3-0.9-0.3-1.1s-0.1-0.7-0.3-1
			c-0.4-0.9-0.7-3.2-0.8-5.5c-0.1-1.8-0.1-1.9,0.5-2.8c0.3-0.5,0.6-1,0.6-1.1c0-0.2,1.4-0.7,1.7-0.6c0.1,0,0.7,0.1,1.3,0.2
			c0.6,0.1,1.4,0.3,1.7,0.5c0.3,0.2,0.7,0.3,0.9,0.3c0.2,0,0.5,0.1,0.7,0.3c0.2,0.2,0.6,0.3,0.8,0.3c0.2,0,0.5,0.1,0.6,0.2
			c0.1,0.1,0.4,0.2,0.8,0.3c1.3,0.2,3.1-0.9,3.1-1.9c0-0.8-0.7-1.4-1.6-1.4c-0.4,0-0.8-0.1-1-0.3c-0.1-0.2-0.6-0.3-1-0.3
			c-0.4,0-0.9-0.2-1.2-0.4c-0.6-0.5-2.1-0.6-2.6-0.1c-0.2,0.2-0.6,0.3-0.8,0.3c-0.2,0-0.7,0.1-1,0.3s-1,0.3-1.5,0.4l-1,0.1l0.1-0.6
			c0.1-0.5,0.2-0.6,1-0.7c1.7-0.2,2.7-0.6,2.8-1.2c0.1-0.4,0.3-0.7,1.3-1.5c0.1-0.1,0.7-0.3,1.3-0.5c1-0.3,1.2-0.3,2.4,0
			c1.6,0.4,2.3,0.3,3.1-0.6c0.4-0.3,0.9-0.8,1.2-1.1c0.6-0.5,0.6-0.7,0.2-1c-0.5-0.4-1.7-0.1-2.4,0.6c-0.5,0.6-0.7,0.7-1.5,0.6
			c-1.1,0-2.6-0.6-2.7-1.1c-0.3-0.9,1.3-1.7,3.8-1.8c1.1-0.1,2-0.2,2.2-0.3c0.3-0.2,2.9-0.5,2.9-0.3c0,0.1-0.4,0.4-0.8,0.6
			c-0.7,0.4-0.8,0.5-0.8,1.1c0,0.5,0.1,0.7,0.4,0.8c0.4,0.1,2-0.6,2.8-1.3c0.3-0.3,0.8-0.5,1-0.5c0.2,0,0.5-0.3,0.6-0.7
			c0.2-0.5,0.1-0.6-0.5-1.2c-0.9-0.8-1.4-1.5-1.4-2.2c0-1.2-0.3-1.4-3.3-1.5c-1.5-0.1-2.6-0.1-2.3-0.2c0.2,0,0.5-0.2,0.7-0.3
			c0.1-0.2,0.4-0.3,0.6-0.3c0.2,0,0.5-0.1,0.7-0.3c0.2-0.2,0.6-0.3,0.8-0.3c0.2,0,0.7-0.1,1-0.3c0.3-0.2,1.1-0.4,1.7-0.5
			c0.6-0.1,1.5-0.3,2-0.4c0.6-0.1,1.8-0.2,2.9-0.2c1.1,0,2.3,0.1,2.8,0.2c0.4,0.1,1.2,0.3,1.8,0.4c1.2,0.2,3,0.7,3.7,1.1
			c0.3,0.2,0.7,0.3,0.9,0.3c0.2,0,0.5,0.1,0.6,0.3c0.2,0.2,0.5,0.3,0.7,0.3c0.2,0,0.4,0.1,0.4,0.2c0,0.1,0.2,0.3,0.5,0.4
			c0.3,0.1,0.6,0.3,0.7,0.4c0.1,0.1,0.7,0.6,1.3,1c1.1,0.8,3.8,3.3,3.8,3.5c0,0.1,0.4,0.7,1,1.4c0.5,0.7,1,1.4,1,1.5
			s0.1,0.3,0.2,0.5c0.8,0.8,2.3,5,2.3,6.2c0,1.4-1.2,1.8-2.1,0.8c-1.3-1.5-2.5,0.1-1.4,1.9c0.2,0.3,0.2,0.5,0,0.7
			c-0.3,0.4-1.8,1.2-2.3,1.2c-0.5,0-1.4,1.1-1.5,2c-0.1,0.9,0.1,2.2,0.6,2.6c0.3,0.2,0.4,1.2,0.2,1.2c-0.2,0-1.3-0.8-2-1.5
			c-0.6-0.5-0.9-1.1-1.8-3c-0.1-0.3-0.3-0.8-0.4-1.1c-0.2-0.9-1-1.6-1.9-1.6c-1.2,0-1.5,0.4-1.6,1.7c0,0.8-0.1,1.4-0.4,1.7
			c-0.5,0.6-0.5,0.6-1,0.2c-1-0.8-1.3-1-1.6-1c-0.1,0-0.3-0.1-0.5-0.3c-0.1-0.2-0.5-0.3-0.8-0.3c-1,0-2.3-0.8-2.8-1.8
			c-0.2-0.5-0.4-1-0.5-1.1c0-0.2-1.8-1.5-2.1-1.5c-0.1,0-0.6-0.3-1.1-0.7c-1.2-0.8-1.6-0.7-1.6,0.1c0,0.5,0.3,0.9,1.6,2.1
			c1.7,1.7,2.1,2.4,1.5,3c-0.3,0.4-1.5,1-1.9,1c-0.1,0-0.8-0.7-1.7-1.5c-1.1-1.1-1.6-1.5-1.9-1.4c-0.3,0-0.5,0.2-0.5,0.6
			c0,0.3,0,0.7,0.2,0.8c0.1,0.1,0.2,0.4,0.2,0.6c0,0.6,1.7,2.8,2.2,2.8c0.1,0,0.4,0.2,0.7,0.4c0.7,0.6,0.5,1.2-0.6,2.3
			c-0.8,0.8-0.9,0.9-1,2.5c-0.1,0.9-0.2,1.7-0.3,1.8c-0.1,0.1-0.3,0.5-0.3,0.8C-103.6,106.1-103.9,106.7-104.2,107.1z M-79,100
			c-0.1,0.2-0.4,0.2-0.5,0.1c-0.2-0.2,0-0.3,0.1-0.4c0.1,0,0.1,0,0.2,0C-79,99.7-78.9,99.9-79,100z M-91.6,97.4c0,0-0.1,0.1-0.3,0.2
			c-0.2,0.1-0.3,0-0.3-0.1c0-0.1,0.1-0.2,0.3-0.2C-91.8,97.3-91.6,97.4-91.6,97.4z M-100.5,102.6c-0.2,0.3-0.4,0.8-0.5,1.1
			c-0.1,0.4-0.2,0.2-0.2-0.6c0-0.9,0.1-1.2,0.4-1.5c0.2-0.2,0.4-0.4,0.5-0.4C-100.1,101.1-100.2,102.1-100.5,102.6z M-84.3,113.4
			c0,0-0.2,0.1-0.5,0.3c-0.2,0.1-0.6,0.4-0.9,0.5c-0.3,0.1-0.5,0.3-0.5,0.4c0,0.1-0.3,0.2-0.6,0.3c-0.3,0.1-0.7,0.3-0.8,0.4
			c-0.1,0.2-0.4,0.3-0.5,0.3c-0.2,0-0.5,0.1-0.7,0.2c-0.5,0.3-1.8,0.7-3.6,1.1c-1.5,0.4-7.1,0.5-7.8,0.3h0c-0.2-0.1-0.9-0.2-1.5-0.3
			c-1.2-0.2-1.4-0.3-1.4-1.1c0-0.6,1.1-1.8,1.6-1.8c0.2,0,0.5-0.1,0.7-0.3c0.8-0.6,5.2-0.2,6.9,0.6c0.3,0.2,0.7,0.3,1,0.3
			c0.2,0,0.6,0.1,0.9,0.3c0.7,0.3,1.8,0.5,2.3,0.4c0.2-0.1,0.7-0.5,1.2-0.9c1.1-0.9,2.8-1.6,3.6-1.5c0.3,0,0.5,0.1,0.6,0.3
			C-84.3,113.2-84.3,113.4-84.3,113.4z M-76.4,103.5c-0.6,1.3-1.1,2.3-1.5,2.9c-0.2,0.3-0.5,0.8-0.6,1c-0.1,0.2-0.3,0.5-0.4,0.5
			c-0.1,0-0.4,0.5-0.7,0.9c-0.3,0.5-0.7,0.8-0.7,0.8c-0.1,0-0.2,0.1-0.2,0.3s-0.2,0.3-0.3,0.3c-2,0.1-2.4,0.1-2.5-0.3
			c-0.1-0.4-0.8-0.5-1.2-0.1c-0.2,0.2-0.5,0.3-0.8,0.3c-0.4,0-0.5-0.1-0.5-0.6c0-0.3-0.1-0.7-0.3-0.9c-0.2-0.2-0.3-0.8-0.3-1.5
			c0-1.2,0.5-2.2,1.4-3c0.5-0.4,3-1.3,3.5-1.3c0.7,0,3.4-1,4.1-1.6c0.2-0.2,0.3-0.2,0.5-0.2c0.2,0,0.4,0.3,0.6,0.9
			C-76.1,102.7-76.1,102.9-76.4,103.5z M-75,98.3c-0.2,0-0.4-0.1-0.4-0.2c-0.9-1.4-1.1-3.1-0.6-3.8c0.2-0.2,0.3-0.7,0.3-1
			c0-0.5,0.1-0.7,0.3-0.6c0.1,0,0.2,0.1,0.4,0.3C-74.6,93.4-74.5,98.3-75,98.3z"/>
	</g>
	<g>
		<polygon points="54.7,24.6 51.1,24.6 51.1,13.9 49.3,13.9 49.3,26.4 54.7,26.4 		"/>
		<rect x="55.3" y="13.9" width="1.8" height="12.5"/>
		<polygon points="60.3,21 63.4,21 63.4,19.3 60.3,19.3 60.3,15.5 63.9,15.5 63.9,13.9 58.5,13.9 58.5,26.4 60.3,26.4 		"/>
		<polygon points="69.9,24.6 66.3,24.6 66.3,20.9 69.4,20.9 69.4,19.2 66.3,19.2 66.3,15.5 69.9,15.5 69.9,13.9 64.5,13.9 
			64.5,26.4 69.9,26.4 		"/>
		<path d="M54.2,42.8c0.6-0.6,0.9-1.3,0.9-2.2v-1.5c0-0.9-0.4-1.6-1.1-2.1c0.8-0.4,1.1-1.1,1.1-2v-1c0-0.8-0.2-1.5-0.6-1.9
			c-0.4-0.4-0.8-0.7-1.1-0.8c-0.3-0.2-0.7-0.2-1.1-0.2l-2.9,0v12.5h2.8C53,43.6,53.7,43.3,54.2,42.8z M51.1,32.8h1
			c0.4,0,0.7,0.1,0.9,0.4c0.2,0.2,0.3,0.5,0.3,0.9v0.8c0,0.4-0.1,0.8-0.3,1c-0.2,0.2-0.5,0.4-0.9,0.4h-1.1V32.8z M51.1,37.8h1
			c0.4,0,0.7,0.1,0.9,0.4c0.2,0.2,0.3,0.5,0.3,0.9v1.5c0,0.4-0.1,0.7-0.3,0.9c-0.2,0.2-0.5,0.4-0.9,0.4h-1V37.8z"/>
		<polygon points="62.2,32.8 62.2,31.1 56.9,31.1 56.9,43.6 62.2,43.6 62.2,41.8 58.6,41.8 58.6,38.2 61.8,38.2 61.8,36.5 
			58.6,36.5 58.6,32.8 		"/>
		<polygon points="62.9,31.1 62.9,43.6 68.3,43.6 68.3,41.8 64.7,41.8 64.7,31.1 		"/>
		<path d="M69,32.3L69,32.3c-0.2,0.3-0.3,0.6-0.4,0.9c-0.1,0.3-0.1,0.6-0.1,1v6.4c0,0.3,0,0.6,0.1,0.8c0,0.2,0.1,0.5,0.3,0.9
			c0.1,0.2,0.2,0.4,0.4,0.5c0.2,0.2,0.4,0.3,0.6,0.5c0.2,0.1,0.5,0.2,0.8,0.3c0.3,0.1,0.6,0.1,0.9,0.1c0.5,0,1-0.1,1.4-0.4
			c0.4-0.2,0.8-0.5,1-0.9c0.2-0.3,0.4-0.7,0.4-1c0.1-0.3,0.1-0.6,0.1-1v-6.4c0-0.4,0-0.8-0.1-1.1c-0.1-0.3-0.3-0.7-0.6-1
			c-0.3-0.3-0.6-0.6-1-0.8c-0.4-0.2-0.8-0.3-1.3-0.3c-0.5,0-0.9,0.1-1.4,0.4C69.7,31.6,69.3,31.9,69,32.3z M70.3,40.5v-6.4
			c0-0.1,0-0.2,0-0.4c0-0.1,0.1-0.3,0.1-0.4c0.1-0.1,0.2-0.3,0.4-0.4c0.2-0.1,0.4-0.2,0.6-0.2c0.4,0,0.7,0.2,1,0.5v0
			c0.1,0.1,0.2,0.3,0.2,0.4c0,0.1,0,0.3,0,0.5v6.4c0,0.2,0,0.4,0,0.5c0,0.1-0.1,0.3-0.2,0.4c-0.1,0.1-0.2,0.3-0.4,0.4
			c-0.2,0.1-0.4,0.1-0.6,0.1c-0.4,0-0.7-0.1-0.9-0.4c-0.2-0.3-0.3-0.5-0.3-0.6c0-0.1,0-0.1,0-0.2C70.3,40.7,70.3,40.6,70.3,40.5z"/>
		<polygon points="78.9,43.6 80.4,36 81.8,43.6 83.5,43.6 85.3,31.1 83.4,31.1 82.5,38.7 81,31.1 79.7,31.1 78.2,38.7 77.3,31.1 
			75.4,31.1 77.3,43.6 		"/>
		<polygon points="91.1,43.6 92.5,36 94,43.6 95.7,43.6 97.4,31.1 95.5,31.1 94.6,38.7 93.2,31.1 91.8,31.1 90.4,38.7 89.5,31.1 
			87.6,31.1 89.4,43.6 		"/>
		<path d="M98.9,43.6l0.5-2.7h2.3l0.5,2.7h1.9l-2.8-12.5h-1.5L97,43.6H98.9z M100.6,34.7l0.8,4.6h-1.7L100.6,34.7z"/>
		<polygon points="105.7,43.6 107.4,43.6 107.4,32.8 109.6,32.8 109.6,31.1 103.5,31.1 103.5,32.8 105.7,32.8 		"/>
		<polygon points="110.6,43.6 115.9,43.6 115.9,41.8 112.3,41.8 112.3,38.2 115.5,38.2 115.5,36.5 112.3,36.5 112.3,32.8 
			115.9,32.8 115.9,31.1 110.6,31.1 		"/>
		<path d="M121.2,37.9c1-0.6,1.5-1.5,1.5-2.7v-1.2c0-0.8-0.3-1.5-0.9-2.1c-0.6-0.6-1.3-0.9-2.1-0.9h-3.1v12.5h1.8v-5.4h1.1l1.7,5.4
			h1.9L121.2,37.9z M120.9,35.2c0,0.2,0,0.4-0.1,0.6c0,0.2-0.1,0.3-0.2,0.5v0c-0.2,0.3-0.6,0.4-0.9,0.4h-1.3v-3.9h1.3
			c0.4,0,0.7,0.1,0.9,0.4c0.2,0.2,0.3,0.5,0.3,0.9V35.2z"/>
		<polygon points="11.3,17 11.3,21.5 15.6,18.3 15.6,43.8 19.8,43.8 19.8,13.8 15.6,13.8 		"/>
		<polygon points="35.5,43.8 35.5,39.2 37.6,39.2 37.6,35.2 35.5,35.2 35.5,26.7 31.2,26.7 31.2,35.2 27,35.2 33.4,13.8 28.8,13.8 
			22.6,35.2 22.6,39.2 31.2,39.2 31.2,43.8 		"/>
		<path d="M95.8,72.7c-6.6,4.4-13.3,7.6-21.4,0.2c-6.9,6-14,4.6-21.2-0.3c-5.4,4.3-11.1,6.7-18.4,2.5l0.2,4.2
			c7.9,6.2,12.8,2.4,17.7-1.4c9.4,6.9,15.7,3.6,21.9-0.1c8.3,6.3,15.2,4.9,21.4,0.3c5,4.2,10.6,6.2,18.2,1l-0.3-4
			C105.1,79.7,100.7,75.8,95.8,72.7z"/>
		<polygon points="113.9,62.8 113.9,62.8 113.9,62.8 		"/>
		<path d="M83.6,91.9c-10.1,0.2-20,5.6-29.8,12.9C49.5,97.3,43.8,92,34.7,92c8.7,12.9,6.9,24.4,0,35.3c9.1,0,14.8-5.3,19.1-12.8
			c19.7,14.6,39.6,21.3,60.9-4.9C104,96.5,93.7,91.6,83.6,91.9z M98.3,106.9c0,2.7-2.2,4.8-4.8,4.8c-2.7,0-4.8-2.2-4.8-4.8
			c0-2.7,2.2-4.8,4.8-4.8C96.1,102.1,98.3,104.2,98.3,106.9C98.3,106.9,98.3,106.9,98.3,106.9z"/>
		<path d="M35.1,67c7.9,6.2,12.8,2.4,17.7-1.4c9.4,6.9,15.7,3.6,21.9-0.1c8.3,6.3,15.2,4.9,21.4,0.3c5,4.2,10.6,6.2,18.2,1l-0.3-4
			c-8.8,4.7-13.2,0.8-18.1-2.3c-6.6,4.4-13.3,7.6-21.4,0.2c-6.9,6-14,4.6-21.2-0.3c-5.4,4.3-11.1,6.7-18.4,2.5L35.1,67z"/>
		<polygon points="113.9,75 113.9,75 113.9,75 		"/>
	</g>
	<g>
		<polygon class="st0" points="229.1,24.6 225.6,24.6 225.6,13.9 223.8,13.9 223.8,26.4 229.1,26.4 		"/>
		<rect x="229.5" y="13.9" class="st0" width="1.8" height="12.5"/>
		<polygon class="st0" points="234.2,21 237.3,21 237.3,19.3 234.2,19.3 234.2,15.5 237.7,15.5 237.7,13.9 232.4,13.9 232.4,26.4 
			234.2,26.4 		"/>
		<polygon class="st0" points="243.7,24.6 240.1,24.6 240.1,20.9 243.2,20.9 243.2,19.2 240.1,19.2 240.1,15.5 243.7,15.5 
			243.7,13.9 238.3,13.9 238.3,26.4 243.7,26.4 		"/>
		<path class="st0" d="M224,42.3c0.1,0.2,0.2,0.4,0.4,0.5c0.2,0.2,0.4,0.3,0.6,0.5c0.2,0.1,0.5,0.2,0.8,0.3c0.3,0.1,0.6,0.1,0.9,0.1
			c0.5,0,1-0.1,1.4-0.4c0.4-0.2,0.8-0.5,1-0.9c0.2-0.3,0.4-0.7,0.4-1c0.1-0.3,0.1-0.6,0.1-1v-6.4c0-0.4,0-0.8-0.1-1.1
			c-0.1-0.3-0.3-0.7-0.6-1c-0.3-0.3-0.6-0.6-1-0.8c-0.4-0.2-0.8-0.3-1.3-0.3c-0.5,0-0.9,0.1-1.4,0.4c-0.4,0.2-0.8,0.5-1.1,0.9l0,0
			c-0.2,0.3-0.3,0.6-0.4,0.9c-0.1,0.3-0.1,0.6-0.1,1v6.4c0,0.3,0,0.6,0.1,0.8S223.8,41.9,224,42.3z M225.4,40.5v-6.4
			c0-0.1,0-0.2,0-0.4c0-0.1,0.1-0.3,0.1-0.4c0.1-0.1,0.2-0.3,0.4-0.4c0.2-0.1,0.4-0.2,0.6-0.2c0.4,0,0.7,0.2,1,0.5l0,0
			c0.1,0.1,0.2,0.3,0.2,0.4c0,0.1,0,0.3,0,0.5v6.4c0,0.2,0,0.4,0,0.5s-0.1,0.3-0.2,0.4c-0.1,0.1-0.2,0.3-0.4,0.4
			c-0.2,0.1-0.4,0.1-0.6,0.1c-0.4,0-0.7-0.1-0.9-0.4c-0.2-0.3-0.3-0.5-0.3-0.6c0-0.1,0-0.1,0-0.2C225.4,40.7,225.4,40.6,225.4,40.5z
			"/>
		<polygon class="st0" points="232.5,31.1 230.8,31.1 230.8,43.6 232.6,43.6 232.6,36 235.3,43.6 237,43.6 237,31.1 235.2,31.1 
			235.2,38.7 		"/>
		<polygon class="st0" points="242.2,31.1 242.2,43.6 247.5,43.6 247.5,41.8 243.9,41.8 243.9,31.1 		"/>
		<path class="st0" d="M250,40.9h2.3l0.5,2.7h1.9l-2.8-12.5h-1.5l-2.8,12.5h1.9L250,40.9z M251.2,34.7l0.8,4.6h-1.7L251.2,34.7z"/>
		<polygon class="st0" points="257.1,36 259.8,43.6 261.5,43.6 261.5,31.1 259.7,31.1 259.7,38.7 257,31.1 255.3,31.1 255.3,43.6 
			257.1,43.6 		"/>
		<path class="st0" d="M267.7,42.8c0.6-0.6,0.8-1.3,0.8-2.2V34c0-0.8-0.3-1.5-0.9-2.1c-0.6-0.6-1.3-0.9-2.1-0.9l-2.8,0v12.5h2.8
			C266.4,43.6,267.1,43.3,267.7,42.8z M264.5,42v-9.2h0.9c0.4,0,0.7,0.1,0.9,0.4c0.3,0.2,0.4,0.5,0.4,0.9v6.5v0c0,1-0.5,1.4-1.4,1.4
			H264.5z"/>
		<polygon class="st0" points="186.7,17 186.7,21.5 191,18.3 191,43.8 195.3,43.8 195.3,13.8 191,13.8 		"/>
		<path class="st0" d="M210.3,26.6c-0.4-0.6-0.9-1.1-1.7-1.5c-0.7-0.4-1.5-0.6-2.2-0.6l0,0c-1.3,0-2.5,0.4-3.5,1.3v-8h8.4v-4H199v16
			h3.8c0.4-1.1,1.1-1.6,2.1-1.6c0.4,0,0.7,0.1,0.9,0.2c0.3,0.1,0.5,0.3,0.6,0.5c0.2,0.2,0.3,0.4,0.4,0.6c0.1,0.2,0.1,0.4,0.1,0.5
			c0,0.1,0,0.3,0,0.4c0,0.1,0,0.3,0,0.4v6.3c0,0.3,0,0.6,0,0.8c0,0.2-0.2,0.6-0.4,1s-0.8,0.7-1.6,0.7c-0.4,0-0.7-0.1-0.9-0.2
			c-0.3-0.1-0.5-0.3-0.6-0.5c-0.1-0.2-0.3-0.4-0.4-0.6c-0.1-0.2-0.1-0.4-0.1-0.5v-1.7h-4.4V37c0,0.8,0.1,1.5,0.3,2.3
			c0.2,0.7,0.5,1.5,1,2.2c0.5,0.7,1.2,1.3,2.1,1.8c0.9,0.5,1.9,0.7,2.9,0.7c1.3,0,2.6-0.4,3.7-1.1c1.2-0.7,1.9-1.5,2.2-2.3
			c0.3-0.8,0.5-1.4,0.5-1.9c0.1-0.5,0.1-1,0.1-1.7v-6.7c0-0.7-0.1-1.3-0.2-1.9C210.9,27.8,210.7,27.2,210.3,26.6z"/>
		<path class="st0" d="M220.6,84.8c-4.6,7.2,0,14,5.5,14H244c9.9,0,16.8-16.8,1.4-23.7C251,55.7,225,57,225.2,70.1l0,0
			C214,70.9,215.2,81.7,220.6,84.8z"/>
		<path class="st0" d="M273.1,89.6c-6.1-3.9-9.5-2.1-12,0c-0.6,0.6-0.4,1.9,0.7,1.3c5-2.3,11.1,2.8,11.1,2.8s5.2-4.9,10.9-2.8
			c1.5,0.5,1.4-1,0.9-1.3C281.9,87.6,278.2,85.6,273.1,89.6z"/>
		<path class="st0" d="M263.6,74.5c0,0,4-4.4,8.8-3.1c1.3,0.3,1-0.9,0.6-1.2c-2.6-1.5-5.7-2.9-9.6,0.8c-5.3-2.8-8-1.1-9.9,0.9
			c-0.5,0.5-0.2,1.6,0.7,1.1l0,0C258.2,70.7,263.6,74.5,263.6,74.5z"/>
		<path class="st0" d="M268.6,62.1L268.6,62.1c3.6-0.5,6.6,3.9,6.6,3.9s4.3-2.1,7.5,0.3c0.8,0.6,1.1-0.4,0.8-0.7
			c-1.5-1.9-3.4-3.9-7.4-2.3c-3.2-3.7-5.7-3.2-7.6-2.3C267.9,61.3,267.8,62.2,268.6,62.1z"/>
		<path class="st0" d="M234.8,101.6c-0.5,0-0.8,0.4-0.8,0.8v9.9c0,0.5,0.4,0.8,0.8,0.8h3.7c0.5,0,0.8-0.4,0.8-0.8v-9.9
			c0-0.5-0.4-0.8-0.8-0.8H234.8z"/>
		<path class="st0" d="M286.1,117.6h-70.9c-0.5,0-0.8,0.4-0.8,0.8v3.5c0,0.5,0.4,0.8,0.8,0.8h70.9c0.5,0,0.8-0.4,0.8-0.8v-3.5
			C286.9,118,286.6,117.6,286.1,117.6z"/>
		<path class="st0" d="M286.1,126.1h-70.9c-0.5,0-0.8,0.4-0.8,0.8v3.5c0,0.5,0.4,0.8,0.8,0.8h70.9c0.5,0,0.8-0.4,0.8-0.8V127
			C286.9,126.5,286.6,126.1,286.1,126.1z"/>
	</g>
</g>
</svg>
