<?xml version="1.0" encoding="utf-8"?>
<!-- Generator: Adobe Illustrator 26.4.1, SVG Export Plug-In . SVG Version: 6.00 Build 0)  -->
<svg version="1.1" id="Layer_1" xmlns="http://www.w3.org/2000/svg" xmlns:xlink="http://www.w3.org/1999/xlink" x="0px" y="0px"
	 viewBox="0 0 464.6 244.6" style="enable-background:new 0 0 464.6 244.6;" xml:space="preserve">
<style type="text/css">
	.st0{fill:#FFFFFF;}
</style>
<g>
	<g>
		<path class="st0" d="M87.8,84.7c13.2,0,23.9,7.1,27.9,19.2H102c-2.8-5.7-7.9-8.5-14.3-8.5c-10.4,0-17.8,7.6-17.8,19.6
			s7.4,19.6,17.8,19.6c6.4,0,11.5-2.8,14.3-8.6h13.7c-4,12.2-14.7,19.2-27.9,19.2c-17.1,0-30.1-12.5-30.1-30.2S70.8,84.7,87.8,84.7z
			"/>
		<path class="st0" d="M127.5,81.9h11.9v62.9h-11.9V81.9z"/>
		<path class="st0" d="M151.5,85.1c0-3.9,3.1-7,7.3-7c4.2,0,7.3,3.1,7.3,7s-3.1,7-7.3,7C154.5,92.1,151.5,89,151.5,85.1z
			 M152.8,97.7h11.9v47.1h-11.9V97.7z"/>
		<path class="st0" d="M243.9,118.8c0-7.5-4.2-11.4-10.5-11.4c-6.4,0-10.5,3.9-10.5,11.4v26H211v-26c0-7.5-4.2-11.4-10.5-11.4
			c-6.5,0-10.6,3.9-10.6,11.4v26H178V97.7h11.9v5.7c3-3.9,8-6.4,13.9-6.4c7.3,0,13.3,3.1,16.6,9c3.1-5.4,9.3-9,16.1-9
			c11.3,0,19.3,7.1,19.3,20.1v27.6h-11.9V118.8z"/>
		<path class="st0" d="M287.1,96.9c7.6,0,12.7,3.6,15.6,7.5v-6.7h12v47.1h-12v-6.9c-2.8,4.1-8.2,7.6-15.6,7.6
			c-11.9,0-21.4-9.8-21.4-24.5C265.6,106.4,275.1,96.9,287.1,96.9z M290.2,107.4c-6.4,0-12.4,4.8-12.4,13.7c0,8.9,6,14,12.4,14
			c6.5,0,12.5-4.9,12.5-13.9S296.7,107.4,290.2,107.4z"/>
		<path class="st0" d="M329.8,107.5h-5.6v-9.8h5.6V86.1h12v11.6h10.5v9.8h-10.5v22.8c0,3.1,1.3,4.5,5,4.5h5.5v10h-7.5
			c-9,0-15-3.8-15-14.6V107.5z"/>
		<path class="st0" d="M383.1,145.5c-13.7,0-23.6-9.5-23.6-24.3c0-14.9,9.7-24.3,23.6-24.3c13.6,0,23.2,9.3,23.2,23.3
			c0,1.5-0.1,3.1-0.3,4.6h-34.4c0.6,7,5.4,10.9,11.3,10.9c5.1,0,7.9-2.5,9.4-5.7h12.8C402.5,138.7,394.7,145.5,383.1,145.5z
			 M371.6,116.8h22.3c-0.2-6.2-5.1-10.1-11.2-10.1C377,106.7,372.5,110.4,371.6,116.8z"/>
	</g>
	<g>
		<path class="st0" d="M177.8,54.9c-11.5,0-20.5-5.7-20.9-16.6h13.9c0.4,4.1,3,6.1,6.6,6.1c3.8,0,6.3-1.9,6.3-5
			c0-9.9-26.8-4.6-26.6-23.6c0-10.2,8.3-15.8,19.5-15.8c11.7,0,19.5,5.8,20.1,16h-14.1c-0.2-3.4-2.7-5.5-6.2-5.6
			c-3.1-0.1-5.5,1.5-5.5,4.9c0,9.3,26.5,5.1,26.5,23C197.3,47.4,190.3,54.9,177.8,54.9z"/>
		<path class="st0" d="M203.8,0.7h15.4l15,37.1l14.9-37.1h15.3v53.6h-13.1V22.2l-12,32.1h-10.5l-12.1-32.2v32.2h-13.1V0.7H203.8z"/>
		<path class="st0" d="M306.6,11.2h-19.8V22h17.5v10.1h-17.5v11.8h19.8v10.4h-32.8V0.7h32.8V11.2z"/>
		<path class="st0" d="M192.9,209.5h-20.3v22.1h-13.1V178h13.1v21h20.3v-21H206v53.6h-13.1V209.5z"/>
		<path class="st0" d="M255.8,231.5h-13v-5.8c-2.6,3.7-7.2,6.3-12.9,6.3c-9.8,0-16.5-6.8-16.5-18.2v-24.9h13V212c0,5.8,3.3,9,8.2,9
			c5,0,8.2-3.2,8.2-9v-23.1h13L255.8,231.5L255.8,231.5z"/>
		<path class="st0" d="M289.9,188.3c10.5,0,18.8,8.4,18.8,21.8s-8.3,22-18.8,22c-6.3,0-10.8-2.8-13.1-6.6v6h-13.1V175h13.1v19.9
			C279.1,191.2,283.7,188.3,289.9,188.3z M286,199.7c-4.9,0-9.3,3.7-9.3,10.5s4.4,10.5,9.3,10.5c5,0,9.4-3.8,9.4-10.6
			C295.3,203.4,290.9,199.7,286,199.7z"/>
	</g>
	<g>
		<path class="st0" d="M0.9,116.4c0,51.5,41.9,93.3,93.3,93.3h45.7v-10.4H94.2c-45.7,0-82.9-37.2-82.9-82.9s37.2-82.9,82.9-82.9
			h45.7V23.1H94.2C42.8,23.1,0.9,65,0.9,116.4z"/>
		<path class="st0" d="M464.6,116.4c0-51.5-41.9-93.3-93.3-93.3h-45.7v10.4h45.7c45.7,0,82.9,37.2,82.9,82.9
			c0,43.1-33.1,78.7-75.3,82.5c-4.1-1.2-8.1-2.2-11.1-2.5c-3.6-0.4-7.4-0.3-11.2,0.5c-29.1,5-36.9,46.7-36.9,46.7l7,0.8
			c42,1.6,49-9.4,53.6-13.8c2.8-2.7,8.1-10.9,11.8-16.9c-11.8,0-30.9,2-54.6,14c13.4-10.8,28.1-17.2,40-18.2
			C425.5,205.7,464.6,165.8,464.6,116.4z"/>
	</g>
</g>
</svg>
